<svg width="786" height="657" viewBox="0 0 786 657" fill="none" xmlns="http://www.w3.org/2000/svg">
<path d="M619.109 23.9657C527.554 -28.3596 446.467 14.7177 405.905 60.5878C365.343 106.458 335.121 152.791 284.201 161.299C233.282 169.807 156.024 148.222 98.464 188.765C40.9043 229.309 41.1262 336.993 86.7005 398.048C132.275 459.103 250.187 488.29 386.225 507.914C435.038 515.308 484.852 512.544 532.548 499.795L594.343 477.359C624.528 463.579 649.831 448.061 671.249 435.466C703.839 416.23 715.325 369.342 721.559 334.995C730.607 283.525 729.823 230.806 719.247 179.628C705.596 115.151 674.468 55.5754 619.109 23.9657Z" fill="#5DCFE8"/>
<path opacity="0.8" d="M619.109 23.9657C527.554 -28.3596 446.467 14.7177 405.905 60.5878C365.343 106.458 335.121 152.791 284.201 161.299C233.282 169.807 156.024 148.222 98.464 188.765C40.9043 229.309 41.1262 336.993 86.7005 398.048C132.275 459.103 250.187 488.29 386.225 507.914C435.038 515.308 484.852 512.544 532.548 499.795L594.343 477.359C624.528 463.579 649.831 448.061 671.249 435.466C703.839 416.23 715.325 369.342 721.559 334.995C730.607 283.525 729.823 230.806 719.247 179.628C705.596 115.151 674.468 55.5754 619.109 23.9657Z" fill="white"/>
<path opacity="0.8" d="M759.069 88.0551C756.998 53.8744 733.656 42.6658 718.859 58.9423C715.343 62.9128 712.988 67.7743 712.052 72.9942C711.116 78.2142 711.634 83.5912 713.551 88.536C718.748 102.574 727.682 127.489 733.009 146.983C740.851 175.763 738.224 197.996 747.38 186.232C756.536 174.469 761.677 131.225 759.069 88.0551Z" fill="white"/>
<path opacity="0.8" d="M759.069 88.0551C756.998 53.8744 733.656 42.6658 718.859 58.9423C715.343 62.9128 712.988 67.7743 712.052 72.9942C711.116 78.2142 711.634 83.5912 713.551 88.536C718.748 102.574 727.682 127.489 733.009 146.983C740.851 175.763 738.224 197.996 747.38 186.232C756.536 174.469 761.677 131.225 759.069 88.0551Z" fill="white"/>
<path d="M364.069 82.8196C378.441 80.2117 396.752 46.1975 420.297 31.8076C443.843 17.4176 422.924 6.94888 400.729 17.4176C400.729 17.4176 383.712 21.3388 370.636 47.5107C357.559 73.6826 349.68 85.4276 364.069 82.8196Z" fill="white"/>
<path opacity="0.8" d="M364.069 82.8196C378.441 80.2117 396.752 46.1975 420.297 31.8076C443.843 17.4176 422.924 6.94888 400.729 17.4176C400.729 17.4176 383.712 21.3388 370.636 47.5107C357.559 73.6826 349.68 85.4276 364.069 82.8196Z" fill="white"/>
<path d="M340.524 64.5097C352.195 59.8302 364.92 28.054 351.621 29.6816C349.941 29.9252 348.352 30.5979 347.007 31.6346C345.663 32.6714 344.608 34.0372 343.945 35.6003C339.691 45.0518 330.018 68.7083 340.524 64.5097Z" fill="white"/>
<path opacity="0.8" d="M340.524 64.5097C352.195 59.8302 364.92 28.054 351.621 29.6816C349.941 29.9252 348.352 30.5979 347.007 31.6346C345.663 32.6714 344.608 34.0372 343.945 35.6003C339.691 45.0518 330.018 68.7083 340.524 64.5097Z" fill="white"/>
<path d="M411.788 656.086C618.46 656.086 786 649.859 786 642.177C786 634.495 618.46 628.268 411.788 628.268C205.117 628.268 37.5762 634.495 37.5762 642.177C37.5762 649.859 205.117 656.086 411.788 656.086Z" fill="#44DBB5"/>
<path opacity="0.8" d="M411.788 656.086C618.46 656.086 786 649.859 786 642.177C786 634.495 618.46 628.268 411.788 628.268C205.117 628.268 37.5762 634.495 37.5762 642.177C37.5762 649.859 205.117 656.086 411.788 656.086Z" fill="white"/>
<path d="M591.645 119.35C590.909 119.35 590.203 119.642 589.683 120.163C589.163 120.683 588.87 121.389 588.87 122.125V136.348H538.173V122.125C538.173 121.389 537.881 120.683 537.36 120.163C536.84 119.642 536.134 119.35 535.398 119.35C534.663 119.35 533.957 119.642 533.437 120.163C532.916 120.683 532.624 121.389 532.624 122.125V480.393C532.624 481.129 532.916 481.834 533.437 482.355C533.957 482.875 534.663 483.167 535.398 483.167C536.134 483.167 536.84 482.875 537.36 482.355C537.881 481.834 538.173 481.129 538.173 480.393V400.249H588.87V480.393C588.87 481.129 589.163 481.834 589.683 482.355C590.203 482.875 590.909 483.167 591.645 483.167C592.381 483.167 593.086 482.875 593.607 482.355C594.127 481.834 594.419 481.129 594.419 480.393V122.069C594.405 121.343 594.106 120.651 593.587 120.143C593.069 119.635 592.371 119.35 591.645 119.35ZM588.87 394.756H538.173V376.778H588.87V394.756ZM588.87 371.211H538.173V353.251H588.87V371.211ZM588.87 347.684H538.173V329.78H588.87V347.684ZM588.87 324.175H538.173V306.345H588.87V324.175ZM588.87 300.685H538.173V283.059H588.87V300.685ZM588.87 277.269H538.173V259.532H588.87V277.269ZM588.87 253.964H538.173V236.06H588.87V253.964ZM588.87 230.437H538.173V212.533H588.87V230.437ZM588.87 206.966H538.173V189.006H588.87V206.966ZM588.87 183.439H538.173V165.442H588.87V183.439ZM588.87 159.893H538.173V141.897H588.87V159.893Z" fill="white"/>
<path d="M111.41 408.184C111.41 408.184 152.934 351.345 132.681 337.899C111.614 324.008 101.718 366.087 97.2609 386.747C87.754 430.841 90.4359 440.2 96.817 430.509L111.41 408.184Z" fill="#44DBB5"/>
<path opacity="0.5" d="M111.41 408.184C111.41 408.184 152.934 351.345 132.681 337.899C111.614 324.008 101.718 366.087 97.2609 386.747C87.754 430.841 90.4359 440.2 96.817 430.509L111.41 408.184Z" fill="white"/>
<path d="M126.981 443.141C126.981 443.141 184.707 402.857 169.892 383.658C154.485 363.664 131.457 400.304 120.526 418.356C97.2026 456.976 96.7217 466.705 105.896 459.603L126.981 443.141Z" fill="#44DBB5"/>
<path opacity="0.5" d="M126.981 443.141C126.981 443.141 184.707 402.857 169.892 383.658C154.485 363.664 131.457 400.304 120.526 418.356C97.2026 456.976 96.7217 466.705 105.896 459.603L126.981 443.141Z" fill="white"/>
<path d="M128.246 489.863C128.246 489.863 178.185 467.427 169.659 450.595C160.78 433.08 137.864 457.716 126.896 469.961C103.461 496.114 101.686 503.476 109.731 499.388L128.246 489.863Z" fill="#44DBB5"/>
<path opacity="0.5" d="M128.246 489.863C128.246 489.863 178.185 467.427 169.659 450.595C160.78 433.08 137.864 457.716 126.896 469.961C103.461 496.114 101.686 503.476 109.731 499.388L128.246 489.863Z" fill="white"/>
<path d="M131.201 536.787C131.201 536.787 181.14 514.352 172.632 497.52C163.735 480.023 140.837 504.641 129.85 516.904C106.435 543.057 104.64 550.419 112.705 546.313L131.201 536.787Z" fill="#44DBB5"/>
<path opacity="0.5" d="M131.201 536.787C131.201 536.787 181.14 514.352 172.632 497.52C163.735 480.023 140.837 504.641 129.85 516.904C106.435 543.057 104.64 550.419 112.705 546.313L131.201 536.787Z" fill="white"/>
<path d="M72.6251 431.933C72.6251 431.933 17.7288 387.856 3.46839 407.462C-11.3285 427.808 30.2137 439.701 50.6518 445.102C94.2655 456.625 103.735 454.35 94.3395 447.543L72.6251 431.933Z" fill="#44DBB5"/>
<path opacity="0.5" d="M72.6251 431.933C72.6251 431.933 17.7288 387.856 3.46839 407.462C-11.3285 427.808 30.2137 439.701 50.6518 445.102C94.2655 456.625 103.735 454.35 94.3395 447.543L72.6251 431.933Z" fill="white"/>
<path d="M74.2528 468.759C74.2528 468.759 11.6992 436.465 1.61888 458.531C-8.86838 481.484 34.2274 484.814 55.2574 486.034C100.295 488.661 109.136 484.555 98.5751 479.746L74.2528 468.759Z" fill="#44DBB5"/>
<path opacity="0.5" d="M74.2528 468.759C74.2528 468.759 11.6992 436.465 1.61888 458.531C-8.86838 481.484 34.2274 484.814 55.2574 486.034C100.295 488.661 109.136 484.555 98.5751 479.746L74.2528 468.759Z" fill="white"/>
<path d="M81.8145 510.042C81.8145 510.042 28.176 484.147 20.1672 503.069C11.8255 522.73 48.3367 524.543 66.2223 525.079C104.361 526.263 111.741 522.563 102.697 518.864L81.8145 510.042Z" fill="#44DBB5"/>
<path opacity="0.5" d="M81.8145 510.042C81.8145 510.042 28.176 484.147 20.1672 503.069C11.8255 522.73 48.3367 524.543 66.2223 525.079C104.361 526.263 111.741 522.563 102.697 518.864L81.8145 510.042Z" fill="white"/>
<path d="M84.4422 543.39C84.4422 543.39 33.837 511.947 23.8676 529.906C13.4913 548.569 49.6141 554.247 67.3333 556.688C105.139 561.904 112.852 559.037 104.325 554.284L84.4422 543.39Z" fill="#44DBB5"/>
<path opacity="0.5" d="M84.4422 543.39C84.4422 543.39 33.837 511.947 23.8676 529.906C13.4913 548.569 49.6141 554.247 67.3333 556.688C105.139 561.904 112.852 559.037 104.325 554.284L84.4422 543.39Z" fill="white"/>
<path d="M79.6548 376.093C79.6548 376.093 70.1478 293.545 38.9635 301.98C6.5769 310.784 33.6921 352.548 47.4532 372.746C76.6954 415.73 87.4601 420.465 85.1481 407.037L79.6548 376.093Z" fill="#44DBB5"/>
<path opacity="0.5" d="M79.6548 376.093C79.6548 376.093 70.1478 293.545 38.9635 301.98C6.5769 310.784 33.6921 352.548 47.4532 372.746C76.6954 415.73 87.4601 420.465 85.1481 407.037L79.6548 376.093Z" fill="white"/>
<path d="M45.3433 332.055C45.3433 332.055 92.8041 420.984 100.166 462.267C108.637 509.691 110.005 562.664 104.161 604.169" stroke="#44DBB5" stroke-width="1.25197" stroke-linecap="round" stroke-linejoin="round"/>
<path d="M92.6719 434.799L115.921 363.589" stroke="#44DBB5" stroke-width="1.25197" stroke-linecap="round" stroke-linejoin="round"/>
<path d="M100.166 462.266L143.928 407.24" stroke="#44DBB5" stroke-width="1.25197" stroke-linecap="round" stroke-linejoin="round"/>
<path d="M97.3767 452.259L34.0093 425.644" stroke="#44DBB5" stroke-width="1.25197" stroke-linecap="round" stroke-linejoin="round"/>
<path d="M105.657 499.536L153.303 463.025" stroke="#44DBB5" stroke-width="1.25197" stroke-linecap="round" stroke-linejoin="round"/>
<path d="M103.126 483.87L53.353 473.512" stroke="#44DBB5" stroke-width="1.25197" stroke-linecap="round" stroke-linejoin="round"/>
<path d="M105.508 521.99L66.9619 515.887" stroke="#44DBB5" stroke-width="1.25197" stroke-linecap="round" stroke-linejoin="round"/>
<path d="M108.765 546.663L134.696 523.432" stroke="#44DBB5" stroke-width="1.25197" stroke-linecap="round" stroke-linejoin="round"/>
<path d="M108.251 557.113L63.9531 545.979" stroke="#44DBB5" stroke-width="1.25197" stroke-linecap="round" stroke-linejoin="round"/>
<path d="M75.4395 570.672H127.802V581.511H123.233L113.782 640.643H89.4595L80.008 581.511H75.4395V570.672Z" fill="#44DBB5"/>
<path opacity="0.5" d="M75.4395 570.672H127.802V581.511H123.233L113.782 640.643H89.4595L80.008 581.511H75.4395V570.672Z" fill="white"/>
<path d="M161.668 12.2949C159.397 10.2664 156.625 8.88265 153.64 8.28744C150.654 7.69223 147.563 7.90722 144.688 8.91008C134.516 12.2949 124.768 26.9992 127.228 39.4471C128.948 48.0662 136.939 60.773 139.362 65.6189C141.785 70.4649 138.381 78.6587 130.687 95.675C122.993 112.691 120.015 128.653 142.321 142.71C164.627 156.767 189.874 134.461 202.821 118.462C215.769 102.463 193.111 65.6189 191.169 50.0268C189.227 34.4346 185.898 4.54501 161.668 12.2949Z" fill="#042442"/>
<path d="M214.105 119.535C208.555 125.088 201.848 129.35 194.463 132.016C187.079 134.682 179.197 135.688 171.379 134.961L166.034 157.249L176.207 208.131L242.626 173.71L227.588 134.868L214.105 119.535Z" fill="#44DBB5" stroke="#042442" stroke-linecap="round" stroke-linejoin="round"/>
<path opacity="0.3" d="M214.105 119.535C208.555 125.088 201.848 129.35 194.463 132.016C187.079 134.682 179.197 135.688 171.379 134.961L166.034 157.249L176.207 208.131L242.626 173.71L227.588 134.868L214.105 119.535Z" fill="#042442"/>
<path d="M214.103 119.534L203.931 52.1345L173.782 58.3122L158.745 68.0041C158.745 68.0041 140.804 82.0796 140.804 83.5223C140.804 84.965 171.156 135.755 171.156 135.755C179.052 136.222 186.959 135.019 194.359 132.224C201.76 129.429 208.487 125.105 214.103 119.534Z" fill="white"/>
<path d="M214.103 119.534L203.931 52.1345L173.782 58.3122L158.745 68.0041C158.745 68.0041 140.804 82.0796 140.804 83.5223C140.804 84.965 171.156 135.755 171.156 135.755C179.052 136.222 186.959 135.019 194.359 132.224C201.76 129.429 208.487 125.105 214.103 119.534Z" stroke="#042442" stroke-linecap="round" stroke-linejoin="round"/>
<path opacity="0.5" d="M173.649 116.649C173.649 116.649 194.901 100.891 192.941 105.552C190.98 110.213 176.294 121.847 172.355 122.198C168.415 122.55 173.649 116.649 173.649 116.649Z" fill="#C5D7E7"/>
<path d="M174.297 86.7229L175.13 87.5922L180.309 93.067L181.64 114.097L187.984 113.098L182.972 93.4L190.999 110.083L197.676 103.406L183.323 90.3851L182.972 80.0458L175.629 76.3651" fill="#042442"/>
<path d="M162.626 61.7534C162.626 61.7534 156.318 64.6572 156.318 70.465C156.318 76.2728 163.143 90.0893 167.416 92.9932C171.689 95.8971 179.013 82.5984 179.013 82.5984C179.013 82.5984 190.111 87.9253 193.07 83.0793C196.029 78.2333 186.282 62.2343 179.993 57.8692C173.705 53.5041 162.626 61.7534 162.626 61.7534Z" fill="white" stroke="#042442" stroke-linecap="round" stroke-linejoin="round"/>
<path d="M157.302 55.9267C159.036 60.3575 160.494 64.8915 161.667 69.5028C162.629 74.3487 175.724 82.598 177.167 83.0789C178.61 83.5598 179.59 67.5607 179.59 67.5607L175.724 48.6577L157.302 55.9267Z" fill="white"/>
<g style="mix-blend-mode:multiply" opacity="0.5">
<path d="M176.13 50.6746C175.317 50.4465 174.489 50.2735 173.652 50.1567L160.279 54.8732L158.522 59.4603C159.41 61.9387 160.538 65.268 161.222 67.9684C163.415 69.736 166.064 70.8455 168.861 71.1682C172.875 71.4457 176.408 68.3384 178.905 64.5282L176.13 50.6746Z" fill="#C5D7E7"/>
</g>
<path d="M157.302 55.9267C159.036 60.3575 160.494 64.8915 161.667 69.5028C162.629 74.3487 175.724 82.598 177.167 83.0789C178.61 83.5598 179.59 67.5607 179.59 67.5607L175.724 48.6577L157.302 55.9267Z" stroke="#042442" stroke-linecap="round" stroke-linejoin="round"/>
<path d="M148.569 47.6779C148.569 47.6779 143.224 43.3313 143.224 47.6779C143.224 52.0245 148.089 54.4659 151.954 54.4659" fill="white"/>
<path d="M148.569 47.6779C148.569 47.6779 143.224 43.3313 143.224 47.6779C143.224 52.0245 148.089 54.4659 151.954 54.4659" stroke="#042442" stroke-linecap="round" stroke-linejoin="round"/>
<path d="M177.169 33.6202C177.169 33.6202 180.572 28.2934 181.534 34.1196C181.977 37.9125 180.937 41.7299 178.63 44.7733L177.169 33.6202Z" fill="white" stroke="#042442" stroke-linecap="round" stroke-linejoin="round"/>
<g opacity="0.5">
<path d="M148.569 47.6779C148.569 47.6779 143.224 43.3313 143.224 47.6779C143.224 52.0245 148.089 54.4659 151.954 54.4659" fill="#44DBB5"/>
<path d="M148.569 47.6779C148.569 47.6779 143.224 43.3313 143.224 47.6779C143.224 52.0245 148.089 54.4659 151.954 54.4659" stroke="#042442" stroke-linecap="round" stroke-linejoin="round"/>
</g>
<path opacity="0.5" d="M177.169 33.6202C177.169 33.6202 180.572 28.2934 181.534 34.1196C181.977 37.9125 180.937 41.7299 178.63 44.7733L177.169 33.6202Z" fill="#C5D7E7" stroke="#042442" stroke-linecap="round" stroke-linejoin="round"/>
<path d="M142.556 33.658C142.556 33.658 146.717 50.9888 155.651 59.5524C164.584 68.1161 174.147 68.1901 177.458 52.9309C180.177 40.3535 173.426 23.5777 173.426 23.5777C173.426 23.5777 151.637 5.63649 142.556 33.658Z" fill="white"/>
<g style="mix-blend-mode:multiply" opacity="0.5">
<path d="M158.079 17.9366L161.463 26.4448C161.463 26.4448 166.79 25.2611 169.787 31.6977C172.783 38.1343 175.798 47.5673 174.078 54.8732C172.432 61.8277 168.529 64.1213 162.518 64.2877C169.065 67.0806 175.002 64.2877 177.462 52.8942C180.181 40.3168 173.43 23.5409 173.43 23.5409C173.43 23.5409 166.05 17.4927 158.079 17.9366Z" fill="#C5D7E7"/>
</g>
<path d="M142.556 33.658C142.556 33.658 146.717 50.9888 155.651 59.5524C164.584 68.1161 174.147 68.1901 177.458 52.9309C180.177 40.3536 173.426 23.5777 173.426 23.5777C173.426 23.5777 151.637 5.63649 142.556 33.658Z" stroke="#042442" stroke-linecap="round" stroke-linejoin="round"/>
<path d="M159.096 42.8132C159.614 43.7935 159.521 44.8478 158.893 45.1807C158.264 45.5136 157.339 44.9772 156.839 43.997C156.34 43.0167 156.414 41.9809 157.043 41.6479C157.672 41.315 158.597 41.8514 159.096 42.8132Z" fill="#042442"/>
<path d="M168.749 39.8169C169.119 40.8527 168.878 41.8884 168.212 42.1104C167.547 42.3323 166.696 41.7035 166.363 40.6677C166.03 39.6319 166.233 38.5961 166.899 38.3742C167.565 38.1522 168.379 38.8181 168.749 39.8169Z" fill="#042442"/>
<path d="M169.417 34.2686C168.661 33.761 167.76 33.515 166.852 33.5685C165.943 33.6219 165.077 33.9718 164.386 34.5646C161.723 36.6361 166.754 47.0124 166.754 47.0124C166.754 47.0124 166.846 50.2862 162.647 48.7695" stroke="#042442" stroke-width="0.5" stroke-linecap="round" stroke-linejoin="round"/>
<path d="M169.415 52.1345C169.127 52.8157 168.685 53.4205 168.123 53.9014C167.561 54.3822 166.895 54.7259 166.177 54.9053C165.46 55.0846 164.71 55.0948 163.988 54.9349C163.266 54.7751 162.591 54.4496 162.017 53.9841" stroke="#042442" stroke-width="0.5" stroke-linecap="round" stroke-linejoin="round"/>
<path d="M158.148 37.0241C158.148 37.0241 153.413 32.5666 151.342 41.1673" stroke="#042442" stroke-width="0.5" stroke-linecap="round" stroke-linejoin="round"/>
<path d="M173.706 18.0848C168.508 13.5717 164.31 13.6272 162.479 14.2191C160.765 13.1496 158.815 12.5147 156.8 12.3695C142.262 10.4274 140.32 21.6175 140.32 32.2527C140.32 42.888 131.072 55.5208 137.416 56.9819C139.153 57.3985 140.98 57.1891 142.577 56.3906C144.174 55.5921 145.438 54.2558 146.147 52.6169C146.147 52.6169 152.935 41.5193 152.935 33.6954C152.935 25.8716 161.387 26.6114 161.387 26.6114C161.752 26.0727 162.229 25.6192 162.786 25.2822C163.343 24.9451 163.965 24.7323 164.612 24.6586C165.259 24.5848 165.913 24.6517 166.532 24.8547C167.15 25.0577 167.717 25.3919 168.194 25.8346C172.041 29.1269 172.485 32.9926 175.592 33.9914C178.7 34.9901 183.897 29.9962 183.897 29.9962C180.936 25.6722 177.519 21.6788 173.706 18.0848Z" fill="#042442"/>
<path d="M161.796 20.9885C161.796 20.9885 155.951 16.2905 150.698 21.5619C145.445 26.8332 146.018 36.8026 144.261 43.2577C142.504 49.7128 137.806 50.8781 137.806 50.8781" stroke="white" stroke-width="0.5" stroke-linecap="round" stroke-linejoin="round"/>
<path d="M157.707 19.2307C157.707 19.2307 151.4 12.979 143.465 20.8953C137.417 26.962 140.117 30.9387 138.934 40.908" stroke="white" stroke-width="0.5" stroke-linecap="round" stroke-linejoin="round"/>
<path d="M164.734 18.0473C164.734 18.0473 175.832 12.7759 180.567 26.2596" stroke="white" stroke-width="0.5" stroke-linecap="round" stroke-linejoin="round"/>
<path d="M140.801 83.5602L124.025 151.071L173.225 165.017L175.648 156.287L143.335 141.379L154.303 102.537C154.303 102.537 152.861 95.2682 145.055 87.0374" fill="white"/>
<g style="mix-blend-mode:multiply" opacity="0.5">
<path d="M175.72 156.343L143.407 141.435L154.375 102.593C153.516 99.3686 152.122 96.3113 150.251 93.5485L149.197 92.7532V103.481C149.197 110.343 140.614 132.224 137.6 137.366C134.585 142.508 129.887 148.944 129.887 148.944L139.32 144.653L175.073 158.969L175.72 156.343Z" fill="#C5D7E7"/>
</g>
<path d="M140.801 83.5602L124.025 151.071L173.225 165.017L175.648 156.287L143.335 141.379L154.303 102.537C154.303 102.537 152.861 95.2682 145.055 87.0374" stroke="#042442" stroke-linecap="round" stroke-linejoin="round"/>
<path d="M279.134 103.831L241.883 96.0073L203.837 52.0422L209.46 87.4067L232.802 109.639L279.708 111.784L279.134 103.831Z" fill="white"/>
<g style="mix-blend-mode:multiply" opacity="0.5">
<path d="M203.837 52.0422L208.368 80.2672L211.254 89.0898L211.624 89.4227C212.715 88.2945 218.874 81.8948 220.446 81.8948C222.019 81.8948 239.756 97.339 237.185 98.5413L234.596 99.8175L278.783 107.105L279.097 103.72L241.92 95.9148L203.837 52.0422Z" fill="#C5D7E7"/>
</g>
<path d="M279.134 103.831L241.883 96.0073L203.837 52.0422L209.46 87.4067L232.802 109.639L279.708 111.784L279.134 103.831Z" stroke="#042442" stroke-linecap="round" stroke-linejoin="round"/>
<path d="M626.882 478.173L152.514 408.665C151.006 408.441 149.648 407.628 148.74 406.404C147.831 405.179 147.446 403.645 147.668 402.136L187.176 132.63C187.284 131.884 187.539 131.167 187.925 130.52C188.311 129.872 188.821 129.307 189.426 128.857C190.031 128.407 190.718 128.081 191.449 127.897C192.18 127.713 192.94 127.674 193.686 127.784L202.675 129.098C203.814 129.269 204.977 129.092 206.014 128.59C207.05 128.088 207.911 127.285 208.483 126.286L220.413 105.663C220.775 105.016 221.266 104.449 221.856 103.999C224.648 101.979 228.119 101.13 231.529 101.631L351.106 119.165C353.788 119.55 356.287 120.752 358.264 122.606C358.791 123.134 359.206 123.763 359.485 124.455L370.12 150.793C370.493 151.725 371.105 152.542 371.894 153.162C372.683 153.782 373.621 154.184 374.614 154.326L668.054 197.348C669.562 197.568 670.921 198.377 671.833 199.597C672.745 200.818 673.135 202.35 672.919 203.859L633.411 473.346C633.183 474.851 632.367 476.204 631.144 477.108C629.92 478.013 628.387 478.396 626.882 478.173Z" fill="#042442" stroke="#042442" stroke-miterlimit="10"/>
<path d="M631.925 476.86H161.737C160.372 476.86 159.02 476.591 157.759 476.068C156.498 475.546 155.352 474.78 154.386 473.815C153.421 472.85 152.655 471.704 152.133 470.443C151.611 469.182 151.342 467.83 151.342 466.465V203.377C151.342 200.62 152.437 197.976 154.386 196.027C156.336 194.078 158.98 192.982 161.737 192.982H163.013C165.094 192.978 167.126 192.353 168.85 191.186C170.573 190.02 171.909 188.365 172.686 186.435L179.844 168.438C180.644 166.361 182.107 164.606 184.006 163.444C186.046 162.24 188.37 161.601 190.738 161.595H311.592C313.216 161.593 314.827 161.888 316.345 162.464C318.454 163.314 320.214 164.852 321.339 166.829L333.639 187.785C334.555 189.35 335.866 190.648 337.439 191.55C339.013 192.452 340.796 192.927 342.609 192.927H631.925C634.681 192.927 637.325 194.022 639.275 195.971C641.224 197.921 642.319 200.565 642.319 203.322V466.465C642.319 467.83 642.051 469.182 641.528 470.443C641.006 471.704 640.24 472.85 639.275 473.815C638.31 474.78 637.164 475.546 635.903 476.068C634.641 476.591 633.29 476.86 631.925 476.86Z" fill="#44DBB5"/>
<path opacity="0.1" d="M631.925 476.86H161.737C160.372 476.86 159.02 476.591 157.759 476.068C156.498 475.546 155.352 474.78 154.386 473.815C153.421 472.85 152.655 471.704 152.133 470.443C151.611 469.182 151.342 467.83 151.342 466.465V203.377C151.342 200.62 152.437 197.976 154.386 196.027C156.336 194.078 158.98 192.982 161.737 192.982H163.013C165.094 192.978 167.126 192.353 168.85 191.186C170.573 190.02 171.909 188.365 172.686 186.435L179.844 168.438C180.644 166.361 182.107 164.606 184.006 163.444C186.046 162.24 188.37 161.601 190.738 161.595H311.592C313.216 161.593 314.827 161.888 316.345 162.464C318.454 163.314 320.214 164.852 321.339 166.829L333.639 187.785C334.555 189.35 335.866 190.648 337.439 191.55C339.013 192.452 340.796 192.927 342.609 192.927H631.925C634.681 192.927 637.325 194.022 639.275 195.971C641.224 197.921 642.319 200.565 642.319 203.322V466.465C642.319 467.83 642.051 469.182 641.528 470.443C641.006 471.704 640.24 472.85 639.275 473.815C638.31 474.78 637.164 475.546 635.903 476.068C634.641 476.591 633.29 476.86 631.925 476.86Z" fill="#042442"/>
<path d="M631.925 476.86H161.737C160.372 476.86 159.02 476.591 157.759 476.068C156.498 475.546 155.352 474.78 154.386 473.815C153.421 472.85 152.655 471.704 152.133 470.443C151.611 469.182 151.342 467.83 151.342 466.465V203.377C151.342 200.62 152.437 197.976 154.386 196.027C156.336 194.078 158.98 192.982 161.737 192.982H163.013C165.094 192.978 167.126 192.353 168.85 191.186C170.573 190.02 171.909 188.365 172.686 186.435L179.844 168.438C180.644 166.361 182.107 164.606 184.006 163.444C186.046 162.24 188.37 161.601 190.738 161.595H311.592C313.216 161.593 314.827 161.888 316.345 162.464C318.454 163.314 320.214 164.852 321.339 166.829L333.639 187.785C334.555 189.35 335.866 190.648 337.439 191.55C339.013 192.452 340.796 192.927 342.609 192.927H631.925C634.681 192.927 637.325 194.022 639.275 195.971C641.224 197.921 642.319 200.565 642.319 203.322V466.465C642.319 467.83 642.051 469.182 641.528 470.443C641.006 471.704 640.24 472.85 639.275 473.815C638.31 474.78 637.164 475.546 635.903 476.068C634.641 476.591 633.29 476.86 631.925 476.86V476.86Z" stroke="#042442" stroke-miterlimit="10"/>
<path d="M284.203 192.095H208.961C207.166 192.095 205.444 191.381 204.174 190.112C202.905 188.842 202.191 187.121 202.191 185.325C202.189 184.435 202.362 183.552 202.701 182.729C203.041 181.905 203.539 181.157 204.168 180.526C204.796 179.896 205.544 179.396 206.366 179.054C207.189 178.713 208.07 178.537 208.961 178.537H284.203C286.003 178.537 287.73 179.252 289.003 180.525C290.276 181.798 290.991 183.525 290.991 185.325C290.991 186.216 290.815 187.098 290.474 187.92C290.132 188.743 289.632 189.49 289.002 190.119C288.371 190.747 287.623 191.246 286.799 191.585C285.976 191.924 285.093 192.097 284.203 192.095Z" fill="white"/>
<path d="M632.283 522.946H162.095C159.338 522.946 156.694 521.851 154.745 519.902C152.795 517.952 151.7 515.308 151.7 512.551V249.464C151.7 246.707 152.795 244.063 154.745 242.113C156.694 240.164 159.338 239.069 162.095 239.069H163.371C165.453 239.067 167.486 238.443 169.21 237.276C170.934 236.109 172.27 234.453 173.045 232.521L180.203 214.543C180.998 212.463 182.462 210.706 184.364 209.549C186.401 208.337 188.727 207.698 191.097 207.7H311.95C313.574 207.698 315.185 207.992 316.703 208.569C318.818 209.42 320.579 210.966 321.697 212.952L333.997 233.927C334.914 235.492 336.224 236.79 337.798 237.692C339.372 238.594 341.154 239.069 342.968 239.069H632.283C635.04 239.069 637.684 240.164 639.633 242.113C641.583 244.063 642.678 246.707 642.678 249.464V512.551C642.678 515.308 641.583 517.952 639.633 519.902C637.684 521.851 635.04 522.946 632.283 522.946Z" fill="#445361" stroke="#042442" stroke-miterlimit="10"/>
<path d="M320.248 137.846L245.598 128.598C243.815 128.372 242.194 127.449 241.089 126.032C239.983 124.615 239.484 122.818 239.698 121.033C239.924 119.248 240.85 117.626 242.272 116.523C243.694 115.42 245.496 114.926 247.281 115.152L321.913 124.4C323.698 124.621 325.322 125.543 326.429 126.961C327.535 128.38 328.033 130.179 327.813 131.965C327.704 132.848 327.421 133.701 326.981 134.475C326.541 135.248 325.953 135.928 325.251 136.474C324.548 137.02 323.744 137.423 322.886 137.658C322.028 137.894 321.131 137.958 320.248 137.846Z" fill="#44DBB5"/>
<path opacity="0.5" d="M320.248 137.846L245.598 128.598C243.815 128.372 242.194 127.449 241.089 126.032C239.983 124.615 239.484 122.818 239.698 121.033C239.924 119.248 240.85 117.626 242.272 116.523C243.694 115.42 245.496 114.926 247.281 115.152L321.913 124.4C323.698 124.621 325.322 125.543 326.429 126.961C327.535 128.38 328.033 130.179 327.813 131.965C327.704 132.848 327.421 133.701 326.981 134.475C326.541 135.248 325.953 135.928 325.251 136.474C324.548 137.02 323.744 137.423 322.886 137.658C322.028 137.894 321.131 137.958 320.248 137.846Z" fill="white"/>
<path d="M284.203 238.02H208.961C208.07 238.02 207.189 237.844 206.366 237.503C205.544 237.162 204.796 236.661 204.168 236.031C203.539 235.4 203.041 234.652 202.701 233.828C202.362 233.005 202.189 232.123 202.191 231.232C202.191 229.435 202.904 227.711 204.173 226.439C205.442 225.166 207.164 224.449 208.961 224.444H284.203C286.003 224.444 287.73 225.159 289.003 226.432C290.276 227.705 290.991 229.432 290.991 231.232C290.991 233.032 290.276 234.759 289.003 236.032C287.73 237.305 286.003 238.02 284.203 238.02Z" fill="#44DBB5"/>
<path opacity="0.5" d="M284.203 238.02H208.961C208.07 238.02 207.189 237.844 206.366 237.503C205.544 237.162 204.796 236.661 204.168 236.031C203.539 235.4 203.041 234.652 202.701 233.828C202.362 233.005 202.189 232.123 202.191 231.232C202.191 229.435 202.904 227.711 204.173 226.439C205.442 225.166 207.164 224.449 208.961 224.444H284.203C286.003 224.444 287.73 225.159 289.003 226.432C290.276 227.705 290.991 229.432 290.991 231.232C290.991 233.032 290.276 234.759 289.003 236.032C287.73 237.305 286.003 238.02 284.203 238.02Z" fill="white"/>
<path d="M647.298 318.015H146.351C140.968 318.015 136.604 322.379 136.604 327.763V630.894C136.604 636.278 140.968 640.642 146.351 640.642H647.298C652.682 640.642 657.046 636.278 657.046 630.894V327.763C657.046 322.379 652.682 318.015 647.298 318.015Z" fill="white"/>
<g style="mix-blend-mode:multiply">
<path d="M657.046 404.855C599.356 458.772 533.811 503.613 462.652 537.842C357.502 588.133 237.315 622.794 167.289 640.643H647.28C648.562 640.645 649.831 640.395 651.016 639.906C652.201 639.417 653.277 638.7 654.184 637.794C655.091 636.889 655.811 635.814 656.302 634.63C656.793 633.446 657.046 632.177 657.046 630.895V404.855Z" fill="#44DBB5"/>
</g>
<path opacity="0.2" d="M657.046 404.855C599.356 458.772 533.811 503.613 462.652 537.842C357.502 588.133 237.315 622.794 167.289 640.643H647.28C648.562 640.645 649.831 640.395 651.016 639.906C652.201 639.417 653.277 638.7 654.184 637.794C655.091 636.889 655.811 635.814 656.302 634.63C656.793 633.446 657.046 632.177 657.046 630.895V404.855Z" fill="white"/>
<path d="M647.298 318.015H146.351C140.968 318.015 136.604 322.379 136.604 327.763V630.894C136.604 636.278 140.968 640.642 146.351 640.642H647.298C652.682 640.642 657.046 636.278 657.046 630.894V327.763C657.046 322.379 652.682 318.015 647.298 318.015Z" stroke="#042442" stroke-miterlimit="10"/>
<path d="M144.134 346.351V333.404C144.139 330.817 145.17 328.338 147.001 326.511C148.832 324.683 151.313 323.657 153.9 323.657H175.078" stroke="#042442" stroke-miterlimit="10"/>
<path d="M144.134 542.983V362.128" stroke="#042442" stroke-miterlimit="10"/>
<path d="M649.496 604.686V625.161C649.498 626.442 649.248 627.712 648.759 628.897C648.27 630.081 647.552 631.158 646.647 632.065C645.742 632.972 644.666 633.692 643.483 634.183C642.299 634.674 641.03 634.927 639.748 634.927H622.676" stroke="#042442" stroke-miterlimit="10"/>
<path d="M649.497 341.802V589.464" stroke="#042442" stroke-miterlimit="10"/>
<path d="M474.192 435.984H319.436C316.647 435.984 314.387 438.244 314.387 441.033V519.993C314.387 522.781 316.647 525.042 319.436 525.042H474.192C476.981 525.042 479.242 522.781 479.242 519.993V441.033C479.242 438.244 476.981 435.984 474.192 435.984Z" fill="#042442" stroke="#042442" stroke-miterlimit="10"/>
<path d="M474.192 435.984H319.436C316.647 435.984 314.387 438.244 314.387 441.033V458.012C314.387 460.801 316.647 463.062 319.436 463.062H474.192C476.981 463.062 479.242 460.801 479.242 458.012V441.033C479.242 438.244 476.981 435.984 474.192 435.984Z" fill="white" stroke="#042442" stroke-miterlimit="10"/>
<path d="M173.223 165.017L176.607 171.324L183.802 176.503C184.255 176.835 184.797 177.023 185.357 177.043C185.918 177.063 186.472 176.913 186.947 176.614L187.576 176.207C188.033 175.929 188.374 175.494 188.534 174.984C188.694 174.473 188.662 173.922 188.445 173.432L184.357 164.036L187.113 166.182C187.551 166.519 188.102 166.673 188.651 166.611C189.2 166.549 189.703 166.276 190.054 165.849C190.359 165.469 190.525 164.996 190.525 164.508C190.525 164.021 190.359 163.548 190.054 163.167L183.636 155.047L175.609 156.287L173.223 165.017Z" fill="white" stroke="#042442" stroke-miterlimit="10"/>
<path d="M187.651 176.206L181.215 167.754" stroke="#042442" stroke-width="0.5" stroke-linecap="round" stroke-linejoin="round"/>
<path d="M183.88 176.503L178.831 169.807" stroke="#042442" stroke-width="0.5" stroke-linecap="round" stroke-linejoin="round"/>
<path d="M279.133 103.832L289.195 104.423L301.439 112.247C301.439 112.247 302.123 114.633 300.422 114.966C298.72 115.299 289.528 111.914 289.528 111.914L279.706 111.785L279.133 103.832Z" fill="white" stroke="#042442" stroke-miterlimit="10"/>
<path d="M279.652 110.546L290.214 115.318C290.214 115.318 291.915 112.932 289.529 111.915L286.052 109.529" fill="white"/>
<path d="M279.652 110.546L290.214 115.318C290.214 115.318 291.915 112.932 289.529 111.915L286.052 109.529" stroke="#042442" stroke-linejoin="round"/>
<path d="M652.767 290.919L648.402 277.861L643.501 271.147C643.42 271.024 643.301 270.932 643.163 270.884C643.024 270.836 642.873 270.835 642.734 270.881C642.595 270.928 642.475 271.019 642.393 271.14C642.311 271.262 642.271 271.407 642.28 271.554V290.9L645.979 295.765L652.767 290.919Z" fill="white"/>
<path d="M723.906 348.016L687.284 349.311C685.933 349.358 684.596 349.02 683.43 348.335C682.264 347.651 681.317 346.648 680.699 345.445L652.77 290.919C652.77 290.919 646.482 294.322 646.001 295.765C645.52 297.207 666.679 350.273 673.171 366.568C673.717 367.936 674.674 369.101 675.909 369.902C677.145 370.704 678.599 371.103 680.07 371.044L721.002 369.305" fill="white"/>
<path d="M723.906 348.016L687.284 349.311C685.933 349.358 684.596 349.02 683.43 348.335C682.264 347.651 681.317 346.648 680.699 345.445L652.77 290.919C652.77 290.919 646.482 294.322 646.001 295.765C645.52 297.207 666.679 350.273 673.171 366.568C673.717 367.936 674.674 369.101 675.909 369.902C677.145 370.704 678.599 371.103 680.07 371.044L721.002 369.305" stroke="#042442" stroke-miterlimit="10"/>
<path d="M655.454 297.707L649.72 300.075" stroke="#042442" stroke-width="0.75" stroke-miterlimit="10"/>
<g opacity="0.5">
<g opacity="0.5">
<path d="M723.906 348.016L687.284 349.311C685.933 349.358 684.596 349.02 683.43 348.335C682.264 347.651 681.317 346.648 680.699 345.445L652.77 290.919C652.77 290.919 646.482 294.322 646.001 295.765C645.52 297.207 666.679 350.273 673.171 366.568C673.717 367.936 674.674 369.101 675.909 369.902C677.145 370.704 678.599 371.103 680.07 371.044L721.002 369.305" fill="#C5D7E7"/>
<path d="M723.906 348.016L687.284 349.311C685.933 349.358 684.596 349.02 683.43 348.335C682.264 347.651 681.317 346.648 680.699 345.445L652.77 290.919C652.77 290.919 646.482 294.322 646.001 295.765C645.52 297.207 666.679 350.273 673.171 366.568C673.717 367.936 674.674 369.101 675.909 369.902C677.145 370.704 678.599 371.103 680.07 371.044L721.002 369.305" stroke="#042442" stroke-miterlimit="10"/>
</g>
<path opacity="0.5" d="M655.453 297.707L649.719 300.075" stroke="#042442" stroke-width="0.75" stroke-miterlimit="10"/>
</g>
<path d="M652.767 290.919L648.402 277.861L643.501 271.147C643.42 271.024 643.301 270.932 643.163 270.884C643.024 270.836 642.873 270.835 642.734 270.881C642.595 270.928 642.475 271.019 642.393 271.14C642.311 271.262 642.271 271.407 642.28 271.554V290.9L645.979 295.765L652.767 290.919Z" fill="#44DBB5"/>
<path opacity="0.5" d="M652.767 290.919L648.402 277.861L643.501 271.147C643.42 271.024 643.301 270.932 643.163 270.884C643.024 270.836 642.873 270.835 642.734 270.881C642.595 270.928 642.475 271.019 642.393 271.14C642.311 271.262 642.271 271.407 642.28 271.554V290.9L645.979 295.765L652.767 290.919Z" fill="white"/>
<path d="M652.767 290.919L648.402 277.861L643.501 271.147C643.42 271.024 643.301 270.932 643.163 270.884C643.024 270.836 642.873 270.835 642.734 270.881C642.595 270.928 642.475 271.019 642.393 271.14C642.311 271.262 642.271 271.407 642.28 271.554V290.9L645.979 295.765L652.767 290.919Z" stroke="#042442" stroke-miterlimit="10"/>
<path d="M735.243 313.559C733.485 315.788 732.223 318.367 731.544 321.124C731.008 324.675 731.859 338.344 731.859 338.344L712.808 340.489C712.808 340.489 714.25 326.599 714.324 324.287C714.934 321.419 716.149 318.715 717.887 316.355C719.626 313.995 721.847 312.033 724.405 310.6C730.952 307.381 736.519 308.953 735.243 313.559Z" fill="white"/>
<g style="mix-blend-mode:multiply" opacity="0.5">
<path d="M735.11 313.706C731.651 312.763 727.453 311.709 723.901 310.858C721.46 312.311 719.345 314.252 717.687 316.559C716.029 318.866 714.864 321.49 714.265 324.267C714.265 325.155 714.006 327.745 713.747 330.593C715.597 330.168 718.538 329.52 720.72 329.132C722.449 328.853 724.151 328.426 725.807 327.856L725.159 338.953H725.585L731.799 338.25C731.799 338.25 730.948 324.582 731.485 321.031C732.161 318.36 733.396 315.863 735.11 313.706Z" fill="#C5D7E7"/>
</g>
<path d="M735.243 313.559C733.485 315.788 732.223 318.367 731.544 321.124C731.008 324.675 731.859 338.344 731.859 338.344L712.808 340.489C712.808 340.489 714.25 326.599 714.324 324.287C714.934 321.419 716.149 318.715 717.887 316.355C719.626 313.995 721.847 312.033 724.405 310.6C730.952 307.381 736.519 308.953 735.243 313.559Z" stroke="#042442" stroke-width="1.00396" stroke-miterlimit="10"/>
<path d="M739.199 315.907C754.995 295.044 716.911 273.366 706.905 294.101C705.51 296.658 704.406 299.362 703.613 302.165C702.096 303.09 698.064 305.568 697.324 306.252C696.584 306.937 699.174 308.694 700.598 309.563C697.879 316.24 698.286 323.269 699.063 324.859C700.413 327.597 707.072 327.634 711.455 326.82C715.839 326.006 717.577 321.808 718.854 320.661C720.13 319.514 726.492 320.975 728.73 321.641C730.968 322.307 736.129 320.032 739.199 315.907Z" fill="white"/>
<g style="mix-blend-mode:multiply" opacity="0.5">
<path d="M723.574 313.91C723.574 313.91 723.907 315.482 720.725 316.758C717.544 318.035 716.915 317.073 715.972 319.292C715.571 320.752 714.761 322.066 713.637 323.079C712.512 324.092 711.121 324.761 709.628 325.008C706.615 325.58 703.57 325.969 700.509 326.173C703.025 327.578 708.019 327.467 711.607 326.82C715.972 326.025 717.729 321.808 719.005 320.661C720.282 319.514 726.644 320.975 728.882 321.641C729.407 321.746 729.948 321.746 730.473 321.641C731.308 319.783 731.809 317.792 731.953 315.76L723.574 313.91Z" fill="#44DBB5"/>
</g>
<path d="M739.199 315.907C754.995 295.044 716.911 273.366 706.905 294.101C705.51 296.658 704.406 299.362 703.613 302.165C702.096 303.09 698.064 305.568 697.324 306.252C696.584 306.937 699.174 308.694 700.598 309.563C697.879 316.24 698.286 323.269 699.063 324.859C700.413 327.597 707.072 327.634 711.455 326.82C715.839 326.006 717.577 321.808 718.854 320.661C720.13 319.514 726.492 320.975 728.73 321.641C730.968 322.307 736.129 320.032 739.199 315.907Z" stroke="#042442" stroke-miterlimit="10"/>
<path d="M708.346 303.995C707.94 304.883 707.255 305.438 706.811 305.235C706.367 305.031 706.33 304.143 706.811 303.256C707.292 302.368 707.903 301.813 708.346 302.016C708.79 302.22 708.753 303.108 708.346 303.995Z" fill="#042442"/>
<path d="M707.978 298.3C707.978 298.3 709.828 296.765 710.198 300.297" stroke="#042442" stroke-width="0.5" stroke-linecap="round" stroke-linejoin="round"/>
<path d="M700.229 313.152C700.229 313.152 700.229 315.001 703.558 315.001" stroke="#042442" stroke-width="0.5" stroke-linecap="round" stroke-linejoin="round"/>
<path d="M695.719 434.189L694.258 452.278C694.258 452.278 684.14 524.301 684.621 532.569C685.102 540.837 686.193 626.252 686.193 626.252L698.382 628.194L712.069 533.457L731.287 437.185L695.719 434.189Z" fill="#44DBB5" stroke="#042442" stroke-miterlimit="10"/>
<path opacity="0.2" d="M695.719 434.189L694.258 452.278C694.258 452.278 684.14 524.301 684.621 532.569C685.102 540.837 686.193 626.252 686.193 626.252L698.382 628.194L712.069 533.457L731.287 437.185L695.719 434.189Z" fill="#042442"/>
<path d="M711.14 499.98C711.14 499.98 706.461 527.52 702.928 541.023C699.395 554.525 699.414 567.99 699.414 582.639C699.414 597.288 694.143 624.292 694.143 624.292" stroke="#042442" stroke-width="0.75" stroke-miterlimit="10"/>
<path d="M720.446 429.75C728.473 425.533 737.092 422.74 739.552 428.345C744.435 439.553 738.591 456.588 738.591 456.588L743.048 535.159L751.205 629.952L739.016 627.991C739.016 627.991 720.298 547.996 717.376 543.113C714.453 538.23 709.848 469.739 709.848 469.739L700.6 461.323" fill="#44DBB5"/>
<path d="M720.446 429.75C728.473 425.533 737.092 422.74 739.552 428.345C744.435 439.553 738.591 456.588 738.591 456.588L743.048 535.159L751.205 629.952L739.016 627.991C739.016 627.991 720.298 547.996 717.376 543.113C714.453 538.23 709.848 469.739 709.848 469.739L700.6 461.323" stroke="#042442" stroke-miterlimit="10"/>
<g opacity="0.2">
<path opacity="0.2" d="M720.446 429.75C728.473 425.533 737.092 422.74 739.552 428.345C744.435 439.553 738.591 456.588 738.591 456.588L743.048 535.159L751.205 629.952L739.016 627.991C739.016 627.991 720.298 547.996 717.376 543.113C714.453 538.23 709.848 469.739 709.848 469.739L700.6 461.323" fill="#042442"/>
</g>
<path d="M729.957 489.271C730.234 507.49 732.084 516.257 733.526 521.066C735.283 526.929 734.692 538.064 734.692 543.261C734.692 548.459 732.343 542.096 737.632 566.141C742.922 590.186 746.418 623.589 746.418 623.589" stroke="#042442" stroke-width="0.75" stroke-miterlimit="10"/>
<path d="M729.957 449.56C729.957 449.56 730.53 448.376 729.957 475.935C729.957 477.415 729.957 478.839 729.957 480.226" stroke="#042442" stroke-width="0.75" stroke-miterlimit="10"/>
<path d="M702.893 444.325L702.505 452.575L700.6 458.308L703.448 461.638" stroke="#042442" stroke-width="0.75" stroke-linecap="round" stroke-linejoin="round"/>
<path d="M699.155 449.245C699.155 449.245 703.927 454.017 716.319 452.574" stroke="#042442" stroke-width="0.75" stroke-linecap="round" stroke-linejoin="round"/>
<path d="M728.438 445.121C737.686 443.271 738.278 440.718 741.478 438.573C741.537 435.075 740.909 431.6 739.628 428.345C737.205 422.796 728.53 425.533 720.521 429.75L716.637 435.891L695.792 434.189L695.126 442.365C705.829 446.036 717.277 446.983 728.438 445.121Z" fill="#042442"/>
<path d="M697.805 439.849L697.602 443.104L702.891 444.325L703.298 440.052L697.805 439.849Z" fill="white" stroke="#042442" stroke-width="0.75" stroke-miterlimit="10"/>
<path d="M734.727 444.677L733.839 436.576L736.521 435.688L737.871 442.883" fill="#44DBB5"/>
<path d="M734.727 444.677L733.839 436.576L736.521 435.688L737.871 442.883" stroke="#042442" stroke-miterlimit="10"/>
<path d="M714.049 447.377L712.254 437.925H716.749L718.543 446.027" fill="#44DBB5"/>
<path d="M714.049 447.377L712.254 437.925H716.749L718.543 446.027" stroke="#042442" stroke-miterlimit="10"/>
<g opacity="0.2">
<path opacity="0.2" d="M734.727 444.677L733.839 436.575L736.521 435.688L737.871 442.882" fill="#042442"/>
<path opacity="0.2" d="M714.05 447.376L712.256 437.925H716.75L718.545 446.026" fill="#042442"/>
</g>
<path d="M693.331 362.498C693.331 362.498 691.795 372.764 687.19 390.242C682.584 407.721 677.942 428.677 677.942 428.677L680.513 439.442L688.189 428.159L693.331 362.498Z" fill="#042442" stroke="#042442" stroke-miterlimit="10"/>
<path d="M706.147 347.647C706.147 347.647 695.382 350.199 694.365 355.323C693.816 357.681 693.469 360.082 693.329 362.499L709.735 349.182L730.247 340.97L706.147 347.647Z" fill="#042442" stroke="#042442" stroke-miterlimit="10"/>
<path d="M709.092 343.689C709.092 343.689 700.343 353.584 696.866 357.653C693.389 361.722 693.37 405.391 693.37 411.81C693.37 418.228 689.893 435.651 695.701 439.147C701.509 442.642 737.04 441.477 740.535 435.651C744.031 429.825 746.343 359.984 745.77 353.584C745.334 350.713 744.203 347.992 742.475 345.658C740.747 343.324 738.475 341.448 735.856 340.193C731.805 338.325 709.092 343.689 709.092 343.689Z" fill="white"/>
<g style="mix-blend-mode:multiply" opacity="0.5">
<path d="M735.856 340.192C735.373 339.997 734.86 339.884 734.339 339.859L731.824 341.172C736.058 344.642 738.97 349.461 740.073 354.823C741.243 362.612 741.137 370.539 739.759 378.294C738.501 386.858 718.192 378.294 722.002 381.475C725.813 384.657 740.073 390.039 740.72 392.887C741.368 395.736 733.655 400.489 730.881 400.822C728.106 401.155 732.73 407.481 735.634 412.863C738.538 418.245 737.484 425.81 730.881 430.952C724.277 436.094 708.944 438.628 702.323 438.887C700.177 438.887 698.845 439.442 698.438 440.071C708.611 442.346 737.41 440.866 740.535 435.65C744.031 429.824 746.343 359.983 745.77 353.583C745.334 350.712 744.203 347.991 742.475 345.657C740.747 343.323 738.475 341.447 735.856 340.192Z" fill="#C5D7E7"/>
</g>
<path d="M709.092 343.689C709.092 343.689 700.343 353.584 696.866 357.653C693.389 361.722 693.37 405.391 693.37 411.81C693.37 418.228 689.893 435.651 695.701 439.147C701.509 442.642 737.04 441.477 740.535 435.651C744.031 429.825 746.343 359.984 745.77 353.584C745.334 350.713 744.203 347.992 742.475 345.658C740.747 343.324 738.475 341.448 735.856 340.193C731.805 338.325 709.092 343.689 709.092 343.689Z" stroke="#042442" stroke-miterlimit="10"/>
<path d="M726.975 387.986C717.598 385.064 709.386 376.888 709.386 376.888C711.467 386.603 717.116 395.183 725.218 400.933" fill="white"/>
<path d="M726.975 387.986C717.598 385.064 709.386 376.888 709.386 376.888C711.467 386.603 717.116 395.183 725.218 400.933" stroke="#042442" stroke-width="0.75" stroke-linecap="round" stroke-linejoin="round"/>
<path d="M734.113 333.793L706.166 340.192L704.427 348.349L735.852 340.192L734.113 333.793Z" fill="white" stroke="#042442" stroke-miterlimit="10"/>
<path d="M700.006 640.401L698.378 628.12L686.189 626.178L676.035 633.41L666.935 638.404V640.401H700.006Z" fill="#042442" stroke="#042442" stroke-miterlimit="10"/>
<path d="M752.721 641.364L751.204 629.952L739.015 627.991L728.861 635.223L719.761 640.235V641.364H752.721Z" fill="#042442" stroke="#042442" stroke-miterlimit="10"/>
<path d="M647.443 280.266L639.934 275.919C639.934 275.919 637.011 275.568 638.269 278.823L645.778 284.612" fill="white"/>
<path d="M647.443 280.266L639.934 275.919C639.934 275.919 637.011 275.568 638.269 278.823L645.778 284.612" stroke="#042442" stroke-linecap="round" stroke-linejoin="round"/>
<path d="M646.333 291.567C645.98 290.675 645.458 289.859 644.798 289.163L643.392 287.646L635.753 278.176C635.753 278.176 633.386 276.585 633.904 280.025L638.639 289.274L630.223 281.376C630.223 281.376 628.632 280.062 628.632 281.912C628.632 283.762 636.271 291.918 636.271 291.918L627.837 287.96C627.837 287.96 625.987 289.274 627.319 290.587C628.651 291.9 635.735 294.545 635.735 294.545L629.428 294.286C629.428 294.286 627.578 295.858 628.891 296.395C630.204 296.931 637.584 298.485 637.584 298.485C638.522 299.282 639.593 299.908 640.747 300.334L642.597 303.756L649.681 300.186L646.333 291.567Z" fill="white" stroke="#042442" stroke-linecap="round" stroke-linejoin="round"/>
<path d="M721.963 373.67L679.755 383.566C677.594 383.946 675.368 383.566 673.456 382.491C671.544 381.415 670.064 379.71 669.268 377.666L642.633 303.681L649.717 300.112L679.144 354.619C679.812 355.866 680.863 356.865 682.142 357.468C683.421 358.071 684.861 358.246 686.247 357.967L718.523 348.849" fill="white"/>
<path d="M721.963 373.67L679.755 383.566C677.594 383.946 675.368 383.566 673.456 382.491C671.544 381.415 670.064 379.71 669.268 377.666L642.633 303.681L649.717 300.112L679.144 354.619C679.812 355.866 680.863 356.865 682.142 357.468C683.421 358.071 684.861 358.246 686.247 357.967L718.523 348.849" stroke="#042442" stroke-miterlimit="10"/>
<path d="M653.697 307.085L645.484 311.191" stroke="#042442" stroke-width="0.75" stroke-miterlimit="10"/>
<path d="M716.711 294.322C716.711 294.322 712.217 298.817 714.455 302.183C715.78 304.127 716.792 306.268 717.451 308.527C717.451 308.527 715.601 313.022 717.081 313.022C718.561 313.022 717.821 309.655 720.447 310.414C723.074 311.172 725.682 315.648 723.444 317.146C721.769 318.082 719.995 318.827 718.154 319.366C717.919 319.437 717.711 319.576 717.554 319.765C717.397 319.953 717.299 320.184 717.271 320.428C717.244 320.671 717.288 320.918 717.399 321.137C717.51 321.355 717.682 321.537 717.895 321.659C720.328 323.303 723.13 324.32 726.052 324.619C728.441 324.67 730.827 324.421 733.154 323.879C733.154 323.879 740.552 313.78 745.879 311.154C751.206 308.527 748.876 296.56 748.876 295.062C748.876 293.564 743.641 290.198 743.641 290.198C743.641 290.198 745.14 286.831 738.407 279.359C731.674 271.886 718.949 270.37 718.579 272.996C718.449 273.692 718.521 274.41 718.787 275.065C719.052 275.721 719.5 276.287 720.077 276.695C720.077 276.695 708.85 271.831 703.616 277.065C698.382 282.3 716.711 294.322 716.711 294.322Z" fill="#042442" stroke="#042442" stroke-miterlimit="10"/>
<path d="M716.709 294.323C716.709 294.323 725.81 305.421 739.293 306.493" stroke="white" stroke-width="0.5" stroke-linecap="round" stroke-linejoin="round"/>
<path d="M713.494 297.707C713.494 297.707 717.729 310.025 735.245 313.54" stroke="white" stroke-width="0.5" stroke-linecap="round" stroke-linejoin="round"/>
</svg>
