<svg width="25" height="24" viewBox="0 0 25 24" fill="none" xmlns="http://www.w3.org/2000/svg">
<g id="24 / music / player-play-circle">
<path id="icon" fill-rule="evenodd" clip-rule="evenodd" d="M23.8574 11.9993C23.8574 18.0744 18.9326 22.9993 12.8574 22.9993C6.78229 22.9993 1.85742 18.0744 1.85742 11.9993C1.85742 5.92414 6.78229 0.999268 12.8574 0.999268C18.9326 0.999268 23.8574 5.92414 23.8574 11.9993ZM3.85742 11.9993C3.85742 16.9698 7.88686 20.9993 12.8574 20.9993C17.828 20.9993 21.8574 16.9698 21.8574 11.9993C21.8574 7.0287 17.828 2.99927 12.8574 2.99927C7.88686 2.99927 3.85742 7.0287 3.85742 11.9993ZM8.85742 6.99927C8.85742 6.21383 9.72137 5.73499 10.3874 6.15127L18.3874 11.1513C19.0141 11.5429 19.0141 12.4556 18.3874 12.8473L10.3874 17.8473C9.72137 18.2635 8.85742 17.7847 8.85742 16.9993V6.99927ZM10.8574 8.80352L15.9706 11.9993L10.8574 15.195V8.80352Z" fill="white"/>
</g>
</svg>
