<svg width="60" height="60" viewBox="0 0 60 60" fill="none" xmlns="http://www.w3.org/2000/svg">
<g clip-path="url(#clip0_2958:30646)">
<path d="M15.3672 42.4741V38.8728C15.3672 36.6325 17.1833 34.8164 19.4235 34.8164C21.6638 34.8164 23.4799 36.6325 23.4799 38.8728V42.4741C23.4799 44.7143 21.6638 46.5304 19.4235 46.5304C17.1832 46.5304 15.3672 44.7144 15.3672 42.4741Z" fill="url(#paint0_linear_2958:30646)"/>
<path d="M51.4028 42.4741V38.8728C51.4028 36.6325 53.219 34.8164 55.4592 34.8164C57.6994 34.8164 59.5155 36.6325 59.5155 38.8728V42.4741C59.5155 44.7143 57.6994 46.5304 55.4592 46.5304C53.219 46.5304 51.4028 44.7144 51.4028 42.4741Z" fill="url(#paint1_linear_2958:30646)"/>
<path d="M37.4413 60C27.0509 60 18.6277 51.5769 18.6277 41.1865V33.8488C18.6277 23.4583 27.0507 15.0353 37.4412 15.0353C47.8317 15.0353 56.2547 23.4583 56.2547 33.8488V41.1865C56.2549 51.5769 47.8318 60 37.4413 60Z" fill="url(#paint2_linear_2958:30646)"/>
<path d="M37.4413 15.0353C27.0509 15.0353 18.6277 23.4583 18.6277 33.8488V35.6707L42.3175 59.3605C50.3438 57.2122 56.2547 49.8902 56.2547 41.1863V33.8487C56.2549 23.4583 47.8318 15.0353 37.4413 15.0353Z" fill="url(#paint3_linear_2958:30646)"/>
<path d="M46.8879 10.9081H35.4086C32.4332 10.9081 29.6898 11.8996 27.4893 13.5696C26.2765 12.9058 24.8849 12.5278 23.4047 12.5278C18.6989 12.5278 14.884 16.3427 14.884 21.0486V28.6134C14.884 33.3193 18.6989 37.1341 23.4047 37.1341C25.4056 37.1341 27.2438 36.4427 28.6978 35.2881C30.6611 36.46 32.956 37.1341 35.4086 37.1341H46.8879C54.13 37.1341 60.0009 31.2633 60.0009 24.0211C60.0009 16.7789 54.13 10.9081 46.8879 10.9081Z" fill="url(#paint4_linear_2958:30646)"/>
<path d="M22.2947 24.0211C22.2947 19.7544 24.3329 15.9643 27.4884 13.5696C26.2755 12.9058 24.8839 12.5278 23.4038 12.5278C18.6979 12.5278 14.8831 16.3427 14.8831 21.0485V28.6134C14.8831 33.3192 18.6979 37.1341 23.4038 37.1341C25.4046 37.1341 27.2428 36.4427 28.6968 35.2881C24.8629 32.9997 22.2947 28.8107 22.2947 24.0211Z" fill="url(#paint5_linear_2958:30646)"/>
<path d="M31.8298 44.426C31.8298 45.923 30.6162 47.1364 29.1193 47.1364C27.6223 47.1364 26.4089 45.9229 26.4089 44.426C26.4089 42.9291 27.6225 41.7156 29.1193 41.7156C30.6162 41.7156 31.8298 42.9291 31.8298 44.426Z" fill="url(#paint6_linear_2958:30646)"/>
<path d="M30.3319 42.0015C30.5147 42.3663 30.6178 42.7781 30.6178 43.2139C30.6178 44.7109 29.4042 45.9244 27.9073 45.9244C27.4714 45.9244 27.0596 45.8213 26.6948 45.6385C27.1398 46.5266 28.0584 47.1365 29.1194 47.1365C30.6164 47.1365 31.8299 45.923 31.8299 44.4262C31.8299 43.365 31.22 42.4465 30.3319 42.0015Z" fill="url(#paint7_linear_2958:30646)"/>
<path d="M48.4748 44.426C48.4748 45.923 47.2613 47.1364 45.7643 47.1364C44.2674 47.1364 43.054 45.9229 43.054 44.426C43.054 42.9291 44.2675 41.7156 45.7643 41.7156C47.2614 41.7156 48.4748 42.9291 48.4748 44.426Z" fill="url(#paint8_linear_2958:30646)"/>
<path d="M46.9769 42.0015C47.1597 42.3663 47.2628 42.7781 47.2628 43.2139C47.2628 44.7109 46.0493 45.9244 44.5523 45.9244C44.1164 45.9244 43.7047 45.8213 43.3398 45.6385C43.7848 46.5266 44.7034 47.1365 45.7644 47.1365C47.2614 47.1365 48.4749 45.923 48.4749 44.4262C48.4749 43.365 47.8651 42.4465 46.9769 42.0015Z" fill="url(#paint9_linear_2958:30646)"/>
<path d="M41.1745 52.3607C38.8085 51.2562 36.0748 51.2562 33.7089 52.3607C33.0969 52.6463 32.8233 53.3694 33.0986 53.9861C33.7289 55.3975 35.0933 57.6168 37.4416 57.6168C39.79 57.6168 41.1545 55.3975 41.7847 53.9861C42.0601 53.3693 41.7865 52.6463 41.1745 52.3607Z" fill="url(#paint10_linear_2958:30646)"/>
<path d="M37.4414 49.9991C38.7842 49.9991 39.8728 49.0617 39.8728 47.9054C39.8728 46.7491 38.7842 45.8118 37.4414 45.8118C36.0986 45.8118 35.01 46.7491 35.01 47.9054C35.01 49.0617 36.0986 49.9991 37.4414 49.9991Z" fill="url(#paint11_linear_2958:30646)"/>
<path d="M32.7907 11.171C30.8291 11.5687 29.0259 12.4027 27.4884 13.5695C26.2755 12.9057 24.8839 12.5277 23.4038 12.5277C18.6979 12.5277 14.8831 16.3426 14.8831 21.0484V22.6363L28.0191 35.7723C28.2527 35.6213 28.4795 35.4604 28.6968 35.288C30.6601 36.4598 32.9551 37.134 35.4076 37.134H46.8869C50.1908 37.134 53.2089 35.9116 55.5148 33.8951L32.7907 11.171Z" fill="url(#paint12_linear_2958:30646)"/>
<path d="M59.9999 24.021C59.9999 16.7789 54.1291 10.9081 46.887 10.9081H35.8745C36.0033 12.1503 36.4195 13.3914 36.8893 14.6275C37.0462 15.0402 37.3395 15.399 37.7236 15.672C37.7236 15.672 38.2603 16.2307 38.2913 16.2698C38.4012 16.4875 38.4622 16.8476 38.4622 17.1V18.2903C38.4622 18.6536 38.6333 18.8961 38.9422 18.9097L54.6337 34.6011C57.8871 32.2149 59.9999 28.365 59.9999 24.021Z" fill="url(#paint13_linear_2958:30646)"/>
<path d="M1.48869 3.47345C1.93704 2.29381 3.1048 1.39439 4.56669 1.1171C12.423 -0.373018 20.37 -0.373018 28.2262 1.1171C29.6881 1.39439 30.8559 2.29381 31.3042 3.47345C33.2889 8.69534 33.2887 13.9717 31.3042 19.1931C31.0423 19.882 30.5349 20.4749 29.8668 20.9043C29.1552 21.3617 28.7121 22.1376 28.7121 22.9836V24.8086C28.7121 25.6559 27.6877 26.0802 27.0887 25.4811L24.7753 23.1677C24.1852 22.5776 23.3617 22.2858 22.5312 22.3671C16.5436 22.9527 10.5292 22.6803 4.56669 21.5495C3.1048 21.2722 1.93704 20.3727 1.48869 19.1932C-0.495785 13.9717 -0.496021 8.69545 1.48869 3.47345Z" fill="url(#paint14_linear_2958:30646)"/>
<path d="M0.0583496 12.881C0.215055 14.9893 0.691291 17.0958 1.48858 19.1935C1.93694 20.3731 3.1047 21.2725 4.56658 21.5497C10.5291 22.6806 16.5435 22.953 22.5311 22.3673C23.3616 22.286 24.1851 22.5779 24.7752 23.1679L27.0886 25.4813C27.6876 26.0804 28.712 25.6562 28.712 24.8089V22.9838C28.712 22.1378 29.1549 21.3618 29.8667 20.9045C30.5348 20.4751 31.0422 19.8823 31.3041 19.1933C32.1014 17.0957 32.5776 14.9891 32.7343 12.8809H0.0583496V12.881Z" fill="url(#paint15_linear_2958:30646)"/>
<path d="M22.7165 22.3564C22.6541 22.3564 22.593 22.3611 22.5306 22.367C21.1271 22.5046 19.7212 22.594 18.3153 22.6364L14.9812 19.3023C14.5471 18.9917 14.3872 18.4776 14.3872 17.9211C14.3872 17.0011 15.0153 16.3518 15.9353 16.3518C16.493 16.3518 16.9918 16.5152 17.3012 16.9411L22.7165 22.3564Z" fill="url(#paint16_linear_2958:30646)"/>
<path d="M32.0448 16.906C31.84 17.6695 31.593 18.4319 31.3036 19.193C31.0424 19.8825 30.5342 20.4754 29.8671 20.9048C29.1553 21.3625 28.7118 22.1377 28.7118 22.9836V24.8095C28.7118 25.6566 27.6871 26.0813 27.0883 25.4813L24.7753 23.1683C24.2942 22.6872 23.6589 22.4048 22.9906 22.3613L15.2424 14.613C14.8553 14.4401 14.826 14.0401 14.826 13.2519C14.826 11.946 15.3438 11.2308 15.8014 10.6602C15.792 10.6461 15.5472 10.5142 15.5378 10.5001L12.4601 7.42245C12.1437 7.22245 12.0203 6.88362 12.0203 6.39068C12.0203 5.20715 13.2613 3.5708 16.2213 3.5708C17.9449 3.5708 19.3119 4.04127 20.1107 4.97304L32.0448 16.906Z" fill="url(#paint17_linear_2958:30646)"/>
<path d="M18.4349 11.0821C17.2292 12.0248 17.2073 12.6824 17.2073 13.8223C17.2073 14.2388 16.9881 14.7211 15.9139 14.7211C15.015 14.7211 14.7081 14.3923 14.7081 13.2523C14.7081 11.367 15.5412 10.4682 16.1769 9.92018C16.9003 9.3063 18.128 8.62677 18.128 7.44289C18.128 6.43442 17.2512 5.9523 16.1549 5.9523C13.9188 5.9523 14.4012 7.64018 13.2174 7.64018C12.6255 7.64018 11.9021 7.2456 11.9021 6.39065C11.9021 5.20689 13.2613 3.45312 16.2207 3.45312C19.0267 3.45312 20.8902 5.0096 20.8902 7.0703C20.8902 9.13101 19.0268 10.6217 18.4349 11.0821ZM17.6237 17.9217C17.6237 18.8207 16.8785 19.6098 15.9357 19.6098C14.9932 19.6098 14.2696 18.8207 14.2696 17.9217C14.2696 17.001 15.015 16.2338 15.9357 16.2338C16.8566 16.2338 17.6237 17.0011 17.6237 17.9217Z" fill="url(#paint18_linear_2958:30646)"/>
<path d="M56.1011 4.3745C55.8087 3.60508 55.047 3.0185 54.0935 2.83755C48.9693 1.86567 43.7858 1.86567 38.6616 2.83755C37.7081 3.01838 36.9464 3.60508 36.654 4.3745C35.3594 7.7805 35.3596 11.222 36.654 14.6276C36.8248 15.0768 37.1557 15.4637 37.5915 15.7437C38.0557 16.042 38.3447 16.5481 38.3447 17.0999V18.2903C38.3447 18.8428 39.0128 19.1197 39.4035 18.7289L40.9124 17.2199C41.2973 16.8351 41.8344 16.6447 42.3762 16.6977C46.2815 17.0797 50.2046 16.902 54.0935 16.1644C55.047 15.9836 55.8087 15.3968 56.1011 14.6274C57.3955 11.222 57.3956 7.7805 56.1011 4.3745Z" fill="url(#paint19_linear_2958:30646)"/>
<path d="M49.2748 8.74256H53.6975C54.0216 8.74256 54.2843 8.47985 54.2843 8.15573V6.98209C54.2843 6.65797 54.0216 6.39526 53.6975 6.39526H49.2748C48.9507 6.39526 48.688 6.65797 48.688 6.98209V8.15573C48.688 8.47985 48.9507 8.74256 49.2748 8.74256Z" fill="#43765A"/>
<path d="M39.0578 8.74256H46.7792C47.1033 8.74256 47.366 8.47985 47.366 8.15573V6.98209C47.366 6.65797 47.1033 6.39526 46.7792 6.39526H39.0578C38.7337 6.39526 38.4709 6.65797 38.4709 6.98209V8.15573C38.4709 8.47985 38.7337 8.74256 39.0578 8.74256Z" fill="#43765A"/>
<path d="M43.4805 12.2781H39.0578C38.7337 12.2781 38.4709 12.0154 38.4709 11.6913V10.5176C38.4709 10.1935 38.7337 9.93079 39.0578 9.93079H43.4805C43.8046 9.93079 44.0673 10.1935 44.0673 10.5176V11.6913C44.0673 12.0154 43.8046 12.2781 43.4805 12.2781Z" fill="#43765A"/>
<path d="M35.7209 10.5102C35.8232 11.8854 36.1338 13.2594 36.6539 14.6275C36.8247 15.0768 37.1557 15.4637 37.5914 15.7437C38.0557 16.042 38.3446 16.5481 38.3446 17.0999V18.2903C38.3446 18.8428 39.0127 19.1197 39.4034 18.7288L40.9124 17.2199C41.2973 16.8351 41.8344 16.6447 42.3761 16.6977C46.2814 17.0797 50.2045 16.902 54.0934 16.1644C55.047 15.9835 55.8086 15.3968 56.1011 14.6274C56.6211 13.2592 56.9318 11.8852 57.0339 10.5101H35.7209V10.5102Z" fill="url(#paint20_linear_2958:30646)"/>
</g>
<defs>
<linearGradient id="paint0_linear_2958:30646" x1="18.2181" y1="37.9701" x2="22.6892" y2="47.9974" gradientUnits="userSpaceOnUse">
<stop stop-color="#FFDECF"/>
<stop offset="1" stop-color="#FAA68E"/>
</linearGradient>
<linearGradient id="paint1_linear_2958:30646" x1="54.2538" y1="37.9701" x2="58.7248" y2="47.9974" gradientUnits="userSpaceOnUse">
<stop stop-color="#FFDECF"/>
<stop offset="1" stop-color="#FAA68E"/>
</linearGradient>
<linearGradient id="paint2_linear_2958:30646" x1="36.2649" y1="36.3412" x2="55.4303" y2="55.5066" gradientUnits="userSpaceOnUse">
<stop stop-color="#FFDECF"/>
<stop offset="1" stop-color="#FAA68E"/>
</linearGradient>
<linearGradient id="paint3_linear_2958:30646" x1="39.2062" y1="43.5353" x2="35.1277" y2="21.2608" gradientUnits="userSpaceOnUse">
<stop stop-color="#FF9356" stop-opacity="0"/>
<stop offset="1" stop-color="#FF4181"/>
</linearGradient>
<linearGradient id="paint4_linear_2958:30646" x1="34.6073" y1="18.2333" x2="44.6073" y2="45.2921" gradientUnits="userSpaceOnUse">
<stop stop-color="#5A7587"/>
<stop offset="1" stop-color="#092A40"/>
</linearGradient>
<linearGradient id="paint5_linear_2958:30646" x1="24.3361" y1="25.7177" x2="36.5714" y2="35.953" gradientUnits="userSpaceOnUse">
<stop stop-color="#092A40" stop-opacity="0"/>
<stop offset="1" stop-color="#092A40"/>
</linearGradient>
<linearGradient id="paint6_linear_2958:30646" x1="28.1052" y1="43.4119" x2="31.6156" y2="46.9224" gradientUnits="userSpaceOnUse">
<stop stop-color="#5A7587"/>
<stop offset="1" stop-color="#092A40"/>
</linearGradient>
<linearGradient id="paint7_linear_2958:30646" x1="29.2135" y1="45.4649" x2="32.9392" y2="38.5357" gradientUnits="userSpaceOnUse">
<stop stop-color="#092A40" stop-opacity="0"/>
<stop offset="1" stop-color="#092A40"/>
</linearGradient>
<linearGradient id="paint8_linear_2958:30646" x1="44.7503" y1="43.4119" x2="48.2607" y2="46.9224" gradientUnits="userSpaceOnUse">
<stop stop-color="#5A7587"/>
<stop offset="1" stop-color="#092A40"/>
</linearGradient>
<linearGradient id="paint9_linear_2958:30646" x1="45.8587" y1="45.4649" x2="49.5843" y2="38.5357" gradientUnits="userSpaceOnUse">
<stop stop-color="#092A40" stop-opacity="0"/>
<stop offset="1" stop-color="#092A40"/>
</linearGradient>
<linearGradient id="paint10_linear_2958:30646" x1="36.7325" y1="52.3325" x2="39.5149" y2="57.0627" gradientUnits="userSpaceOnUse">
<stop stop-color="#FF755C"/>
<stop offset="1" stop-color="#FF4181"/>
</linearGradient>
<linearGradient id="paint11_linear_2958:30646" x1="37.4414" y1="48.7536" x2="37.4414" y2="42.1053" gradientUnits="userSpaceOnUse">
<stop stop-color="#FF9356" stop-opacity="0"/>
<stop offset="1" stop-color="#FF4181"/>
</linearGradient>
<linearGradient id="paint12_linear_2958:30646" x1="37.2381" y1="30.9273" x2="19.1205" y2="7.2802" gradientUnits="userSpaceOnUse">
<stop stop-color="#092A40" stop-opacity="0"/>
<stop offset="1" stop-color="#092A40"/>
</linearGradient>
<linearGradient id="paint13_linear_2958:30646" x1="50.8072" y1="25.7316" x2="45.8136" y2="10.1633" gradientUnits="userSpaceOnUse">
<stop stop-color="#092A40" stop-opacity="0"/>
<stop offset="1" stop-color="#092A40"/>
</linearGradient>
<linearGradient id="paint14_linear_2958:30646" x1="10.5734" y1="5.51028" x2="25.2153" y2="20.152" gradientUnits="userSpaceOnUse">
<stop stop-color="#FF755C"/>
<stop offset="1" stop-color="#FF4181"/>
</linearGradient>
<linearGradient id="paint15_linear_2958:30646" x1="16.3963" y1="15.4809" x2="16.3963" y2="28.1069" gradientUnits="userSpaceOnUse">
<stop stop-color="#843561" stop-opacity="0"/>
<stop offset="1" stop-color="#3A2F4D"/>
</linearGradient>
<linearGradient id="paint16_linear_2958:30646" x1="19.2063" y1="21.1876" x2="15.0943" y2="17.0755" gradientUnits="userSpaceOnUse">
<stop stop-color="#843561" stop-opacity="0"/>
<stop offset="1" stop-color="#3A2F4D"/>
</linearGradient>
<linearGradient id="paint17_linear_2958:30646" x1="25.3597" y1="17.4997" x2="8.6491" y2="0.789023" gradientUnits="userSpaceOnUse">
<stop stop-color="#843561" stop-opacity="0"/>
<stop offset="1" stop-color="#3A2F4D"/>
</linearGradient>
<linearGradient id="paint18_linear_2958:30646" x1="11.9021" y1="11.5315" x2="20.8902" y2="11.5315" gradientUnits="userSpaceOnUse">
<stop stop-color="#EDF5FF"/>
<stop offset="1" stop-color="#C7E9FF"/>
</linearGradient>
<linearGradient id="paint19_linear_2958:30646" x1="39.9578" y1="4.0645" x2="54.4671" y2="18.5738" gradientUnits="userSpaceOnUse">
<stop stop-color="#E4E08E"/>
<stop offset="1" stop-color="#6FA953"/>
</linearGradient>
<linearGradient id="paint20_linear_2958:30646" x1="46.3774" y1="11.5274" x2="46.3774" y2="19.7058" gradientUnits="userSpaceOnUse">
<stop stop-color="#43765A" stop-opacity="0"/>
<stop offset="1" stop-color="#43765A"/>
</linearGradient>
<clipPath id="clip0_2958:30646">
<rect width="60" height="60" fill="white"/>
</clipPath>
</defs>
</svg>
