<?xml version="1.0" encoding="utf-8"?><svg viewBox="0 0 60 60" xmlns="http://www.w3.org/2000/svg" xmlns:xlink="http://www.w3.org/1999/xlink"><style>:root>svg{display:none}:root>svg:target{display:block}</style><svg fill="none" viewBox="0 0 60 60" id="1" xmlns="http://www.w3.org/2000/svg"><path d="M15.367 42.474v-3.601a4.056 4.056 0 118.113 0v3.601a4.056 4.056 0 01-8.113 0z" fill="url(#apaint0_linear_4662:40740)"/><path d="M51.403 42.474v-3.601a4.056 4.056 0 018.113 0v3.601a4.056 4.056 0 01-8.113 0z" fill="url(#apaint1_linear_4662:40740)"/><path d="M37.441 60c-10.39 0-18.813-8.423-18.813-18.813v-7.338c0-10.39 8.423-18.814 18.813-18.814 10.39 0 18.814 8.423 18.814 18.814v7.338C56.255 51.577 47.832 60 37.44 60z" fill="url(#apaint2_linear_4662:40740)"/><path d="M37.441 15.035c-10.39 0-18.813 8.423-18.813 18.814v1.822l23.69 23.69c8.026-2.149 13.937-9.47 13.937-18.175V33.85c0-10.39-8.423-18.814-18.814-18.814z" fill="url(#apaint3_linear_4662:40740)"/><path d="M46.888 10.908h-11.48c-2.975 0-5.718.992-7.919 2.662a8.52 8.52 0 00-12.605 7.479v7.564a8.52 8.52 0 0013.814 6.675 13.051 13.051 0 006.71 1.846h11.48C54.13 37.134 60 31.264 60 24.021c0-7.242-5.871-13.113-13.113-13.113z" fill="url(#apaint4_linear_4662:40740)"/><path d="M22.295 24.021c0-4.267 2.038-8.057 5.193-10.451a8.52 8.52 0 00-12.605 7.479v7.564a8.52 8.52 0 0013.814 6.675 13.105 13.105 0 01-6.402-11.267z" fill="url(#apaint5_linear_4662:40740)"/><path d="M31.83 44.426a2.71 2.71 0 11-5.421 0 2.71 2.71 0 015.42 0z" fill="url(#apaint6_linear_4662:40740)"/><path d="M30.332 42.002a2.71 2.71 0 01-3.637 3.637 2.71 2.71 0 103.637-3.637z" fill="url(#apaint7_linear_4662:40740)"/><path d="M48.475 44.426a2.71 2.71 0 11-5.42 0 2.71 2.71 0 015.42 0z" fill="url(#apaint8_linear_4662:40740)"/><path d="M46.977 42.002a2.71 2.71 0 01-3.637 3.637 2.71 2.71 0 103.637-3.637z" fill="url(#apaint9_linear_4662:40740)"/><path d="M41.175 52.36a8.825 8.825 0 00-7.466 0 1.239 1.239 0 00-.61 1.626c.63 1.412 1.994 3.63 4.343 3.63 2.348 0 3.712-2.218 4.343-3.63a1.238 1.238 0 00-.61-1.625z" fill="url(#apaint10_linear_4662:40740)"/><path d="M37.441 50c1.343 0 2.432-.938 2.432-2.095 0-1.156-1.089-2.093-2.432-2.093-1.342 0-2.431.937-2.431 2.093 0 1.157 1.089 2.094 2.431 2.094z" fill="url(#apaint11_linear_4662:40740)"/><path d="M32.79 11.171a13.057 13.057 0 00-5.302 2.399 8.52 8.52 0 00-12.605 7.479v1.587L28.02 35.772c.234-.15.46-.312.678-.484a13.052 13.052 0 006.71 1.846h11.48c3.304 0 6.322-1.222 8.628-3.239L32.79 11.171z" fill="url(#apaint12_linear_4662:40740)"/><path d="M60 24.021c0-7.242-5.87-13.113-13.113-13.113H35.874c.13 1.242.545 2.483 1.015 3.72a2.3 2.3 0 00.835 1.044s.536.559.567.598c.11.218.171.578.171.83v1.19c0 .364.171.606.48.62L54.634 34.6A13.094 13.094 0 0060 24.021z" fill="url(#apaint13_linear_4662:40740)"/><path d="M1.489 3.473c.448-1.18 1.616-2.079 3.078-2.356a63.168 63.168 0 0123.66 0c1.461.277 2.629 1.177 3.077 2.356 1.985 5.222 1.985 10.499 0 15.72-.262.689-.77 1.282-1.437 1.711a2.478 2.478 0 00-1.155 2.08v1.825c0 .847-1.024 1.271-1.623.672l-2.314-2.313a2.787 2.787 0 00-2.244-.8 63.149 63.149 0 01-17.964-.819c-1.462-.277-2.63-1.176-3.078-2.356-1.985-5.221-1.985-10.498 0-15.72z" fill="url(#apaint14_linear_4662:40740)"/><path d="M.058 12.881c.157 2.108.633 4.215 1.43 6.313.449 1.18 1.617 2.079 3.079 2.356a63.142 63.142 0 0017.964.817c.83-.081 1.654.21 2.244.8l2.314 2.314c.599.6 1.623.175 1.623-.672v-1.825c0-.846.443-1.622 1.155-2.08.668-.429 1.175-1.022 1.437-1.71.797-2.098 1.274-4.205 1.43-6.313H.058z" fill="url(#apaint15_linear_4662:40740)"/><path d="M22.716 22.356c-.062 0-.123.005-.185.011-1.404.138-2.81.227-4.216.27l-3.334-3.335c-.434-.31-.594-.824-.594-1.38 0-.92.628-1.57 1.548-1.57.558 0 1.057.163 1.366.59l5.416 5.414z" fill="url(#apaint16_linear_4662:40740)"/><path d="M32.045 16.906a23.735 23.735 0 01-.741 2.287c-.262.69-.77 1.282-1.437 1.712a2.477 2.477 0 00-1.155 2.079v1.825c0 .848-1.025 1.272-1.624.672l-2.313-2.313a2.777 2.777 0 00-1.784-.807l-7.749-7.748c-.387-.173-.416-.573-.416-1.361 0-1.306.518-2.021.975-2.592-.009-.014-.254-.146-.263-.16L12.46 7.422c-.316-.2-.44-.538-.44-1.031 0-1.184 1.241-2.82 4.201-2.82 1.724 0 3.09.47 3.89 1.402l11.934 11.933z" fill="url(#apaint17_linear_4662:40740)"/><path d="M18.435 11.082c-1.206.943-1.228 1.6-1.228 2.74 0 .417-.219.9-1.293.9-.899 0-1.206-.33-1.206-1.47 0-1.885.833-2.784 1.469-3.332.723-.614 1.951-1.293 1.951-2.477 0-1.009-.877-1.49-1.973-1.49-2.236 0-1.754 1.687-2.938 1.687-.591 0-1.315-.394-1.315-1.25 0-1.183 1.36-2.937 4.319-2.937 2.806 0 4.67 1.557 4.67 3.617 0 2.061-1.864 3.552-2.456 4.012zm-.811 6.84c0 .899-.745 1.688-1.688 1.688s-1.666-.79-1.666-1.688c0-.921.745-1.688 1.666-1.688.92 0 1.688.767 1.688 1.688z" fill="url(#apaint18_linear_4662:40740)"/><path d="M56.101 4.375c-.292-.77-1.054-1.357-2.008-1.537a41.203 41.203 0 00-15.431 0c-.954.18-1.716.767-2.008 1.537-1.295 3.405-1.294 6.847 0 10.253.17.449.502.836.938 1.116.464.298.753.804.753 1.356v1.19a.62.62 0 001.059.439l1.508-1.51a1.818 1.818 0 011.464-.521c3.906.382 7.829.204 11.718-.534.953-.18 1.715-.767 2.007-1.537 1.294-3.405 1.295-6.847 0-10.253z" fill="url(#apaint19_linear_4662:40740)"/><path d="M49.275 8.743h4.423a.587.587 0 00.587-.587V6.982a.587.587 0 00-.587-.587h-4.423a.587.587 0 00-.587.587v1.174c0 .324.263.587.587.587zM39.058 8.743h7.721a.587.587 0 00.587-.587V6.982a.587.587 0 00-.587-.587h-7.721a.587.587 0 00-.587.587v1.174c0 .324.263.587.587.587zM43.48 12.278h-4.422a.587.587 0 01-.587-.587v-1.173c0-.325.263-.587.587-.587h4.422c.325 0 .587.263.587.587v1.173a.587.587 0 01-.587.587z" fill="#43765A"/><path d="M35.72 10.51c.103 1.375.414 2.75.934 4.117.17.45.502.837.937 1.117.465.298.754.804.754 1.356v1.19a.62.62 0 001.058.439l1.51-1.51a1.818 1.818 0 011.463-.521c3.905.382 7.829.204 11.717-.534.954-.18 1.716-.767 2.008-1.537.52-1.368.83-2.742.933-4.117H35.72z" fill="url(#apaint20_linear_4662:40740)"/><defs><linearGradient id="apaint0_linear_4662:40740" x1="18.218" y1="37.97" x2="22.689" y2="47.997" gradientUnits="userSpaceOnUse"><stop stop-color="#FFDECF"/><stop offset="1" stop-color="#FAA68E"/></linearGradient><linearGradient id="apaint1_linear_4662:40740" x1="54.254" y1="37.97" x2="58.725" y2="47.997" gradientUnits="userSpaceOnUse"><stop stop-color="#FFDECF"/><stop offset="1" stop-color="#FAA68E"/></linearGradient><linearGradient id="apaint2_linear_4662:40740" x1="36.265" y1="36.341" x2="55.43" y2="55.507" gradientUnits="userSpaceOnUse"><stop stop-color="#FFDECF"/><stop offset="1" stop-color="#FAA68E"/></linearGradient><linearGradient id="apaint3_linear_4662:40740" x1="39.206" y1="43.535" x2="35.128" y2="21.261" gradientUnits="userSpaceOnUse"><stop stop-color="#FF9356" stop-opacity="0"/><stop offset="1" stop-color="#FF4181"/></linearGradient><linearGradient id="apaint4_linear_4662:40740" x1="34.607" y1="18.233" x2="44.607" y2="45.292" gradientUnits="userSpaceOnUse"><stop stop-color="#5A7587"/><stop offset="1" stop-color="#092A40"/></linearGradient><linearGradient id="apaint5_linear_4662:40740" x1="24.336" y1="25.718" x2="36.571" y2="35.953" gradientUnits="userSpaceOnUse"><stop stop-color="#092A40" stop-opacity="0"/><stop offset="1" stop-color="#092A40"/></linearGradient><linearGradient id="apaint6_linear_4662:40740" x1="28.105" y1="43.412" x2="31.616" y2="46.922" gradientUnits="userSpaceOnUse"><stop stop-color="#5A7587"/><stop offset="1" stop-color="#092A40"/></linearGradient><linearGradient id="apaint7_linear_4662:40740" x1="29.213" y1="45.465" x2="32.939" y2="38.536" gradientUnits="userSpaceOnUse"><stop stop-color="#092A40" stop-opacity="0"/><stop offset="1" stop-color="#092A40"/></linearGradient><linearGradient id="apaint8_linear_4662:40740" x1="44.75" y1="43.412" x2="48.261" y2="46.922" gradientUnits="userSpaceOnUse"><stop stop-color="#5A7587"/><stop offset="1" stop-color="#092A40"/></linearGradient><linearGradient id="apaint9_linear_4662:40740" x1="45.859" y1="45.465" x2="49.584" y2="38.536" gradientUnits="userSpaceOnUse"><stop stop-color="#092A40" stop-opacity="0"/><stop offset="1" stop-color="#092A40"/></linearGradient><linearGradient id="apaint10_linear_4662:40740" x1="36.733" y1="52.333" x2="39.515" y2="57.063" gradientUnits="userSpaceOnUse"><stop stop-color="#FF755C"/><stop offset="1" stop-color="#FF4181"/></linearGradient><linearGradient id="apaint11_linear_4662:40740" x1="37.441" y1="48.754" x2="37.441" y2="42.105" gradientUnits="userSpaceOnUse"><stop stop-color="#FF9356" stop-opacity="0"/><stop offset="1" stop-color="#FF4181"/></linearGradient><linearGradient id="apaint12_linear_4662:40740" x1="37.238" y1="30.927" x2="19.12" y2="7.28" gradientUnits="userSpaceOnUse"><stop stop-color="#092A40" stop-opacity="0"/><stop offset="1" stop-color="#092A40"/></linearGradient><linearGradient id="apaint13_linear_4662:40740" x1="50.807" y1="25.732" x2="45.814" y2="10.163" gradientUnits="userSpaceOnUse"><stop stop-color="#092A40" stop-opacity="0"/><stop offset="1" stop-color="#092A40"/></linearGradient><linearGradient id="apaint14_linear_4662:40740" x1="10.573" y1="5.51" x2="25.215" y2="20.152" gradientUnits="userSpaceOnUse"><stop stop-color="#FF755C"/><stop offset="1" stop-color="#FF4181"/></linearGradient><linearGradient id="apaint15_linear_4662:40740" x1="16.396" y1="15.481" x2="16.396" y2="28.107" gradientUnits="userSpaceOnUse"><stop stop-color="#843561" stop-opacity="0"/><stop offset="1" stop-color="#3A2F4D"/></linearGradient><linearGradient id="apaint16_linear_4662:40740" x1="19.206" y1="21.188" x2="15.094" y2="17.076" gradientUnits="userSpaceOnUse"><stop stop-color="#843561" stop-opacity="0"/><stop offset="1" stop-color="#3A2F4D"/></linearGradient><linearGradient id="apaint17_linear_4662:40740" x1="25.36" y1="17.5" x2="8.649" y2=".789" gradientUnits="userSpaceOnUse"><stop stop-color="#843561" stop-opacity="0"/><stop offset="1" stop-color="#3A2F4D"/></linearGradient><linearGradient id="apaint18_linear_4662:40740" x1="11.902" y1="11.531" x2="20.89" y2="11.531" gradientUnits="userSpaceOnUse"><stop stop-color="#EDF5FF"/><stop offset="1" stop-color="#C7E9FF"/></linearGradient><linearGradient id="apaint19_linear_4662:40740" x1="39.958" y1="4.064" x2="54.467" y2="18.574" gradientUnits="userSpaceOnUse"><stop stop-color="#E4E08E"/><stop offset="1" stop-color="#6FA953"/></linearGradient><linearGradient id="apaint20_linear_4662:40740" x1="46.377" y1="11.527" x2="46.377" y2="19.706" gradientUnits="userSpaceOnUse"><stop stop-color="#43765A" stop-opacity="0"/><stop offset="1" stop-color="#43765A"/></linearGradient></defs></svg><svg fill="none" viewBox="0 0 60 60" id="2" xmlns="http://www.w3.org/2000/svg"><path d="M30 60c16.569 0 30-13.431 30-30C60 13.431 46.569 0 30 0 13.431 0 0 13.431 0 30c0 16.569 13.431 30 30 30z" fill="url(#bpaint0_linear_4662:40693)"/><path d="M30 56.605c14.694 0 26.605-11.912 26.605-26.605C56.605 15.306 44.694 3.395 30 3.395 15.307 3.395 3.395 15.307 3.395 30S15.307 56.605 30 56.605z" fill="url(#bpaint1_linear_4662:40693)"/><path d="M30 52.479c12.415 0 22.479-10.064 22.479-22.479S42.415 7.521 29.999 7.521c-12.414 0-22.478 10.064-22.478 22.48 0 12.414 10.064 22.478 22.479 22.478z" fill="url(#bpaint2_linear_4662:40693)"/><path d="M26.686 33.604l20.785 20.785a30.172 30.172 0 006.365-6.173L33.281 27.66l-6.595 5.944z" fill="url(#bpaint3_linear_4662:40693)"/><path d="M30 12.273a1.462 1.462 0 100-2.924 1.462 1.462 0 000 2.924z" fill="url(#bpaint4_linear_4662:40693)"/><path d="M30 50.65a1.462 1.462 0 100-2.923 1.462 1.462 0 000 2.923z" fill="url(#bpaint5_linear_4662:40693)"/><path d="M49.189 31.462a1.462 1.462 0 100-2.924 1.462 1.462 0 000 2.924z" fill="url(#bpaint6_linear_4662:40693)"/><path d="M10.811 31.462a1.462 1.462 0 100-2.924 1.462 1.462 0 000 2.924z" fill="url(#bpaint7_linear_4662:40693)"/><path d="M39.524 14.803a1.462 1.462 0 100-2.923 1.462 1.462 0 000 2.923z" fill="url(#bpaint8_linear_4662:40693)"/><path d="M20.476 48.12a1.462 1.462 0 100-2.923 1.462 1.462 0 000 2.923z" fill="url(#bpaint9_linear_4662:40693)"/><path d="M46.658 40.985a1.462 1.462 0 100-2.923 1.462 1.462 0 000 2.923z" fill="url(#bpaint10_linear_4662:40693)"/><path d="M13.341 21.937a1.462 1.462 0 100-2.923 1.462 1.462 0 000 2.923z" fill="url(#bpaint11_linear_4662:40693)"/><path d="M20.476 14.803a1.462 1.462 0 100-2.923 1.462 1.462 0 000 2.923z" fill="url(#bpaint12_linear_4662:40693)"/><path d="M39.524 48.12a1.462 1.462 0 100-2.923 1.462 1.462 0 000 2.923z" fill="url(#bpaint13_linear_4662:40693)"/><path d="M13.341 40.985a1.462 1.462 0 100-2.923 1.462 1.462 0 000 2.923z" fill="url(#bpaint14_linear_4662:40693)"/><path d="M46.658 21.937a1.462 1.462 0 100-2.923 1.462 1.462 0 000 2.923z" fill="url(#bpaint15_linear_4662:40693)"/><path d="M30 3.395V30l18.813 18.812A26.522 26.522 0 0056.605 30C56.605 15.307 44.693 3.395 30 3.395z" fill="url(#bpaint16_linear_4662:40693)"/><path d="M30 7.521v22.48l15.895 15.894A22.408 22.408 0 0052.479 30C52.479 17.585 42.415 7.521 30 7.521z" fill="url(#bpaint17_linear_4662:40693)"/><path d="M30.179 3.397L30 3.396V30l18.813 18.812A26.522 26.522 0 0056.605 30l-.002-.179L30.179 3.397z" fill="url(#bpaint18_linear_4662:40693)"/><path d="M46.197 40.576l2.597 8.218.018.019c.94-.94 1.809-1.95 2.6-3.022l-5.215-5.215z" fill="url(#bpaint19_linear_4662:40693)"/><path d="M46.196 40.576l2.19 6.123.09 1.681c.135.378-1.778.005-1.778.005l-6.123-2.188c-1.556-1.557 4.065-7.178 5.621-5.621z" fill="url(#bpaint20_linear_4662:40693)"/><path d="M27.004 32.626l13.572 13.57c.154-.266.388-.502.687-.67.41-.226 1.05-.102 1.493.032a.183.183 0 00.22-.098.185.185 0 00.002-.158v-.001a1.855 1.855 0 01-.065-.171l-.025-.083v-.006a1.728 1.728 0 01-.059-.508 1.753 1.753 0 01.72-1.364 1.756 1.756 0 011.498-.28l.083.024a1.266 1.266 0 01.172.066c.055.024.111.02.158-.002a.183.183 0 00.098-.22c-.134-.444-.258-1.083-.032-1.492.168-.301.403-.535.67-.689l-13.57-13.572a1.087 1.087 0 00-1.536 0l-.801.801-2.484 2.484-.8.801a1.087 1.087 0 00-.001 1.536z" fill="url(#bpaint21_linear_4662:40693)"/><path d="M27.805 30.289L42.976 45.46a.185.185 0 00.002-.158v-.001a4.084 4.084 0 01-.14-.53 1.755 1.755 0 01.71-1.602 1.756 1.756 0 011.754-.19c.055.024.112.02.158-.002L30.289 27.805l-2.484 2.484z" fill="url(#bpaint22_linear_4662:40693)"/><path d="M47.411 47.411c.295-.295.625-.532.974-.712l.601 1.68a.475.475 0 01-.607.607l-1.68-.6c.18-.35.417-.68.712-.975z" fill="url(#bpaint23_linear_4662:40693)"/><path d="M26.025 11.128l2.782-5.877S29.828 3.94 30 4.304l1.193.947 2.781 5.877c0 2.202-7.949 2.202-7.949 0z" fill="url(#bpaint24_linear_4662:40693)"/><path d="M33.975 30.32V11.129c-.298.08-.63.081-.96-.012-.45-.13-.815-.67-1.033-1.078a.183.183 0 00-.226-.087.185.185 0 00-.113.11v.002a1.853 1.853 0 01-.076.167l-.04.076a1.753 1.753 0 01-1.795.86 1.755 1.755 0 01-1.255-.856 18.43 18.43 0 00-.044-.08 1.353 1.353 0 01-.075-.166l-.001-.002a.184.184 0 00-.113-.11.183.183 0 00-.226.086c-.218.408-.582.948-1.032 1.077-.33.094-.662.093-.96.013l-.001 19.193c0 .6.487 1.086 1.086 1.086h5.778c.6 0 1.085-.486 1.086-1.086z" fill="url(#bpaint25_linear_4662:40693)"/><path d="M31.756 31.407V9.952a.185.185 0 00-.113.11v.001a4.064 4.064 0 01-.276.473 1.757 1.757 0 01-1.636.63 1.756 1.756 0 01-1.373-1.102l-.001-.002a.185.185 0 00-.113-.11v21.455h3.512z" fill="url(#bpaint26_linear_4662:40693)"/><path d="M30 5.436c-.418 0-.818-.066-1.193-.185l.764-1.613a.475.475 0 01.858 0l.764 1.613c-.374.12-.775.185-1.193.185z" fill="url(#bpaint27_linear_4662:40693)"/><path d="M30 34.896a4.896 4.896 0 100-9.792 4.896 4.896 0 000 9.792z" fill="url(#bpaint28_linear_4662:40693)"/><defs><linearGradient id="bpaint0_linear_4662:40693" x1="20.855" y1="20.855" x2="56.234" y2="56.234" gradientUnits="userSpaceOnUse"><stop stop-color="#FFCE47"/><stop offset="1" stop-color="#FF9356"/></linearGradient><linearGradient id="bpaint1_linear_4662:40693" x1="38.11" y1="38.11" x2="6.736" y2="6.735" gradientUnits="userSpaceOnUse"><stop stop-color="#FFCE47"/><stop offset="1" stop-color="#FF9356"/></linearGradient><linearGradient id="bpaint2_linear_4662:40693" x1="23.148" y1="23.148" x2="49.657" y2="49.657" gradientUnits="userSpaceOnUse"><stop stop-color="#EDF5FF"/><stop offset="1" stop-color="#C7E9FF"/></linearGradient><linearGradient id="bpaint3_linear_4662:40693" x1="44.676" y1="45.324" x2="24.413" y2="25.061" gradientUnits="userSpaceOnUse"><stop stop-color="#7ACBFF" stop-opacity="0"/><stop offset="1" stop-color="#2F73A0"/></linearGradient><linearGradient id="bpaint4_linear_4662:40693" x1="29.426" y1="10.237" x2="30.652" y2="11.463" gradientUnits="userSpaceOnUse"><stop stop-color="#2F73A0"/><stop offset="1" stop-color="#43765A"/></linearGradient><linearGradient id="bpaint5_linear_4662:40693" x1="29.426" y1="48.615" x2="30.652" y2="49.841" gradientUnits="userSpaceOnUse"><stop stop-color="#2F73A0"/><stop offset="1" stop-color="#43765A"/></linearGradient><linearGradient id="bpaint6_linear_4662:40693" x1="49.763" y1="29.426" x2="48.537" y2="30.652" gradientUnits="userSpaceOnUse"><stop stop-color="#2F73A0"/><stop offset="1" stop-color="#43765A"/></linearGradient><linearGradient id="bpaint7_linear_4662:40693" x1="11.385" y1="29.426" x2="10.159" y2="30.652" gradientUnits="userSpaceOnUse"><stop stop-color="#2F73A0"/><stop offset="1" stop-color="#43765A"/></linearGradient><linearGradient id="bpaint8_linear_4662:40693" x1="39.281" y1="12.526" x2="39.736" y2="14.199" gradientUnits="userSpaceOnUse"><stop stop-color="#2F73A0"/><stop offset="1" stop-color="#43765A"/></linearGradient><linearGradient id="bpaint9_linear_4662:40693" x1="20.245" y1="45.838" x2="20.701" y2="47.511" gradientUnits="userSpaceOnUse"><stop stop-color="#2F73A0"/><stop offset="1" stop-color="#43765A"/></linearGradient><linearGradient id="bpaint10_linear_4662:40693" x1="47.431" y1="39.189" x2="45.759" y2="39.645" gradientUnits="userSpaceOnUse"><stop stop-color="#2F73A0"/><stop offset="1" stop-color="#43765A"/></linearGradient><linearGradient id="bpaint11_linear_4662:40693" x1="14.119" y1="20.154" x2="12.447" y2="20.61" gradientUnits="userSpaceOnUse"><stop stop-color="#2F73A0"/><stop offset="1" stop-color="#43765A"/></linearGradient><linearGradient id="bpaint12_linear_4662:40693" x1="20.684" y1="12.554" x2="20.228" y2="14.227" gradientUnits="userSpaceOnUse"><stop stop-color="#2F73A0"/><stop offset="1" stop-color="#43765A"/></linearGradient><linearGradient id="bpaint13_linear_4662:40693" x1="39.72" y1="45.866" x2="39.264" y2="47.539" gradientUnits="userSpaceOnUse"><stop stop-color="#2F73A0"/><stop offset="1" stop-color="#43765A"/></linearGradient><linearGradient id="bpaint14_linear_4662:40693" x1="12.534" y1="39.217" x2="14.206" y2="39.673" gradientUnits="userSpaceOnUse"><stop stop-color="#2F73A0"/><stop offset="1" stop-color="#43765A"/></linearGradient><linearGradient id="bpaint15_linear_4662:40693" x1="45.846" y1="20.182" x2="47.518" y2="20.638" gradientUnits="userSpaceOnUse"><stop stop-color="#2F73A0"/><stop offset="1" stop-color="#43765A"/></linearGradient><linearGradient id="bpaint16_linear_4662:40693" x1="32.536" y1="7.826" x2="44.183" y2="27.944" gradientUnits="userSpaceOnUse"><stop stop-color="#FF755C"/><stop offset="1" stop-color="#FF4181"/></linearGradient><linearGradient id="bpaint17_linear_4662:40693" x1="35.96" y1="25.312" x2="76.723" y2="39.782" gradientUnits="userSpaceOnUse"><stop stop-color="#843561" stop-opacity="0"/><stop offset="1" stop-color="#3A2F4D"/></linearGradient><linearGradient id="bpaint18_linear_4662:40693" x1="42.353" y1="26.104" x2="25.41" y2="26.104" gradientUnits="userSpaceOnUse"><stop stop-color="#843561" stop-opacity="0"/><stop offset="1" stop-color="#3A2F4D"/></linearGradient><linearGradient id="bpaint19_linear_4662:40693" x1="49.596" y1="46.786" x2="44.512" y2="41.702" gradientUnits="userSpaceOnUse"><stop stop-color="#843561" stop-opacity="0"/><stop offset="1" stop-color="#3A2F4D"/></linearGradient><linearGradient id="bpaint20_linear_4662:40693" x1="48.107" y1="42.527" x2="42.487" y2="48.147" gradientUnits="userSpaceOnUse"><stop stop-color="#FFE0EA"/><stop offset="1" stop-color="#FFC0D5"/></linearGradient><linearGradient id="bpaint21_linear_4662:40693" x1="46.196" y1="36.441" x2="26.686" y2="36.441" gradientUnits="userSpaceOnUse"><stop stop-color="#FFCE47"/><stop offset="1" stop-color="#FF9356"/></linearGradient><linearGradient id="bpaint22_linear_4662:40693" x1="34.3" y1="38.965" x2="39.974" y2="33.291" gradientUnits="userSpaceOnUse"><stop stop-color="#FFCE47"/><stop offset="1" stop-color="#FF9356"/></linearGradient><linearGradient id="bpaint23_linear_4662:40693" x1="48.267" y1="47.968" x2="46.833" y2="49.402" gradientUnits="userSpaceOnUse"><stop stop-color="#2F73A0"/><stop offset="1" stop-color="#174461"/></linearGradient><linearGradient id="bpaint24_linear_4662:40693" x1="26.026" y1="8.508" x2="33.975" y2="8.508" gradientUnits="userSpaceOnUse"><stop stop-color="#FFE0EA"/><stop offset="1" stop-color="#FFC0D5"/></linearGradient><linearGradient id="bpaint25_linear_4662:40693" x1="23.092" y1="14.07" x2="36.886" y2="27.864" gradientUnits="userSpaceOnUse"><stop stop-color="#FFCE47"/><stop offset="1" stop-color="#FF9356"/></linearGradient><linearGradient id="bpaint26_linear_4662:40693" x1="33.287" y1="20.697" x2="25.263" y2="20.697" gradientUnits="userSpaceOnUse"><stop stop-color="#FFCE47"/><stop offset="1" stop-color="#FF9356"/></linearGradient><linearGradient id="bpaint27_linear_4662:40693" x1="29.76" y1="4.4" x2="31.788" y2="4.4" gradientUnits="userSpaceOnUse"><stop stop-color="#2F73A0"/><stop offset="1" stop-color="#174461"/></linearGradient><linearGradient id="bpaint28_linear_4662:40693" x1="28.508" y1="28.508" x2="34.281" y2="34.281" gradientUnits="userSpaceOnUse"><stop stop-color="#FF755C"/><stop offset="1" stop-color="#FF4181"/></linearGradient></defs></svg></svg>