<svg width="1443" height="746" viewBox="0 0 1443 746" fill="none" xmlns="http://www.w3.org/2000/svg">
<path d="M1322.66 144.625C1322.66 144.625 1235.75 20.7988 1043.84 2.44633C851.932 -15.9061 718.16 73.5359 576.849 119.417C502.887 143.426 418.399 134.094 339.885 145.72C88.7684 182.894 -5.71145 415.793 98.8671 548.248C189.4 662.951 348.704 722.544 591.321 736.308C833.939 750.073 1004.12 766.105 1221.42 653.749C1438.72 541.392 1424.18 307.451 1322.66 144.625Z" fill="#91F1BE" fill-opacity="0.3"/>
<path d="M1388.39 423.314C1387.61 423.029 1311.12 393.585 1309.04 392.83C1306.97 392.075 1300.39 389.678 1298.45 385.546C1296.51 381.415 1293.36 369.972 1293.28 369.489C1293.24 369.348 1293.24 369.202 1293.26 369.058C1293.28 368.915 1293.33 368.778 1293.41 368.654L1343.71 292.653C1343.86 292.43 1344.09 292.275 1344.35 292.221C1344.62 292.167 1344.89 292.219 1345.11 292.365C1345.22 292.436 1345.32 292.529 1345.4 292.639C1345.47 292.748 1345.53 292.872 1345.55 293.002C1345.58 293.133 1345.58 293.267 1345.55 293.398C1345.53 293.528 1345.47 293.652 1345.4 293.762L1295.38 369.394C1296 371.6 1298.82 381.415 1300.31 384.695C1301.81 387.976 1307.8 390.222 1309.76 390.936C1311.71 391.649 1379.49 417.722 1388.27 421.095L1440.3 325.604C1440.42 325.365 1440.64 325.186 1440.9 325.107C1441.16 325.027 1441.44 325.054 1441.68 325.181C1441.92 325.309 1442.1 325.526 1442.18 325.785C1442.26 326.044 1442.23 326.324 1442.1 326.563L1389.68 422.856C1389.56 423.079 1389.36 423.25 1389.12 423.335C1388.89 423.419 1388.62 423.412 1388.39 423.314Z" fill="#263238"/>
<path d="M1366.62 284.523L1360.33 282.102C1360.08 282.005 1359.88 281.812 1359.76 281.566C1359.65 281.32 1359.64 281.04 1359.73 280.786C1359.85 280.549 1360.04 280.359 1360.28 280.253C1360.52 280.147 1360.79 280.131 1361.04 280.208L1367.35 282.636C1367.6 282.728 1367.81 282.916 1367.92 283.159C1368.04 283.403 1368.05 283.681 1367.96 283.933C1367.86 284.185 1367.68 284.39 1367.43 284.504C1367.19 284.617 1366.91 284.629 1366.66 284.537L1366.62 284.523Z" fill="#263238"/>
<path d="M1297.56 373.053C1297.31 372.961 1297.1 372.773 1296.99 372.529C1296.88 372.286 1296.86 372.008 1296.96 371.756C1297.05 371.504 1297.24 371.298 1297.48 371.185C1297.72 371.072 1298 371.06 1298.25 371.152L1381.53 401.193L1434.41 310.623L1374.33 287.484C1374.09 287.388 1373.89 287.199 1373.78 286.958C1373.67 286.717 1373.66 286.443 1373.75 286.194C1373.86 285.956 1374.06 285.767 1374.3 285.658C1374.54 285.549 1374.81 285.527 1375.06 285.596L1436.24 309.156C1436.37 309.211 1436.5 309.295 1436.6 309.403C1436.7 309.511 1436.78 309.64 1436.83 309.781C1436.87 309.918 1436.89 310.062 1436.88 310.206C1436.87 310.35 1436.83 310.49 1436.76 310.618L1382.84 402.965C1382.73 403.171 1382.54 403.329 1382.32 403.41C1382.1 403.491 1381.85 403.489 1381.63 403.405L1297.55 373.091L1297.56 373.053Z" fill="#263238"/>
<path d="M1386.01 416.974L1306.24 385.583C1305.98 385.468 1305.78 385.264 1305.67 385.01L1301.56 374.897C1301.45 374.652 1301.44 374.375 1301.53 374.123C1301.62 373.871 1301.81 373.664 1302.05 373.547C1302.17 373.49 1302.3 373.458 1302.43 373.451C1302.56 373.445 1302.69 373.465 1302.82 373.51C1302.94 373.555 1303.06 373.625 1303.15 373.714C1303.25 373.804 1303.33 373.912 1303.38 374.032L1307.35 383.706L1385.89 414.628L1432 332.768L1429.12 322.305C1429.08 322.178 1429.06 322.043 1429.08 321.91C1429.09 321.776 1429.13 321.647 1429.2 321.53C1429.26 321.412 1429.35 321.31 1429.45 321.227C1429.56 321.145 1429.68 321.085 1429.81 321.051C1429.94 321.015 1430.07 321.005 1430.21 321.022C1430.34 321.038 1430.47 321.081 1430.58 321.147C1430.7 321.214 1430.8 321.302 1430.88 321.408C1430.96 321.514 1431.02 321.635 1431.06 321.764L1434.19 332.791C1434.26 333.054 1434.22 333.334 1434.08 333.568L1387.34 416.557C1387.22 416.785 1387.01 416.956 1386.76 417.034C1386.51 417.112 1386.24 417.09 1386.01 416.974Z" fill="#263238"/>
<path d="M1314.96 384.044L1326.61 388.291C1326.61 388.291 1321.35 396.838 1317.16 405.198C1312.97 413.558 1308.43 424.59 1308.43 424.59L1306.25 409.473L1294.08 417.164L1314.96 384.044Z" fill="#263238"/>
<path d="M1322.87 229.687C1322.73 229.619 1322.62 229.521 1322.52 229.401C1322.43 229.281 1322.36 229.142 1322.33 228.994L1311.33 175.948L1270.31 129.407C1270.2 129.288 1270.12 129.143 1270.08 128.985C1270.04 128.828 1270.04 128.662 1270.08 128.505C1270.12 128.347 1270.19 128.201 1270.3 128.078C1270.4 127.955 1270.53 127.859 1270.68 127.798L1321.57 107.076C1321.69 107.024 1321.83 106.998 1321.96 107C1322.1 107.001 1322.23 107.03 1322.36 107.085C1322.48 107.138 1322.59 107.215 1322.68 107.311C1322.77 107.407 1322.84 107.52 1322.89 107.644L1324.05 110.653C1324.11 110.893 1324.08 111.146 1323.97 111.364C1323.85 111.583 1323.66 111.752 1323.43 111.84C1323.2 111.929 1322.95 111.929 1322.71 111.842C1322.48 111.756 1322.29 111.587 1322.18 111.369L1321.39 109.337L1272.76 129.136L1312.96 174.777C1313.07 174.917 1313.15 175.078 1313.2 175.25L1323.99 227.273L1366.03 206.153L1366.06 204.483C1366.06 204.349 1366.09 204.217 1366.14 204.094C1366.2 203.972 1366.27 203.861 1366.37 203.768C1366.47 203.675 1366.58 203.601 1366.7 203.552C1366.83 203.503 1366.96 203.479 1367.09 203.481C1367.23 203.483 1367.36 203.511 1367.48 203.564C1367.61 203.617 1367.72 203.694 1367.81 203.789C1367.9 203.885 1367.98 203.999 1368.02 204.123C1368.07 204.247 1368.1 204.38 1368.1 204.513L1368.06 206.804C1368.06 206.99 1368 207.172 1367.9 207.33C1367.8 207.488 1367.66 207.615 1367.5 207.697L1323.72 229.672C1323.58 229.734 1323.44 229.768 1323.3 229.77C1323.15 229.773 1323.01 229.744 1322.87 229.687Z" fill="#263238"/>
<path d="M1317.23 172.477C1317.11 172.453 1317 172.411 1316.89 172.352C1316.74 172.22 1316.64 172.048 1316.58 171.857C1316.53 171.666 1316.53 171.464 1316.59 171.275C1316.72 170.933 1319.32 162.427 1311.23 159.757C1302.15 156.664 1291.27 146.025 1286 140.982L1285.43 140.428C1282.29 137.38 1279.4 134.094 1276.78 130.599C1276.69 130.475 1276.62 130.331 1276.6 130.18C1276.57 130.028 1276.58 129.872 1276.62 129.724C1276.66 129.575 1276.74 129.437 1276.85 129.322C1276.95 129.208 1277.08 129.119 1277.23 129.063L1325.87 109.162C1326.1 109.086 1326.34 109.089 1326.56 109.169C1326.78 109.25 1326.97 109.404 1327.09 109.606C1332.51 117.311 1339.54 123.751 1347.69 128.484C1359.27 134.661 1364.43 143.907 1361.49 153.198C1361.45 153.334 1361.38 153.459 1361.29 153.566C1361.19 153.672 1361.08 153.758 1360.95 153.816L1318 172.626C1317.73 172.676 1317.46 172.622 1317.23 172.477ZM1312.23 157.884C1314.62 158.703 1316.62 160.37 1317.86 162.568C1319.1 164.767 1319.49 167.344 1318.96 169.81L1359.76 152.094C1362.12 143.843 1357.42 135.903 1346.83 130.15C1338.59 125.447 1331.47 119.01 1325.96 111.284L1279.23 130.373C1281.58 133.395 1284.14 136.248 1286.88 138.913L1287.46 139.466C1292.61 144.468 1303.37 154.912 1311.93 157.773L1312.23 157.884Z" fill="#263238"/>
<path d="M1327.27 224.657C1327.04 224.572 1326.84 224.408 1326.71 224.193C1326.61 223.986 1325.64 221.994 1323.36 211.388C1321.79 203.88 1322.82 195.855 1323.7 189.433C1324.09 186.908 1324.35 184.364 1324.47 181.812C1324.48 175.871 1317.22 172.578 1317.09 172.511C1316.91 172.434 1316.76 172.307 1316.65 172.145C1316.54 171.983 1316.48 171.793 1316.48 171.598C1316.48 171.399 1316.54 171.205 1316.65 171.039C1316.76 170.874 1316.92 170.742 1317.1 170.661L1360.01 151.946C1360.23 151.852 1360.48 151.842 1360.71 151.921C1368.31 154.282 1371.02 163.108 1369.36 180.423C1367.95 195.305 1372.07 201.655 1372.12 201.713C1372.2 201.834 1372.25 201.97 1372.28 202.113C1372.3 202.255 1372.3 202.402 1372.27 202.543C1372.23 202.682 1372.16 202.811 1372.07 202.922C1371.97 203.033 1371.86 203.124 1371.73 203.188L1328.1 224.526C1327.98 224.604 1327.84 224.656 1327.7 224.678C1327.56 224.701 1327.41 224.694 1327.27 224.657ZM1319.86 171.71C1322.38 173.297 1326.56 176.671 1326.49 181.835C1326.4 184.474 1326.17 187.105 1325.77 189.715C1324.92 195.997 1323.89 203.804 1325.42 210.996C1326.17 214.823 1327.11 218.61 1328.25 222.341L1370.01 201.873C1368.84 199.485 1366.32 192.687 1367.48 180.275C1368.97 164.645 1366.77 156.326 1360.59 154.075L1319.86 171.71Z" fill="#263238"/>
<path d="M1312.67 173.7C1312.53 173.646 1312.4 173.562 1312.3 173.453C1312.19 173.343 1312.11 173.212 1312.06 173.069C1311.07 170.243 1309.7 167.569 1307.98 165.12C1305.66 162.262 1303.04 159.667 1300.16 157.382C1297.7 155.26 1294.92 152.846 1291.78 149.808C1291.59 149.621 1291.48 149.366 1291.48 149.098C1291.48 148.83 1291.58 148.572 1291.77 148.38C1291.86 148.283 1291.97 148.205 1292.09 148.152C1292.21 148.098 1292.34 148.069 1292.48 148.068C1292.61 148.066 1292.74 148.091 1292.87 148.142C1292.99 148.192 1293.1 148.267 1293.19 148.362C1296.29 151.341 1299.05 153.748 1301.47 155.857C1304.49 158.238 1307.23 160.955 1309.63 163.956C1311.46 166.562 1312.93 169.402 1314.01 172.399C1314.09 172.658 1314.06 172.938 1313.94 173.179C1313.81 173.42 1313.6 173.602 1313.34 173.687C1313.13 173.768 1312.89 173.773 1312.67 173.7Z" fill="#263238"/>
<path d="M1324.09 223.154C1323.94 223.098 1323.8 223.007 1323.69 222.888C1323.58 222.769 1323.5 222.626 1323.46 222.471C1320.36 212.073 1319 201.237 1319.42 190.397C1319.45 189.501 1319.45 188.663 1319.47 187.914C1319.28 184.265 1317.77 180.809 1315.21 178.201C1315.1 178.114 1315 178.005 1314.94 177.88C1314.87 177.755 1314.83 177.617 1314.82 177.475C1314.81 177.333 1314.82 177.191 1314.87 177.057C1314.92 176.923 1315 176.801 1315.09 176.698C1315.19 176.595 1315.31 176.515 1315.44 176.461C1315.58 176.407 1315.72 176.382 1315.86 176.387C1316 176.391 1316.14 176.426 1316.27 176.488C1316.4 176.55 1316.51 176.639 1316.6 176.748C1319.59 179.716 1321.34 183.71 1321.49 187.919C1321.49 188.693 1321.46 189.525 1321.44 190.421C1321.02 201.097 1322.35 211.77 1325.39 222.012C1325.43 222.139 1325.44 222.272 1325.42 222.403C1325.41 222.534 1325.36 222.661 1325.3 222.775C1325.23 222.889 1325.14 222.99 1325.04 223.07C1324.93 223.15 1324.81 223.208 1324.69 223.241C1324.48 223.28 1324.28 223.249 1324.09 223.154Z" fill="#263238"/>
<path d="M1348.42 154.313C1348.21 154.234 1348.03 154.088 1347.92 153.897C1347.8 153.706 1347.75 153.481 1347.77 153.258C1348.3 147.614 1344.48 141.849 1334.54 133.361C1328.95 128.689 1323.64 123.703 1318.62 118.428C1318.52 118.331 1318.44 118.215 1318.39 118.087C1318.33 117.959 1318.31 117.821 1318.31 117.682C1318.31 117.543 1318.34 117.407 1318.4 117.281C1318.46 117.155 1318.54 117.042 1318.65 116.949C1318.75 116.857 1318.87 116.786 1319 116.742C1319.13 116.699 1319.27 116.682 1319.41 116.695C1319.55 116.707 1319.68 116.748 1319.81 116.814C1319.93 116.88 1320.03 116.971 1320.12 117.08C1325.08 122.281 1330.33 127.204 1335.83 131.829C1346.36 140.768 1350.4 147.045 1349.8 153.436C1349.78 153.569 1349.74 153.697 1349.68 153.815C1349.62 153.932 1349.53 154.036 1349.43 154.121C1349.33 154.206 1349.21 154.269 1349.08 154.308C1348.96 154.346 1348.82 154.36 1348.69 154.346L1348.42 154.313Z" fill="#263238"/>
<path d="M1340.84 158.034C1340.63 157.957 1340.46 157.814 1340.34 157.627C1340.22 157.44 1340.16 157.219 1340.18 156.998C1340.72 151.335 1336.89 145.589 1326.95 137.101C1321.37 132.419 1316.06 127.427 1311.04 122.149C1310.94 122.052 1310.86 121.936 1310.8 121.807C1310.75 121.679 1310.73 121.541 1310.73 121.403C1310.73 121.264 1310.76 121.127 1310.82 121.001C1310.88 120.875 1310.96 120.762 1311.07 120.67C1311.17 120.577 1311.29 120.507 1311.42 120.463C1311.55 120.419 1311.69 120.403 1311.83 120.415C1311.97 120.428 1312.1 120.468 1312.22 120.535C1312.35 120.601 1312.45 120.692 1312.54 120.801C1317.5 126.013 1322.75 130.94 1328.27 135.556C1338.77 144.508 1342.82 150.766 1342.21 157.157C1342.2 157.29 1342.17 157.42 1342.11 157.539C1342.04 157.658 1341.96 157.763 1341.86 157.848C1341.75 157.933 1341.63 157.997 1341.5 158.034C1341.38 158.072 1341.24 158.083 1341.11 158.067C1341.02 158.076 1340.93 158.065 1340.84 158.034Z" fill="#263238"/>
<path d="M1333.26 161.756C1333.06 161.679 1332.88 161.536 1332.76 161.349C1332.64 161.162 1332.59 160.941 1332.61 160.72C1333.14 155.057 1329.31 149.311 1319.38 140.823C1313.79 136.151 1308.47 131.165 1303.45 125.89C1303.36 125.791 1303.29 125.675 1303.25 125.549C1303.2 125.423 1303.18 125.289 1303.19 125.156C1303.2 125.022 1303.23 124.891 1303.29 124.77C1303.35 124.65 1303.43 124.541 1303.53 124.452C1303.62 124.362 1303.74 124.292 1303.87 124.248C1303.99 124.203 1304.13 124.183 1304.26 124.19C1304.39 124.196 1304.52 124.229 1304.64 124.286C1304.77 124.344 1304.87 124.424 1304.96 124.523C1309.92 129.736 1315.17 134.662 1320.69 139.279C1331.19 148.23 1335.25 154.488 1334.63 160.898C1334.62 161.031 1334.58 161.159 1334.52 161.277C1334.46 161.394 1334.37 161.498 1334.27 161.583C1334.17 161.668 1334.05 161.731 1333.92 161.77C1333.79 161.808 1333.66 161.821 1333.53 161.808L1333.26 161.756Z" fill="#263238"/>
<path d="M1325.67 165.495C1325.46 165.416 1325.29 165.269 1325.17 165.078C1325.05 164.887 1325 164.663 1325.02 164.44C1325.55 158.795 1321.73 153.031 1311.79 144.543C1306.21 139.87 1300.89 134.885 1295.87 129.609C1295.69 129.407 1295.6 129.144 1295.61 128.875C1295.63 128.607 1295.74 128.354 1295.94 128.171C1296.14 127.998 1296.41 127.909 1296.67 127.922C1296.94 127.935 1297.19 128.05 1297.38 128.243C1302.33 133.463 1307.58 138.39 1313.11 142.998C1323.61 151.95 1327.65 158.226 1327.05 164.617C1327.04 164.75 1327 164.879 1326.93 164.996C1326.87 165.114 1326.79 165.218 1326.68 165.302C1326.58 165.387 1326.46 165.45 1326.33 165.489C1326.21 165.528 1326.07 165.541 1325.94 165.528L1325.67 165.495Z" fill="#263238"/>
<path d="M1360.5 202.716C1354.22 199.93 1354.29 184.665 1355.45 172.362C1356.15 164.949 1351.17 162.423 1350.95 162.321C1350.71 162.202 1350.53 161.993 1350.44 161.74C1350.36 161.487 1350.38 161.21 1350.5 160.971C1350.61 160.734 1350.82 160.552 1351.07 160.462C1351.32 160.373 1351.59 160.382 1351.83 160.489C1352.12 160.593 1358.32 163.671 1357.48 172.539C1355.95 188.545 1357.4 199.129 1361.31 200.856C1361.43 200.909 1361.54 200.986 1361.64 201.081C1361.73 201.177 1361.8 201.29 1361.85 201.414C1361.9 201.538 1361.92 201.67 1361.92 201.803C1361.92 201.936 1361.89 202.068 1361.84 202.19C1361.73 202.433 1361.53 202.624 1361.28 202.722C1361.03 202.82 1360.75 202.818 1360.5 202.716Z" fill="#263238"/>
<path d="M1351.67 207.984C1351.5 207.924 1351.34 207.816 1351.23 207.671C1346.07 201.485 1344.09 192.148 1345.19 180.253C1346.12 170.491 1341.96 166.323 1341.91 166.284C1341.75 166.093 1341.66 165.849 1341.67 165.6C1341.68 165.351 1341.78 165.114 1341.95 164.934C1342.12 164.754 1342.36 164.644 1342.6 164.625C1342.85 164.606 1343.1 164.679 1343.3 164.831C1343.54 164.921 1348.25 169.609 1347.21 180.45C1346.13 191.878 1348.01 200.598 1352.83 206.403C1353 206.609 1353.08 206.873 1353.06 207.138C1353.03 207.404 1352.91 207.649 1352.7 207.82C1352.56 207.937 1352.39 208.013 1352.21 208.042C1352.03 208.07 1351.84 208.051 1351.67 207.984Z" fill="#263238"/>
<path d="M1343.63 210.547C1343.42 210.475 1343.23 210.324 1343.12 210.123C1337.71 201.325 1338.45 187.076 1338.99 181.33C1339.32 178.964 1338.98 176.553 1338.01 174.369C1337.05 172.184 1335.49 170.31 1333.52 168.958C1333.29 168.822 1333.13 168.601 1333.06 168.342C1332.99 168.084 1333.03 167.809 1333.17 167.578C1333.3 167.348 1333.52 167.179 1333.78 167.109C1334.04 167.038 1334.32 167.071 1334.55 167.201C1336.86 168.748 1338.68 170.91 1339.83 173.442C1340.97 175.974 1341.37 178.774 1341.01 181.527C1339.91 193.038 1341.35 203.339 1344.84 209.069C1344.91 209.183 1344.96 209.311 1344.98 209.444C1345 209.577 1345 209.712 1344.97 209.843C1344.93 209.974 1344.88 210.097 1344.8 210.206C1344.72 210.314 1344.62 210.406 1344.5 210.475C1344.37 210.553 1344.23 210.6 1344.08 210.613C1343.93 210.625 1343.77 210.603 1343.63 210.547Z" fill="#263238"/>
<path d="M1336.05 214.286C1335.9 214.231 1335.78 214.146 1335.67 214.037C1335.57 213.928 1335.49 213.797 1335.44 213.654C1332.45 203.693 1331.14 193.302 1331.56 182.91C1331.86 174.404 1327.37 172.36 1327.18 172.29C1326.93 172.183 1326.74 171.983 1326.64 171.732C1326.53 171.481 1326.53 171.201 1326.64 170.95C1326.68 170.822 1326.75 170.705 1326.84 170.606C1326.93 170.508 1327.05 170.43 1327.17 170.38C1327.3 170.329 1327.43 170.306 1327.57 170.312C1327.7 170.319 1327.83 170.354 1327.95 170.417C1328.2 170.507 1333.96 172.971 1333.58 182.979C1333.19 193.126 1334.46 203.269 1337.33 213.009C1337.41 213.264 1337.39 213.541 1337.26 213.779C1337.14 214.017 1336.93 214.196 1336.67 214.278C1336.47 214.345 1336.25 214.348 1336.05 214.286Z" fill="#263238"/>
<path d="M1312.49 606.933C1312.37 606.919 1312.25 606.876 1312.15 606.808L1262.2 562.076C1262.08 561.971 1261.98 561.838 1261.93 561.69C1261.87 561.541 1261.85 561.38 1261.86 561.221C1261.88 561.064 1261.94 560.913 1262.02 560.78C1262.11 560.647 1262.22 560.536 1262.36 560.454L1271.27 555.087C1271.46 554.977 1271.68 554.932 1271.9 554.957C1272.12 554.983 1272.33 555.078 1272.49 555.229L1316.44 597.972L1360.88 558.168C1361.04 558.037 1361.23 557.954 1361.44 557.929C1361.64 557.904 1361.85 557.938 1362.03 558.027L1368.67 561.61C1368.82 561.683 1368.94 561.789 1369.03 561.92C1369.12 562.051 1369.18 562.202 1369.2 562.361C1369.22 562.521 1369.2 562.685 1369.14 562.837C1369.09 562.989 1369 563.126 1368.88 563.235L1323.04 606.278C1322.85 606.463 1322.59 606.563 1322.32 606.556C1322.05 606.548 1321.79 606.434 1321.6 606.238C1321.42 606.042 1321.32 605.78 1321.33 605.51C1321.33 605.24 1321.45 604.984 1321.64 604.799L1366.44 562.713L1361.67 560.136L1317.16 600.021C1316.97 600.189 1316.72 600.279 1316.46 600.273C1316.2 600.267 1315.96 600.166 1315.77 599.989L1271.71 557.141L1264.61 561.489L1313.58 605.177C1313.78 605.359 1313.89 605.609 1313.91 605.876C1313.93 606.142 1313.84 606.405 1313.66 606.607C1313.53 606.779 1313.34 606.903 1313.13 606.962C1312.92 607.021 1312.69 607.01 1312.49 606.933Z" fill="#263238"/>
<path d="M1316.12 600.267C1315.91 600.195 1315.73 600.056 1315.61 599.871C1315.48 599.686 1315.43 599.465 1315.44 599.243L1322.82 511.069L1287.43 476.917L1274.84 551.908C1274.79 552.171 1274.65 552.405 1274.43 552.56C1274.21 552.715 1273.94 552.777 1273.68 552.733C1273.41 552.688 1273.18 552.54 1273.03 552.322C1272.87 552.105 1272.81 551.834 1272.85 551.571L1285.78 474.702C1285.81 474.519 1285.89 474.348 1286 474.208C1286.12 474.068 1286.28 473.966 1286.46 473.914C1286.63 473.855 1286.82 473.844 1287 473.883C1287.18 473.922 1287.34 474.009 1287.48 474.134L1324.58 509.965C1324.69 510.068 1324.77 510.193 1324.83 510.332C1324.88 510.471 1324.9 510.619 1324.89 510.768L1317.4 599.374C1317.37 599.64 1317.24 599.885 1317.03 600.059C1316.83 600.233 1316.57 600.323 1316.3 600.31L1316.12 600.267Z" fill="#263238"/>
<path d="M1262.61 562.183C1262.39 562.103 1262.2 561.944 1262.08 561.735C1261.96 561.525 1261.92 561.28 1261.97 561.045L1275.28 486.209C1275.31 486.026 1275.37 485.851 1275.47 485.696L1285.95 474.201C1286.13 474.033 1286.38 473.94 1286.63 473.941C1286.88 473.942 1287.12 474.036 1287.31 474.206C1287.49 474.376 1287.61 474.609 1287.63 474.859C1287.66 475.11 1287.59 475.36 1287.43 475.561L1277.15 486.888L1263.86 561.475C1263.84 561.607 1263.79 561.733 1263.72 561.845C1263.64 561.958 1263.55 562.055 1263.44 562.131C1263.33 562.207 1263.21 562.261 1263.08 562.289C1262.95 562.317 1262.81 562.319 1262.68 562.294L1262.61 562.183Z" fill="#263238"/>
<path d="M1360.45 552.133C1360.25 552.057 1360.08 551.92 1359.96 551.741C1359.84 551.562 1359.78 551.35 1359.78 551.135L1362.19 480.465L1324.57 511.489C1324.36 511.654 1324.09 511.73 1323.83 511.701C1323.57 511.673 1323.32 511.542 1323.16 511.336C1322.99 511.131 1322.91 510.868 1322.93 510.604C1322.96 510.34 1323.08 510.095 1323.28 509.924L1362.63 477.482C1362.78 477.356 1362.96 477.277 1363.16 477.256C1363.36 477.235 1363.55 477.273 1363.73 477.365C1363.9 477.451 1364.05 477.585 1364.15 477.751C1364.25 477.917 1364.3 478.108 1364.29 478.302L1361.81 551.204C1361.8 551.337 1361.77 551.469 1361.72 551.591C1361.67 551.713 1361.59 551.823 1361.49 551.914C1361.39 552.005 1361.28 552.076 1361.15 552.121C1361.03 552.167 1360.89 552.187 1360.76 552.18L1360.45 552.133Z" fill="#263238"/>
<path d="M1367.9 563.437C1367.69 563.367 1367.52 563.234 1367.4 563.058C1367.28 562.882 1367.21 562.672 1367.22 562.458L1369.93 481.843L1362.84 479.259C1362.59 479.167 1362.38 478.979 1362.27 478.736C1362.15 478.493 1362.14 478.214 1362.23 477.962C1362.33 477.713 1362.53 477.513 1362.77 477.402C1363.02 477.291 1363.3 477.278 1363.55 477.365L1371.33 480.198C1371.52 480.274 1371.69 480.41 1371.81 480.588C1371.93 480.766 1371.99 480.977 1371.98 481.189L1369.24 562.527C1369.24 562.661 1369.21 562.792 1369.15 562.915C1369.1 563.037 1369.02 563.147 1368.92 563.238C1368.83 563.329 1368.71 563.399 1368.59 563.445C1368.46 563.491 1368.33 563.51 1368.19 563.503L1367.9 563.437Z" fill="#263238"/>
<path d="M1321.77 570.6C1321.6 570.542 1321.45 570.435 1321.34 570.293C1321.17 570.088 1321.09 569.825 1321.11 569.559C1321.13 569.294 1321.25 569.046 1321.45 568.869L1352.49 542.79C1352.69 542.621 1352.96 542.539 1353.22 542.559C1353.49 542.579 1353.74 542.702 1353.91 542.9C1354.08 543.11 1354.16 543.377 1354.14 543.645C1354.12 543.914 1354 544.164 1353.8 544.344L1322.66 570.388C1322.54 570.491 1322.4 570.564 1322.24 570.601C1322.08 570.638 1321.92 570.638 1321.77 570.6Z" fill="#263238"/>
<path d="M1323.82 555.068C1323.65 555.012 1323.5 554.905 1323.4 554.762C1323.22 554.558 1323.14 554.294 1323.16 554.027C1323.18 553.76 1323.3 553.512 1323.51 553.337L1354.63 527.312C1354.73 527.211 1354.85 527.132 1354.98 527.079C1355.12 527.027 1355.26 527.003 1355.4 527.009C1355.54 527.014 1355.68 527.049 1355.8 527.112C1355.93 527.175 1356.04 527.263 1356.14 527.372C1356.23 527.481 1356.29 527.607 1356.33 527.743C1356.37 527.88 1356.38 528.022 1356.36 528.162C1356.34 528.303 1356.29 528.437 1356.22 528.557C1356.14 528.677 1356.04 528.78 1355.92 528.859L1324.88 554.937C1324.74 555.056 1324.56 555.131 1324.37 555.154C1324.19 555.177 1324 555.147 1323.82 555.068Z" fill="#263238"/>
<path d="M1325.86 539.569C1325.69 539.509 1325.54 539.403 1325.43 539.263C1325.34 539.162 1325.28 539.045 1325.24 538.918C1325.2 538.792 1325.18 538.659 1325.19 538.526C1325.21 538.394 1325.24 538.266 1325.31 538.149C1325.37 538.032 1325.45 537.928 1325.56 537.845L1356.69 511.801C1356.9 511.661 1357.15 511.603 1357.4 511.639C1357.65 511.674 1357.87 511.8 1358.03 511.993C1358.19 512.185 1358.28 512.43 1358.27 512.68C1358.26 512.931 1358.16 513.168 1357.98 513.348L1326.94 539.426C1326.79 539.549 1326.61 539.628 1326.42 539.653C1326.23 539.679 1326.03 539.649 1325.86 539.569Z" fill="#263238"/>
<path d="M1327.91 524.056C1327.74 523.996 1327.59 523.89 1327.48 523.75C1327.39 523.649 1327.33 523.532 1327.29 523.406C1327.25 523.279 1327.23 523.146 1327.24 523.014C1327.26 522.882 1327.29 522.753 1327.36 522.636C1327.42 522.519 1327.5 522.416 1327.61 522.332L1358.65 496.254C1358.86 496.084 1359.12 496.004 1359.39 496.029C1359.66 496.054 1359.91 496.184 1360.08 496.39C1360.17 496.49 1360.24 496.607 1360.28 496.734C1360.32 496.86 1360.33 496.993 1360.32 497.126C1360.31 497.258 1360.27 497.386 1360.21 497.503C1360.14 497.62 1360.06 497.724 1359.95 497.807L1328.82 523.851C1328.7 523.956 1328.55 524.03 1328.39 524.066C1328.23 524.102 1328.06 524.098 1327.91 524.056Z" fill="#263238"/>
<path d="M1312.24 567.237C1312.11 567.186 1311.99 567.106 1311.9 567.003L1285.38 541.425C1285.28 541.334 1285.2 541.224 1285.15 541.102C1285.1 540.98 1285.07 540.848 1285.07 540.715C1285.06 540.582 1285.09 540.45 1285.14 540.326C1285.19 540.203 1285.26 540.091 1285.36 539.997C1285.45 539.9 1285.56 539.822 1285.68 539.768C1285.8 539.713 1285.94 539.684 1286.07 539.68C1286.2 539.677 1286.34 539.7 1286.46 539.748C1286.58 539.796 1286.7 539.868 1286.79 539.96L1313.29 565.55C1313.52 565.692 1313.69 565.922 1313.75 566.188C1313.82 566.453 1313.77 566.734 1313.63 566.968C1313.49 567.202 1313.26 567.369 1312.99 567.434C1312.73 567.499 1312.45 567.455 1312.21 567.313L1312.24 567.237Z" fill="#263238"/>
<path d="M1315.84 553.062C1315.7 553.035 1315.58 552.989 1315.46 552.923L1288.96 527.288C1288.85 527.198 1288.77 527.088 1288.71 526.963C1288.65 526.839 1288.62 526.704 1288.61 526.566C1288.6 526.428 1288.63 526.29 1288.67 526.161C1288.72 526.032 1288.8 525.914 1288.9 525.815C1288.99 525.717 1289.11 525.639 1289.24 525.586C1289.36 525.534 1289.5 525.508 1289.64 525.51C1289.78 525.513 1289.91 525.543 1290.04 525.601C1290.16 525.658 1290.28 525.74 1290.37 525.842L1316.87 551.413C1317.1 551.555 1317.27 551.785 1317.33 552.051C1317.4 552.316 1317.36 552.597 1317.21 552.831C1317.07 553.065 1316.84 553.232 1316.58 553.297C1316.31 553.362 1316.03 553.318 1315.8 553.176L1315.84 553.062Z" fill="#263238"/>
<path d="M1315.23 536.861C1315.1 536.811 1314.98 536.731 1314.89 536.628L1288.37 511.05C1288.27 510.959 1288.19 510.849 1288.14 510.727C1288.09 510.605 1288.06 510.473 1288.06 510.34C1288.05 510.206 1288.08 510.074 1288.13 509.951C1288.18 509.827 1288.26 509.716 1288.35 509.622C1288.44 509.525 1288.55 509.447 1288.67 509.392C1288.8 509.338 1288.93 509.308 1289.06 509.305C1289.19 509.301 1289.33 509.324 1289.45 509.372C1289.58 509.42 1289.69 509.493 1289.79 509.585L1316.28 535.175C1316.37 535.266 1316.45 535.376 1316.51 535.498C1316.56 535.62 1316.59 535.751 1316.59 535.884C1316.6 536.018 1316.57 536.151 1316.53 536.275C1316.48 536.399 1316.41 536.513 1316.31 536.61C1316.18 536.75 1316 536.849 1315.81 536.894C1315.62 536.938 1315.42 536.927 1315.23 536.861Z" fill="#263238"/>
<path d="M1318.17 521.585C1318.04 521.568 1317.91 521.521 1317.79 521.447L1291.29 495.831C1291.17 495.744 1291.08 495.635 1291.01 495.51C1290.95 495.385 1290.9 495.247 1290.89 495.105C1290.88 494.964 1290.9 494.821 1290.95 494.687C1291 494.553 1291.07 494.431 1291.17 494.329C1291.27 494.226 1291.39 494.145 1291.52 494.091C1291.65 494.038 1291.79 494.012 1291.94 494.017C1292.08 494.022 1292.22 494.056 1292.35 494.118C1292.47 494.181 1292.59 494.269 1292.68 494.378L1319.19 519.975C1319.29 520.066 1319.36 520.176 1319.42 520.298C1319.47 520.42 1319.5 520.551 1319.51 520.684C1319.51 520.818 1319.49 520.951 1319.44 521.075C1319.39 521.199 1319.32 521.313 1319.23 521.41C1319.08 521.53 1318.91 521.61 1318.72 521.641C1318.54 521.672 1318.35 521.653 1318.17 521.585Z" fill="#263238"/>
<path d="M67.5624 378.212C67.3949 378.256 67.2179 378.248 67.0549 378.19C66.8918 378.132 66.7503 378.026 66.6491 377.886C66.5109 377.699 66.4518 377.465 66.4843 377.235C66.5168 377.005 66.6385 376.797 66.8231 376.655L106.243 347.893C106.513 345.089 106.634 342.273 106.605 339.456C106.507 338.222 105.327 336.633 103.118 334.765C102.267 334.046 73.8014 309.094 69.2054 305.081L25.1632 343.415C25.0789 343.492 24.9799 343.552 24.8721 343.59C24.7643 343.629 24.6499 343.646 24.5355 343.639C24.4212 343.633 24.3093 343.604 24.2065 343.554C24.1036 343.504 24.0119 343.434 23.9367 343.348C23.8589 343.262 23.7991 343.161 23.761 343.052C23.7229 342.942 23.7071 342.826 23.7146 342.71C23.7222 342.594 23.7528 342.481 23.8048 342.377C23.8568 342.273 23.929 342.181 24.0174 342.105L68.635 303.265C68.7957 303.128 68.9999 303.053 69.2113 303.052C69.4227 303.051 69.6274 303.125 69.7891 303.26C70.1337 303.55 103.366 332.688 104.242 333.437C105.91 334.812 108.162 336.993 108.352 339.3C108.543 341.608 107.988 348.152 107.959 348.393C107.948 348.52 107.911 348.643 107.849 348.755C107.787 348.867 107.702 348.964 107.6 349.041L67.8588 378.029C67.7746 378.111 67.6734 378.173 67.5624 378.212Z" fill="#263238"/>
<path d="M57.1375 381.307C56.9997 381.341 56.8559 381.34 56.7183 381.306C56.5807 381.272 56.4535 381.206 56.3476 381.112L53.607 378.714C53.4315 378.56 53.3244 378.344 53.3093 378.111C53.2942 377.879 53.3723 377.65 53.5265 377.475C53.6806 377.3 53.8982 377.193 54.1313 377.178C54.3644 377.163 54.5939 377.24 54.7694 377.394L57.5143 379.808C57.6817 379.963 57.7828 380.177 57.797 380.404C57.8112 380.631 57.7373 380.855 57.5906 381.03C57.4705 381.165 57.3127 381.262 57.1375 381.307Z" fill="#263238"/>
<path d="M51.0492 375.964C50.9114 375.997 50.7676 375.997 50.63 375.963C50.4924 375.929 50.3652 375.862 50.2593 375.768L23.6914 352.457C23.5974 352.374 23.5224 352.272 23.4715 352.158C23.4206 352.044 23.395 351.92 23.3964 351.795C23.4002 351.669 23.4306 351.545 23.4858 351.432C23.541 351.319 23.6197 351.219 23.7167 351.138L68.3506 314.632C68.5068 314.499 68.7059 314.426 68.9116 314.426C69.1172 314.427 69.3157 314.501 69.4708 314.636L106.367 345.614C106.542 345.764 106.652 345.976 106.673 346.205C106.695 346.435 106.626 346.664 106.481 346.844C106.406 346.931 106.315 347.004 106.212 347.056C106.109 347.109 105.997 347.141 105.882 347.15C105.767 347.159 105.651 347.145 105.541 347.11C105.432 347.074 105.33 347.017 105.242 346.942L68.8869 316.385L25.5563 351.84L51.3582 374.482C51.5283 374.638 51.63 374.853 51.6411 375.083C51.6522 375.313 51.5718 375.537 51.4175 375.708C51.3208 375.826 51.1933 375.914 51.0492 375.964Z" fill="#263238"/>
<path d="M104.082 345.006L103.912 345.049C103.682 345.056 103.458 344.973 103.287 344.819C103.117 344.664 103.013 344.45 102.997 344.22L102.826 338.724L69.2093 308.713L30.8882 341.153L30.4325 346.952C30.4093 347.182 30.2968 347.394 30.1191 347.544C29.9413 347.693 29.7122 347.767 29.4804 347.751C29.2514 347.731 29.0395 347.623 28.8904 347.448C28.7413 347.274 28.6671 347.048 28.6839 346.82L29.1723 340.653C29.1905 340.423 29.2978 340.208 29.4716 340.055L68.7237 306.876C68.8851 306.737 69.092 306.661 69.3053 306.663C69.5187 306.665 69.7238 306.745 69.8821 306.888L104.405 337.694C104.496 337.768 104.569 337.861 104.621 337.966C104.673 338.07 104.701 338.185 104.705 338.302L104.898 344.17C104.89 344.385 104.802 344.589 104.651 344.744C104.5 344.898 104.298 344.992 104.082 345.006Z" fill="#263238"/>
<path d="M99.3963 337.023L94.2901 332.707C94.2901 332.707 98.573 329.39 102.257 325.919C105.941 322.449 110.309 317.761 110.309 317.761L108.583 325.807L116.169 324.188L99.3963 337.023Z" fill="#263238"/>
<path d="M127.126 501.654L127.024 501.68C126.884 501.693 126.742 501.672 126.61 501.622C126.478 501.571 126.36 501.491 126.264 501.388L80.1816 450.134C80.0437 449.943 79.9838 449.708 80.0139 449.475C80.0321 449.244 80.1394 449.03 80.3132 448.877L83.3935 446.297C83.5703 446.165 83.7906 446.104 84.0103 446.127C84.2299 446.15 84.4326 446.255 84.5776 446.421C84.7227 446.587 84.7993 446.801 84.7922 447.021C84.7851 447.241 84.6948 447.45 84.5393 447.607L82.1574 449.668L126.813 499.36L164.156 432.079C164.226 431.951 164.33 431.843 164.456 431.769L221.93 396.771L178.615 355.606L176.385 356.352C176.276 356.392 176.16 356.409 176.045 356.403C175.929 356.397 175.815 356.368 175.711 356.317C175.607 356.266 175.514 356.195 175.439 356.107C175.363 356.019 175.306 355.917 175.272 355.807C175.201 355.589 175.22 355.352 175.323 355.148C175.426 354.943 175.606 354.787 175.824 354.714L178.566 353.784C178.716 353.729 178.878 353.718 179.033 353.752C179.189 353.786 179.332 353.863 179.445 353.975L223.966 396.327C224.052 396.428 224.114 396.548 224.147 396.676C224.18 396.805 224.182 396.94 224.155 397.07C224.14 397.204 224.096 397.332 224.025 397.447C223.954 397.561 223.859 397.658 223.746 397.731L165.483 433.181L127.693 501.259C127.564 501.46 127.36 501.602 127.126 501.654Z" fill="#263238"/>
<path d="M125.752 493.424L125.617 493.459C125.485 493.468 125.352 493.447 125.23 493.397C125.107 493.347 124.998 493.269 124.911 493.17L80.8692 444.258C80.7317 444.109 80.6516 443.917 80.6431 443.715C80.6347 443.513 80.6985 443.314 80.8231 443.154C80.9286 443.002 91.9744 428.095 94.5467 410.68C96.9199 394.61 105.53 384.746 117.579 384.278C117.704 384.273 117.828 384.296 117.944 384.344C118.059 384.393 118.162 384.466 118.246 384.558L158.559 427.259C158.675 427.381 158.753 427.535 158.783 427.701C158.813 427.867 158.794 428.038 158.729 428.194C158.663 428.349 158.554 428.483 158.414 428.578C158.274 428.673 158.109 428.725 157.94 428.729C157.456 428.743 145.98 429.264 146.183 440.345C146.384 452.2 138.465 469.533 134.661 477.854L134.249 478.786C131.97 483.749 129.305 488.527 126.277 493.075C126.151 493.251 125.964 493.375 125.752 493.424ZM82.6152 443.599L125.409 491.155C128.125 486.965 130.534 482.585 132.617 478.049L133.03 477.117C136.804 468.965 144.643 451.815 144.384 440.37C144.215 430.413 152.353 427.844 156.051 427.194L117.228 386.022C106.304 386.653 98.4815 395.923 96.2533 410.93C93.905 426.813 84.6971 440.643 82.6152 443.599Z" fill="#263238"/>
<path d="M158.096 428.635C157.946 428.676 157.787 428.675 157.637 428.634C157.487 428.593 157.351 428.513 157.242 428.402L116.925 385.685C116.819 385.513 116.768 385.312 116.779 385.111C116.415 375.311 125.583 368.488 146.543 363.169C164.841 358.526 170.777 350.851 170.831 350.783C170.906 350.683 171.001 350.6 171.11 350.539C171.218 350.477 171.338 350.438 171.462 350.425C171.586 350.417 171.71 350.434 171.826 350.475C171.942 350.517 172.048 350.582 172.138 350.667L215.997 393.187C216.157 393.347 216.249 393.561 216.256 393.786C216.263 394.011 216.184 394.231 216.035 394.4C215.95 394.422 214.133 396.43 202.37 403.696C194.214 408.751 184.331 410.845 176.368 412.542C173.194 413.16 170.058 413.956 166.973 414.926C159.7 417.419 158.852 427.778 158.819 427.786C158.806 427.956 158.744 428.118 158.641 428.253C158.537 428.388 158.396 428.49 158.236 428.546L158.096 428.635ZM118.437 384.744L157.272 425.895C157.889 422.501 159.94 415.524 166.331 413.326C169.484 412.339 172.688 411.526 175.93 410.891C183.74 409.232 193.467 407.16 201.376 402.275C205.743 399.701 209.963 396.889 214.018 393.851L171.517 352.623C169.534 354.763 162.702 360.903 146.897 364.914C127.128 369.949 118.34 376.135 118.437 384.744Z" fill="#263238"/>
<path d="M142.204 467.775C142.015 467.827 141.815 467.814 141.635 467.74C141.423 467.642 141.258 467.465 141.175 467.247C141.093 467.029 141.1 466.788 141.194 466.574C143.426 461.656 145.101 457.382 146.578 453.608C148.113 449.077 150.156 444.734 152.67 440.659C154.952 437.421 157.676 434.514 160.762 432.023C160.852 431.953 160.955 431.902 161.065 431.872C161.175 431.842 161.29 431.834 161.403 431.849C161.516 431.864 161.625 431.901 161.723 431.958C161.822 432.015 161.908 432.092 161.976 432.183C162.115 432.367 162.176 432.599 162.147 432.828C162.117 433.057 162 433.265 161.819 433.41C158.88 435.797 156.282 438.574 154.099 441.664C151.686 445.623 149.732 449.842 148.273 454.239C146.783 458.034 145.075 462.244 142.839 467.29C142.779 467.415 142.69 467.525 142.58 467.609C142.469 467.693 142.341 467.75 142.204 467.775Z" fill="#263238"/>
<path d="M165.863 428.157C165.676 428.207 165.479 428.186 165.306 428.1C165.094 428.008 164.928 427.836 164.843 427.622C164.758 427.408 164.761 427.168 164.853 426.956C167.072 422.281 170.98 418.611 175.795 416.68L178.771 415.673C191.599 411.661 203.675 405.558 214.505 397.612C214.696 397.478 214.932 397.425 215.162 397.464C215.392 397.504 215.597 397.633 215.732 397.823C215.866 398.013 215.92 398.248 215.88 398.478C215.84 398.707 215.71 398.911 215.52 399.045C204.543 407.073 192.319 413.249 179.336 417.328L176.378 418.331C172.023 420.106 168.487 423.433 166.459 427.664C166.401 427.784 166.318 427.89 166.215 427.975C166.112 428.061 165.992 428.123 165.863 428.157Z" fill="#263238"/>
<path d="M93.715 449.325C93.5498 449.368 93.3756 449.362 93.2139 449.308C93.0522 449.254 92.91 449.153 92.805 449.019C92.6998 448.885 92.6364 448.724 92.6224 448.554C92.6085 448.385 92.6446 448.215 92.7264 448.065C96.8108 440 100.427 431.709 103.556 423.231C109.672 407.183 115.295 399.839 122.977 397.89C123.202 397.833 123.44 397.867 123.639 397.985C123.839 398.103 123.983 398.295 124.04 398.519C124.097 398.743 124.062 398.981 123.944 399.18C123.825 399.378 123.632 399.522 123.407 399.579C116.352 401.369 111.068 408.412 105.196 423.858C102.029 432.401 98.3825 440.76 94.2736 448.896C94.2155 449.002 94.1358 449.095 94.0396 449.169C93.9434 449.243 93.8329 449.296 93.715 449.325Z" fill="#263238"/>
<path d="M101.329 456.691C101.117 456.747 100.891 456.721 100.697 456.618C100.598 456.561 100.512 456.485 100.443 456.394C100.375 456.304 100.325 456.2 100.297 456.09C100.269 455.98 100.263 455.865 100.28 455.753C100.297 455.64 100.337 455.533 100.396 455.435C104.471 447.357 108.091 439.059 111.239 430.58C117.337 414.536 122.96 407.192 130.659 405.239C130.884 405.186 131.12 405.223 131.318 405.34C131.516 405.457 131.661 405.647 131.722 405.868C131.779 406.092 131.744 406.33 131.626 406.529C131.507 406.727 131.314 406.871 131.089 406.928C124.018 408.723 118.75 415.761 112.862 431.211C109.694 439.754 106.048 448.113 101.939 456.249C101.877 456.363 101.79 456.462 101.684 456.539C101.579 456.615 101.458 456.667 101.329 456.691Z" fill="#263238"/>
<path d="M108.944 464.057C108.782 464.096 108.611 464.088 108.453 464.034C108.295 463.98 108.156 463.881 108.052 463.751C107.948 463.62 107.885 463.462 107.868 463.296C107.852 463.13 107.884 462.963 107.96 462.814C112.034 454.741 115.656 446.449 118.807 437.976C124.901 421.915 130.524 414.571 138.223 412.617C138.448 412.565 138.684 412.601 138.882 412.719C139.08 412.836 139.225 413.025 139.286 413.247C139.343 413.471 139.308 413.709 139.19 413.907C139.071 414.106 138.878 414.25 138.653 414.307C131.582 416.101 126.314 423.139 120.443 438.586C117.267 447.129 113.614 455.489 109.503 463.628C109.446 463.735 109.366 463.828 109.27 463.902C109.174 463.976 109.063 464.029 108.944 464.057Z" fill="#263238"/>
<path d="M116.562 471.422C116.459 471.451 116.352 471.458 116.247 471.445C116.141 471.432 116.039 471.398 115.947 471.345C115.848 471.288 115.762 471.212 115.693 471.121C115.625 471.03 115.575 470.927 115.547 470.817C115.519 470.707 115.513 470.592 115.53 470.48C115.547 470.367 115.586 470.259 115.646 470.162C119.728 462.092 123.349 453.8 126.493 445.324C132.587 429.263 138.214 421.936 145.913 419.982C146.138 419.925 146.376 419.96 146.576 420.078C146.775 420.196 146.919 420.388 146.976 420.612C147.033 420.836 146.998 421.073 146.88 421.272C146.761 421.471 146.568 421.615 146.343 421.672C139.272 423.466 134 430.487 128.128 445.934C124.967 454.483 121.314 462.844 117.189 470.976C117.126 471.094 117.037 471.195 116.928 471.273C116.82 471.351 116.694 471.402 116.562 471.422Z" fill="#263238"/>
<path d="M131.828 393.162L131.54 393.235C131.311 393.208 131.102 393.094 130.956 392.916C130.81 392.739 130.738 392.512 130.756 392.283C130.735 392.198 131.767 383.555 142.297 380.883C162.054 375.87 174.1 369.575 174.493 364.026C174.508 363.784 174.619 363.557 174.801 363.396C174.892 363.317 174.997 363.255 175.111 363.216C175.225 363.177 175.345 363.16 175.466 363.168C175.586 363.175 175.704 363.206 175.812 363.258C175.921 363.311 176.018 363.384 176.098 363.474C176.177 363.564 176.239 363.669 176.278 363.783C176.317 363.896 176.334 364.016 176.326 364.136C175.694 372.93 155.056 379.444 142.812 382.551C133.451 384.926 132.61 392.118 132.53 392.444C132.502 392.621 132.419 392.785 132.293 392.913C132.167 393.042 132.005 393.128 131.828 393.162Z" fill="#263238"/>
<path d="M140.46 401.69C140.272 401.74 140.072 401.727 139.892 401.655C139.681 401.56 139.517 401.386 139.436 401.171C139.354 400.956 139.361 400.717 139.455 400.507C139.59 400.185 142.917 392.83 156.025 389.503C170.118 385.927 179.742 379.978 184.641 371.774C184.76 371.579 184.951 371.439 185.173 371.382C185.395 371.326 185.63 371.359 185.828 371.473C185.927 371.531 186.014 371.609 186.084 371.701C186.153 371.793 186.203 371.898 186.231 372.009C186.26 372.121 186.266 372.237 186.249 372.351C186.232 372.464 186.193 372.574 186.133 372.673C181.011 381.274 171.044 387.581 156.477 391.277C144.301 394.367 141.099 401.222 141.078 401.282C141.012 401.391 140.922 401.484 140.815 401.555C140.708 401.625 140.587 401.672 140.46 401.69Z" fill="#263238"/>
<path d="M147.082 410.747C146.958 410.774 146.83 410.776 146.705 410.753C146.592 410.733 146.484 410.691 146.388 410.629C146.292 410.567 146.209 410.487 146.145 410.393C146.08 410.298 146.036 410.192 146.013 410.08C145.991 409.968 145.991 409.853 146.014 409.741C146.843 406.436 148.59 403.431 151.054 401.068C153.518 398.706 156.6 397.083 159.946 396.386C174.123 392.788 185.784 386.682 191.159 380.066C191.229 379.975 191.318 379.899 191.419 379.843C191.52 379.786 191.631 379.751 191.746 379.739C191.861 379.726 191.977 379.737 192.087 379.771C192.198 379.804 192.3 379.86 192.389 379.934C192.565 380.081 192.678 380.292 192.702 380.52C192.727 380.748 192.661 380.978 192.52 381.159C184.453 391.102 167.346 396.307 160.376 398.075C157.353 398.694 154.564 400.146 152.327 402.265C150.09 404.384 148.494 407.086 147.721 410.064C147.692 410.227 147.617 410.378 147.503 410.5C147.39 410.621 147.244 410.707 147.082 410.747Z" fill="#263238"/>
<path d="M153.676 416.933C153.602 416.969 153.521 416.989 153.439 416.994C153.208 416.981 152.992 416.88 152.835 416.712C152.678 416.544 152.592 416.322 152.596 416.092C152.62 415.763 153.078 408.2 164.823 404.483C177.064 400.68 188.588 394.881 198.927 387.321C199.015 387.236 199.12 387.17 199.236 387.127C199.351 387.085 199.474 387.067 199.597 387.076C199.72 387.084 199.839 387.118 199.948 387.175C200.056 387.232 200.151 387.312 200.227 387.408C200.303 387.505 200.357 387.616 200.386 387.735C200.416 387.854 200.42 387.978 200.398 388.098C200.377 388.219 200.33 388.334 200.26 388.435C200.191 388.536 200.101 388.622 199.997 388.686C189.506 396.39 177.797 402.291 165.355 406.146C154.848 409.478 154.369 415.894 154.34 416.135C154.329 416.322 154.259 416.5 154.14 416.643C154.02 416.787 153.858 416.888 153.676 416.933Z" fill="#263238"/>
<path d="M134.289 233.44L134.085 233.492L127.56 233.529C127.422 233.529 127.286 233.497 127.163 233.435C127.041 233.372 126.935 233.282 126.854 233.171C126.773 233.06 126.719 232.932 126.697 232.796C126.675 232.661 126.686 232.522 126.728 232.392L143.8 180.938C143.873 180.717 144.031 180.534 144.239 180.428C144.448 180.323 144.69 180.305 144.912 180.377C145.134 180.45 145.318 180.607 145.423 180.815C145.528 181.023 145.546 181.264 145.473 181.485L128.776 231.782L133.464 231.761L150.906 183.182C150.982 182.972 151.133 182.799 151.331 182.696C151.529 182.592 151.758 182.566 151.973 182.623L203.113 196.929L206.733 190.867L151.529 177.898C151.303 177.845 151.106 177.706 150.984 177.509C150.861 177.313 150.822 177.076 150.874 176.85C150.927 176.624 151.067 176.429 151.265 176.306C151.462 176.183 151.7 176.144 151.926 176.196L208.32 189.511C208.454 189.541 208.579 189.603 208.684 189.693C208.789 189.782 208.87 189.896 208.92 190.024C208.973 190.147 208.995 190.282 208.986 190.416C208.976 190.55 208.934 190.679 208.863 190.794L204.297 198.463C204.199 198.627 204.05 198.754 203.872 198.825C203.695 198.896 203.499 198.907 203.314 198.856L152.294 184.592L134.915 232.994C134.853 233.112 134.764 233.214 134.655 233.291C134.546 233.369 134.421 233.42 134.289 233.44Z" fill="#263238"/>
<path d="M225.795 266.261C225.653 266.298 225.504 266.299 225.362 266.263L182.395 254.415C182.27 254.381 182.153 254.32 182.054 254.237C181.955 254.153 181.875 254.049 181.821 253.932L150.916 183.79C150.825 183.575 150.822 183.333 150.909 183.116C150.996 182.899 151.165 182.724 151.379 182.63C151.485 182.585 151.599 182.562 151.714 182.561C151.829 182.56 151.943 182.582 152.05 182.625C152.156 182.668 152.253 182.731 152.335 182.812C152.417 182.893 152.482 182.988 152.526 183.094L183.26 252.847L224.311 264.12L202.969 202.181C202.902 201.962 202.922 201.725 203.023 201.519C203.125 201.313 203.301 201.153 203.517 201.071C203.626 201.034 203.741 201.018 203.856 201.025C203.971 201.032 204.084 201.062 204.187 201.113C204.291 201.163 204.383 201.234 204.459 201.32C204.535 201.406 204.593 201.507 204.63 201.616L226.377 265.142C226.432 265.291 226.442 265.453 226.408 265.608C226.374 265.763 226.297 265.906 226.185 266.019C226.083 266.138 225.947 266.223 225.795 266.261Z" fill="#263238"/>
<path d="M225.795 266.261C225.65 266.297 225.498 266.295 225.354 266.255C225.21 266.216 225.078 266.14 224.972 266.035C224.866 265.93 224.788 265.8 224.747 265.657C224.705 265.514 224.701 265.362 224.735 265.217L227.896 252.455L207.262 190.535C207.226 190.426 207.212 190.311 207.221 190.196C207.229 190.082 207.26 189.97 207.312 189.868C207.417 189.661 207.6 189.503 207.821 189.431C208.042 189.358 208.282 189.376 208.49 189.48C208.698 189.584 208.855 189.766 208.928 189.986L229.656 252.206C229.699 252.364 229.704 252.529 229.671 252.688L226.493 265.598C226.455 265.765 226.368 265.916 226.244 266.034C226.12 266.152 225.964 266.231 225.795 266.261Z" fill="#263238"/>
<path d="M166.323 295.256L166.153 295.299C165.984 295.31 165.815 295.271 165.668 295.186C165.522 295.102 165.403 294.976 165.328 294.825L137.157 238.612C137.055 238.402 137.04 238.16 137.116 237.939C137.191 237.718 137.351 237.535 137.56 237.43C137.663 237.38 137.776 237.351 137.891 237.345C138.005 237.338 138.12 237.354 138.229 237.392C138.337 237.429 138.437 237.488 138.523 237.564C138.608 237.64 138.678 237.732 138.728 237.835L166.024 292.31L181.826 253.247C181.913 253.032 182.081 252.86 182.295 252.768C182.509 252.677 182.75 252.674 182.966 252.76C183.182 252.846 183.354 253.014 183.446 253.227C183.537 253.439 183.54 253.68 183.454 253.895L166.911 294.657C166.874 294.799 166.8 294.93 166.697 295.035C166.594 295.14 166.465 295.216 166.323 295.256Z" fill="#263238"/>
<path d="M166.323 295.256L166.221 295.282L159.143 296.268C158.962 296.292 158.779 296.26 158.618 296.175C158.457 296.09 158.327 295.957 158.246 295.795L126.798 233.093C126.746 232.988 126.716 232.874 126.708 232.757C126.701 232.641 126.717 232.524 126.755 232.413C126.793 232.302 126.852 232.2 126.93 232.112C127.008 232.024 127.102 231.953 127.207 231.901C127.313 231.85 127.427 231.819 127.544 231.812C127.662 231.804 127.779 231.82 127.89 231.858C128.001 231.896 128.104 231.955 128.192 232.032C128.28 232.109 128.352 232.203 128.403 232.308L159.578 294.431L166.028 293.532C166.253 293.475 166.492 293.509 166.691 293.627C166.89 293.745 167.034 293.937 167.091 294.161C167.148 294.385 167.114 294.623 166.995 294.822C166.876 295.02 166.683 295.164 166.458 295.221L166.323 295.256Z" fill="#263238"/>
<path d="M146.958 241.592C146.802 241.633 146.638 241.629 146.484 241.583C146.33 241.537 146.192 241.449 146.085 241.329C145.978 241.209 145.906 241.062 145.877 240.904C145.849 240.746 145.865 240.584 145.923 240.434L158.857 207.908C158.896 207.801 158.957 207.703 159.036 207.619C159.114 207.536 159.209 207.47 159.314 207.425C159.419 207.38 159.533 207.357 159.647 207.357C159.762 207.357 159.875 207.38 159.98 207.425C160.088 207.466 160.187 207.528 160.271 207.607C160.355 207.686 160.422 207.78 160.469 207.886C160.516 207.991 160.541 208.104 160.544 208.219C160.547 208.334 160.526 208.449 160.484 208.556L147.55 241.082C147.499 241.208 147.419 241.32 147.316 241.408C147.213 241.497 147.09 241.56 146.958 241.592Z" fill="#263238"/>
<path d="M151.786 254.18C151.61 254.223 151.425 254.214 151.255 254.152C151.042 254.063 150.872 253.895 150.781 253.683C150.69 253.471 150.685 253.233 150.768 253.017L163.685 220.495C163.726 220.387 163.788 220.288 163.868 220.205C163.948 220.121 164.044 220.055 164.151 220.009C164.257 219.964 164.372 219.94 164.488 219.94C164.604 219.94 164.718 219.963 164.825 220.008C165.036 220.095 165.205 220.26 165.295 220.469C165.385 220.678 165.39 220.914 165.308 221.127L152.391 253.648C152.341 253.78 152.26 253.897 152.155 253.989C152.049 254.082 151.922 254.147 151.786 254.18Z" fill="#263238"/>
<path d="M156.616 266.767C156.438 266.813 156.249 266.798 156.081 266.722C155.87 266.636 155.701 266.471 155.611 266.262C155.52 266.053 155.516 265.817 155.598 265.604L168.515 233.082C168.556 232.975 168.618 232.876 168.697 232.792C168.777 232.709 168.872 232.641 168.978 232.595C169.083 232.548 169.197 232.522 169.313 232.519C169.428 232.517 169.543 232.537 169.651 232.578C169.864 232.667 170.034 232.836 170.125 233.048C170.216 233.259 170.22 233.498 170.138 233.714L157.221 266.235C157.171 266.367 157.09 266.484 156.985 266.576C156.879 266.669 156.753 266.734 156.616 266.767Z" fill="#263238"/>
<path d="M161.395 279.367C161.217 279.415 161.028 279.399 160.86 279.322C160.752 279.282 160.653 279.22 160.569 279.141C160.485 279.062 160.418 278.967 160.371 278.862C160.324 278.757 160.299 278.643 160.296 278.528C160.293 278.413 160.314 278.299 160.356 278.191L173.29 245.665C173.377 245.455 173.543 245.286 173.753 245.196C173.963 245.106 174.199 245.101 174.413 245.183C174.521 245.223 174.619 245.285 174.703 245.364C174.787 245.443 174.855 245.538 174.901 245.643C174.948 245.748 174.974 245.862 174.977 245.977C174.979 246.092 174.959 246.206 174.917 246.313L161.983 278.84C161.933 278.967 161.854 279.081 161.752 279.173C161.65 279.264 161.527 279.331 161.395 279.367Z" fill="#263238"/>
<path d="M199.194 216.161C199.045 216.202 198.887 216.198 198.74 216.15L168.059 207.749C167.835 207.687 167.645 207.538 167.531 207.336C167.417 207.134 167.388 206.895 167.451 206.671C167.514 206.448 167.663 206.258 167.866 206.144C168.069 206.031 168.309 206.002 168.533 206.064L199.213 214.465C199.437 214.532 199.625 214.683 199.737 214.887C199.85 215.09 199.878 215.329 199.815 215.553C199.774 215.7 199.695 215.833 199.586 215.939C199.477 216.046 199.341 216.122 199.194 216.161Z" fill="#263238"/>
<path d="M202.302 228.357C202.155 228.395 202.001 228.397 201.853 228.363L171.172 219.962C171.052 219.941 170.937 219.895 170.836 219.827C170.734 219.758 170.648 219.67 170.584 219.566C170.519 219.463 170.476 219.347 170.459 219.226C170.442 219.106 170.451 218.983 170.484 218.865C170.518 218.748 170.576 218.639 170.655 218.545C170.733 218.452 170.83 218.376 170.94 218.322C171.05 218.268 171.17 218.238 171.293 218.233C171.415 218.228 171.537 218.249 171.65 218.294L202.331 226.695C202.552 226.759 202.739 226.908 202.851 227.108C202.963 227.309 202.991 227.545 202.928 227.767C202.884 227.911 202.803 228.04 202.693 228.144C202.584 228.247 202.449 228.321 202.302 228.357Z" fill="#263238"/>
<path d="M209.416 240.365C209.274 240.399 209.125 240.4 208.983 240.367L178.302 231.965C178.079 231.905 177.889 231.759 177.774 231.559C177.659 231.359 177.628 231.121 177.688 230.898C177.752 230.674 177.902 230.483 178.105 230.367C178.309 230.252 178.55 230.221 178.776 230.281L209.44 238.686C209.552 238.714 209.657 238.764 209.749 238.833C209.841 238.902 209.918 238.989 209.975 239.089C210.032 239.189 210.069 239.299 210.083 239.413C210.096 239.527 210.087 239.643 210.054 239.753C210.012 239.902 209.931 240.038 209.818 240.145C209.706 240.253 209.567 240.328 209.416 240.365Z" fill="#263238"/>
<path d="M213.5 253.141C213.351 253.182 213.193 253.178 213.046 253.13L182.365 244.729C182.254 244.698 182.151 244.646 182.06 244.575C181.969 244.504 181.894 244.416 181.837 244.316C181.781 244.216 181.745 244.106 181.731 243.992C181.717 243.878 181.726 243.762 181.757 243.652C181.788 243.541 181.841 243.437 181.912 243.347C181.983 243.257 182.072 243.181 182.172 243.125C182.273 243.068 182.383 243.032 182.498 243.018C182.612 243.005 182.728 243.013 182.839 243.044L213.52 251.445C213.703 251.499 213.863 251.611 213.976 251.764C214.089 251.917 214.149 252.103 214.147 252.293C214.144 252.483 214.079 252.667 213.961 252.817C213.844 252.968 213.68 253.075 213.495 253.124L213.5 253.141Z" fill="#263238"/>
</svg>
