<svg width="32" height="32" viewBox="0 0 32 32" fill="none" xmlns="http://www.w3.org/2000/svg">
<path opacity="0.2" d="M28 12L18.1819 19H13.8181L4 12L16 4L28 12Z" fill="url(#paint0_linear_3577:1783)"/>
<path d="M4 12V25C4 25.2652 4.10536 25.5196 4.29289 25.7071C4.48043 25.8946 4.73478 26 5 26H27C27.2652 26 27.5196 25.8946 27.7071 25.7071C27.8946 25.5196 28 25.2652 28 25V12L16 4L4 12Z" stroke="url(#paint1_linear_3577:1783)" stroke-width="2" stroke-linecap="round" stroke-linejoin="round"/>
<path d="M13.8184 19L4.30859 25.7174" stroke="url(#paint2_linear_3577:1783)" stroke-width="2" stroke-linecap="round" stroke-linejoin="round"/>
<path d="M27.6921 25.7175L18.1821 19" stroke="url(#paint3_linear_3577:1783)" stroke-width="2" stroke-linecap="round" stroke-linejoin="round"/>
<path d="M28 12L18.1819 19H13.8181L4 12" stroke="url(#paint4_linear_3577:1783)" stroke-width="2" stroke-linecap="round" stroke-linejoin="round"/>
<defs>
<linearGradient id="paint0_linear_3577:1783" x1="2.34328" y1="15.75" x2="28.9403" y2="15.75" gradientUnits="userSpaceOnUse">
<stop stop-color="#4BC2F9"/>
<stop offset="1" stop-color="#44DBB5"/>
</linearGradient>
<linearGradient id="paint1_linear_3577:1783" x1="2.34328" y1="21.2333" x2="28.9403" y2="21.2333" gradientUnits="userSpaceOnUse">
<stop stop-color="#4BC2F9"/>
<stop offset="1" stop-color="#44DBB5"/>
</linearGradient>
<linearGradient id="paint2_linear_3577:1783" x1="3.65213" y1="24.262" x2="14.191" y2="24.262" gradientUnits="userSpaceOnUse">
<stop stop-color="#4BC2F9"/>
<stop offset="1" stop-color="#44DBB5"/>
</linearGradient>
<linearGradient id="paint3_linear_3577:1783" x1="17.5257" y1="24.262" x2="28.0647" y2="24.262" gradientUnits="userSpaceOnUse">
<stop stop-color="#4BC2F9"/>
<stop offset="1" stop-color="#44DBB5"/>
</linearGradient>
<linearGradient id="paint4_linear_3577:1783" x1="2.34328" y1="17.4833" x2="28.9403" y2="17.4833" gradientUnits="userSpaceOnUse">
<stop stop-color="#4BC2F9"/>
<stop offset="1" stop-color="#44DBB5"/>
</linearGradient>
</defs>
</svg>
