<svg width="140" height="56" viewBox="0 0 140 56" fill="none" xmlns="http://www.w3.org/2000/svg">
<path d="M0 45.4999H6.41047V52.9999H5.40311V46.4599H1.00736V52.9999H0V45.4999Z" fill="#8292A1"/>
<path d="M12.6312 45.3199C13.72 45.3199 14.6459 45.6999 15.4091 46.4599C16.1824 47.2199 16.5691 48.1499 16.5691 49.2499C16.5691 50.3499 16.1824 51.2799 15.4091 52.0399C14.6459 52.7999 13.72 53.1799 12.6312 53.1799C11.2779 53.1799 10.2502 52.6299 9.54809 51.5299V55.9999H8.54073V45.4999H9.54809V46.9699C10.2502 45.8699 11.2779 45.3199 12.6312 45.3199ZM10.4181 51.3649C10.9981 51.9349 11.7104 52.2199 12.5549 52.2199C13.3995 52.2199 14.1117 51.9349 14.6917 51.3649C15.2717 50.7749 15.5617 50.0699 15.5617 49.2499C15.5617 48.4199 15.2717 47.7199 14.6917 47.1499C14.1117 46.5699 13.3995 46.2799 12.5549 46.2799C11.7104 46.2799 10.9981 46.5699 10.4181 47.1499C9.83809 47.7199 9.54809 48.4199 9.54809 49.2499C9.54809 50.0699 9.83809 50.7749 10.4181 51.3649Z" fill="#8292A1"/>
<path d="M19.2514 51.2749L23.7998 45.4999H24.6545V52.9999H23.6472V47.2249L19.0988 52.9999H18.2441V45.4999H19.2514V51.2749Z" fill="#8292A1"/>
<path d="M29.4558 43.6999C29.4558 43.8899 29.3897 44.0499 29.2574 44.1799C29.1251 44.3099 28.9623 44.3749 28.769 44.3749C28.5757 44.3749 28.4129 44.3099 28.2806 44.1799C28.1483 44.0499 28.0822 43.8899 28.0822 43.6999C28.0822 43.5099 28.1483 43.3499 28.2806 43.2199C28.4129 43.0899 28.5757 43.0249 28.769 43.0249C28.9623 43.0249 29.1251 43.0899 29.2574 43.2199C29.3897 43.3499 29.4558 43.5099 29.4558 43.6999ZM32.3558 43.6999C32.3558 43.8899 32.2897 44.0499 32.1574 44.1799C32.0251 44.3099 31.8623 44.3749 31.669 44.3749C31.4756 44.3749 31.3128 44.3099 31.1806 44.1799C31.0483 44.0499 30.9821 43.8899 30.9821 43.6999C30.9821 43.5099 31.0483 43.3499 31.1806 43.2199C31.3128 43.0899 31.4756 43.0249 31.669 43.0249C31.8623 43.0249 32.0251 43.0899 32.1574 43.2199C32.2897 43.3499 32.3558 43.5099 32.3558 43.6999ZM30.3106 45.3199C31.4502 45.3199 32.3609 45.7149 33.0426 46.5049C33.7447 47.2849 34.0958 48.2099 34.0958 49.2799C34.0958 49.3299 34.0856 49.4849 34.0653 49.7449H27.3648C27.4666 50.4949 27.7922 51.0949 28.3416 51.5449C28.8911 51.9949 29.5779 52.2199 30.4021 52.2199C31.5621 52.2199 32.3812 51.7949 32.8595 50.9449L33.7447 51.4549C33.409 51.9949 32.946 52.4199 32.3558 52.7299C31.7758 53.0299 31.1195 53.1799 30.3869 53.1799C29.1862 53.1799 28.2094 52.8099 27.4564 52.0699C26.7034 51.3299 26.3269 50.3899 26.3269 49.2499C26.3269 48.1199 26.6983 47.1849 27.4411 46.4449C28.1839 45.6949 29.1404 45.3199 30.3106 45.3199ZM30.3106 46.2799C29.5169 46.2799 28.8504 46.5099 28.3111 46.9699C27.782 47.4299 27.4666 48.0349 27.3648 48.7849H33.0579C32.946 47.9849 32.6356 47.3699 32.1269 46.9399C31.5977 46.4999 30.9923 46.2799 30.3106 46.2799Z" fill="#8292A1"/>
<path d="M42.0171 45.4999H43.177V52.9999H42.1697V47.0149L39.4987 51.2749H39.3766L36.7055 47.0149V52.9999H35.6982V45.4999H36.8582L39.4376 49.6099L42.0171 45.4999Z" fill="#8292A1"/>
<path d="M50.7152 48.7699V45.4999H51.7225V52.9999H50.7152V49.7299H46.3194V52.9999H45.3121V45.4999H46.3194V48.7699H50.7152Z" fill="#8292A1"/>
<path d="M60.4159 46.9699V45.4999H61.4233V52.9999H60.4159V51.5299C59.7138 52.6299 58.6861 53.1799 57.3328 53.1799C56.244 53.1799 55.313 52.7999 54.5396 52.0399C53.7765 51.2799 53.3949 50.3499 53.3949 49.2499C53.3949 48.1499 53.7765 47.2199 54.5396 46.4599C55.313 45.6999 56.244 45.3199 57.3328 45.3199C58.6861 45.3199 59.7138 45.8699 60.4159 46.9699ZM55.2723 51.3649C55.8523 51.9349 56.5645 52.2199 57.4091 52.2199C58.2536 52.2199 58.9659 51.9349 59.5459 51.3649C60.1259 50.7749 60.4159 50.0699 60.4159 49.2499C60.4159 48.4199 60.1259 47.7199 59.5459 47.1499C58.9659 46.5699 58.2536 46.2799 57.4091 46.2799C56.5645 46.2799 55.8523 46.5699 55.2723 47.1499C54.6923 47.7199 54.4023 48.4199 54.4023 49.2499C54.4023 50.0699 54.6923 50.7749 55.2723 51.3649Z" fill="#8292A1"/>
<path d="M65.9524 45.4999H69.0508V52.9999H68.0435V50.1199H66.7309L64.3804 52.9999H63.0983L65.5098 50.0899C64.8891 49.9999 64.3804 49.7499 63.9835 49.3399C63.5969 48.9199 63.4035 48.4149 63.4035 47.8249C63.4035 47.1549 63.6477 46.5999 64.1361 46.1599C64.6449 45.7199 65.2504 45.4999 65.9524 45.4999ZM65.9524 49.1899H68.0435V46.4599H65.9524C65.5149 46.4599 65.1486 46.5899 64.8535 46.8499C64.5584 47.0999 64.4109 47.4249 64.4109 47.8249C64.4109 48.2249 64.5584 48.5549 64.8535 48.8149C65.1486 49.0649 65.5149 49.1899 65.9524 49.1899Z" fill="#8292A1"/>
<path d="M77.0792 49.0999L81.1697 52.9999H79.8265L76.0108 49.3849V52.9999H75.0034V45.4999H76.0108V48.8149L79.6434 45.4999H81.017L77.0792 49.0999Z" fill="#8292A1"/>
<path d="M88.1805 52.0549C87.397 52.8049 86.4507 53.1799 85.3416 53.1799C84.2121 53.1799 83.2607 52.8049 82.4874 52.0549C81.7141 51.2949 81.3274 50.3599 81.3274 49.2499C81.3274 48.1399 81.7141 47.2099 82.4874 46.4599C83.2607 45.6999 84.2121 45.3199 85.3416 45.3199C86.4609 45.3199 87.4072 45.6999 88.1805 46.4599C88.964 47.2099 89.3558 48.1399 89.3558 49.2499C89.3558 50.3499 88.964 51.2849 88.1805 52.0549ZM83.2048 51.3649C83.7848 51.9349 84.497 52.2199 85.3416 52.2199C86.1862 52.2199 86.8984 51.9349 87.4784 51.3649C88.0584 50.7749 88.3484 50.0699 88.3484 49.2499C88.3484 48.4199 88.0584 47.7199 87.4784 47.1499C86.8984 46.5699 86.1862 46.2799 85.3416 46.2799C84.497 46.2799 83.7848 46.5699 83.2048 47.1499C82.6248 47.7199 82.3348 48.4199 82.3348 49.2499C82.3348 50.0699 82.6248 50.7749 83.2048 51.3649Z" fill="#8292A1"/>
<path d="M97.3604 45.4999H98.5204V52.9999H97.513V47.0149L94.842 51.2749H94.7199L92.0489 47.0149V52.9999H91.0415V45.4999H92.2015L94.7809 49.6099L97.3604 45.4999Z" fill="#8292A1"/>
<path d="M101.663 51.2749L106.211 45.4999H107.066V52.9999H106.059V47.2249L101.51 52.9999H100.655V45.4999H101.663V51.2749Z" fill="#8292A1"/>
<path d="M112.752 53.1799C111.603 53.1799 110.646 52.8049 109.883 52.0549C109.12 51.2849 108.738 50.3499 108.738 49.2499C108.738 48.1399 109.12 47.2099 109.883 46.4599C110.646 45.6999 111.603 45.3199 112.752 45.3199C113.505 45.3199 114.182 45.4999 114.782 45.8599C115.383 46.2099 115.82 46.6849 116.095 47.2849L115.271 47.7499C115.067 47.2999 114.737 46.9449 114.279 46.6849C113.831 46.4149 113.322 46.2799 112.752 46.2799C111.908 46.2799 111.196 46.5699 110.616 47.1499C110.036 47.7199 109.746 48.4199 109.746 49.2499C109.746 50.0699 110.036 50.7749 110.616 51.3649C111.196 51.9349 111.908 52.2199 112.752 52.2199C113.312 52.2199 113.816 52.0899 114.263 51.8299C114.721 51.5699 115.077 51.2099 115.332 50.7499L116.171 51.2299C115.856 51.8299 115.393 52.3049 114.782 52.6549C114.172 53.0049 113.495 53.1799 112.752 53.1799Z" fill="#8292A1"/>
<path d="M121.099 53.1799C119.95 53.1799 118.993 52.8049 118.23 52.0549C117.467 51.2849 117.085 50.3499 117.085 49.2499C117.085 48.1399 117.467 47.2099 118.23 46.4599C118.993 45.6999 119.95 45.3199 121.099 45.3199C121.852 45.3199 122.529 45.4999 123.129 45.8599C123.73 46.2099 124.167 46.6849 124.442 47.2849L123.618 47.7499C123.414 47.2999 123.084 46.9449 122.626 46.6849C122.178 46.4149 121.669 46.2799 121.099 46.2799C120.255 46.2799 119.543 46.5699 118.963 47.1499C118.383 47.7199 118.093 48.4199 118.093 49.2499C118.093 50.0699 118.383 50.7749 118.963 51.3649C119.543 51.9349 120.255 52.2199 121.099 52.2199C121.659 52.2199 122.163 52.0899 122.61 51.8299C123.068 51.5699 123.424 51.2099 123.679 50.7499L124.518 51.2299C124.203 51.8299 123.74 52.3049 123.129 52.6549C122.519 53.0049 121.842 53.1799 121.099 53.1799Z" fill="#8292A1"/>
<path d="M126.972 51.2749L131.52 45.4999H132.375V52.9999H131.368V47.2249L126.819 52.9999H125.965V45.4999H126.972V51.2749Z" fill="#8292A1"/>
<path d="M136.902 45.4999H140V52.9999H138.993V50.1199H137.68L135.33 52.9999H134.047L136.459 50.0899C135.838 49.9999 135.33 49.7499 134.933 49.3399C134.546 48.9199 134.353 48.4149 134.353 47.8249C134.353 47.1549 134.597 46.5999 135.085 46.1599C135.594 45.7199 136.2 45.4999 136.902 45.4999ZM136.902 49.1899H138.993V46.4599H136.902C136.464 46.4599 136.098 46.5899 135.803 46.8499C135.508 47.0999 135.36 47.4249 135.36 47.8249C135.36 48.2249 135.508 48.5549 135.803 48.8149C136.098 49.0649 136.464 49.1899 136.902 49.1899Z" fill="#8292A1"/>
<path d="M31.5264 24.9104C29.1181 24.5273 26.5508 24.3106 23.9173 24.2803C23.7498 24.2786 23.6121 24.4168 23.6121 24.5866V33.091C23.6121 33.2731 23.7696 33.4117 23.9488 33.3934C27.4938 33.0308 30.486 29.7844 31.7689 25.2964C31.819 25.1207 31.7045 24.939 31.5264 24.9104Z" fill="#41A1F2"/>
<path d="M27.1904 7.82698C29.6764 9.33409 31.6313 12.2341 32.5457 15.8193C32.5777 15.946 32.7011 16.0271 32.8282 16.0032C36.4048 15.3278 39.5695 14.2759 41.9916 12.9219C42.1462 12.8353 42.1618 12.6139 42.0211 12.5063C41.3021 11.956 40.5029 11.4342 39.626 10.9458C38.3735 10.2474 37.0022 9.64039 35.54 9.12851V7.16744C35.54 7.15583 35.537 7.14519 35.5367 7.13406V6.28903C35.5367 5.15643 36.4461 4.23448 37.5642 4.23448H39.151C39.1595 4.23448 39.1666 4.23279 39.1746 4.23243C39.1831 4.23279 39.1906 4.23448 39.1986 4.23448C39.5106 4.23448 39.7632 3.97848 39.7632 3.66238V0.572099C39.7632 0.255998 39.5106 0 39.1986 0H28.2425C27.9305 0 27.6779 0.255998 27.6779 0.572099V3.66238C27.6779 3.97848 27.9305 4.23448 28.2425 4.23448C28.2585 4.23448 28.2736 4.2311 28.2892 4.22977C28.3051 4.2311 28.3203 4.23448 28.3363 4.23448H29.9232C31.041 4.23448 31.9507 5.15643 31.9507 6.28903V7.16272C31.9507 7.16441 31.9504 7.16611 31.9504 7.16744V8.10632C30.4688 7.77183 28.9262 7.52237 27.3394 7.36661C27.0796 7.34098 26.9663 7.6913 27.1904 7.82698ZM34.4074 6.28903V7.35342C34.4074 7.36491 34.4099 7.37556 34.4104 7.38668V8.75907C34.2862 8.72062 34.1616 8.68181 34.0362 8.64468V5.91149C34.1456 4.84286 34.8655 3.95853 35.8351 3.61595C34.9762 4.18841 34.4074 5.17215 34.4074 6.28903ZM30.8797 3.00418H28.8075V1.14456H38.634V3.00418H36.7192C35.3985 3.00418 34.2668 3.83313 33.7995 5.0037C33.3321 3.83313 32.2009 3.00418 30.8797 3.00418ZM31.545 3.54979C32.6851 3.84412 33.5355 4.87358 33.5733 6.10981C33.573 6.13847 33.5692 6.16701 33.5692 6.19555V8.51288C33.4066 8.46765 33.2442 8.42242 33.0795 8.37937V7.35765C33.0795 7.35632 33.0803 7.35512 33.0803 7.35342V6.28903C33.0803 5.12656 32.4627 4.10992 31.545 3.54979Z" fill="#41A1F2"/>
<path d="M23.8293 16.8605C26.6451 16.8328 29.3868 16.5913 31.9402 16.1617C30.7349 11.1926 27.4753 7.57801 23.6121 7.38477V16.6424C23.6121 16.7632 23.7102 16.8618 23.8293 16.8605Z" fill="#41A1F2"/>
<path d="M41.811 28.1174C39.3821 26.7949 36.2363 25.769 32.693 25.1115C32.5974 25.0936 32.5044 25.1537 32.4787 25.2485C31.5091 28.8161 29.5009 31.6736 26.9726 33.1053C26.7945 33.2063 26.8761 33.4806 27.0795 33.4619C28.3675 33.3437 29.6266 33.1633 30.8498 32.9274C29.7067 34.5911 27.8398 35.5936 25.7992 35.5936H25.4152C23.2162 35.5936 21.2842 34.4187 20.1947 32.6568C20.9655 33.0523 21.7831 33.3083 22.6336 33.394C22.8075 33.4119 22.9569 33.2673 22.9569 33.0902V24.5864C22.9569 24.4165 22.8193 24.2783 22.6517 24.2805C21.5053 24.2937 20.3719 24.345 19.2575 24.4277V23.7622C20.3756 23.6799 21.5115 23.6295 22.6601 23.6167C22.8243 23.6146 22.9569 23.4802 22.9569 23.3138V17.8264C22.9569 17.6596 22.8243 17.5253 22.6601 17.5236C21.5115 17.5103 20.3756 17.4605 19.2575 17.3781V16.7122C20.3912 16.7962 21.544 16.8479 22.7107 16.8597C22.8458 16.8615 22.9569 16.7497 22.9569 16.6128V7.38486C21.6324 7.45186 20.3816 7.92674 19.2575 8.71507L19.2578 6.28903C19.2578 5.15595 20.1677 4.23449 21.2855 4.23449H22.8723C22.8782 4.23449 22.8836 4.2328 22.8896 4.2328C22.8954 4.2328 22.9009 4.23449 22.9068 4.23449C23.2188 4.23449 23.4714 3.97849 23.4714 3.66239V0.572099C23.4714 0.255997 23.2188 0 22.9068 0H6.55699C6.24503 0 5.99238 0.255997 5.99238 0.572099V3.66239C5.99238 3.97849 6.24503 4.23449 6.55699 4.23449C6.55902 4.23449 6.56117 4.234 6.56332 4.234C6.56535 4.234 6.56749 4.23449 6.56916 4.23449H8.15596C9.27422 4.23449 10.1836 5.15595 10.1836 6.28903V7.10215C10.1836 7.1059 10.1828 7.10939 10.1828 7.11314V9.44196C9.03804 9.88358 7.95391 10.3848 6.94773 10.9453C6.09716 11.4197 5.31999 11.9245 4.61777 12.4564C4.44257 12.5891 4.46824 12.8613 4.66074 12.9674C6.22438 13.8309 8.09701 14.5677 10.1828 15.1623V15.85C7.6904 15.153 5.48552 14.2583 3.72186 13.1914C3.72019 13.1906 3.71935 13.1892 3.7184 13.1884C1.29798 15.3082 0 17.7911 0 20.4019C0 23.0379 1.32245 25.5437 3.78917 27.6771C3.88512 27.7599 4.02201 27.7727 4.13192 27.7103C5.82267 26.7475 7.87944 25.9341 10.1828 25.2894V25.9759C8.21325 26.5377 6.43359 27.2253 4.92508 28.0274C4.7247 28.1341 4.70573 28.4139 4.88976 28.5478C5.51918 29.0064 6.20505 29.4441 6.94773 29.8579C8.16945 30.5388 9.50455 31.1326 10.9268 31.6365C10.9928 31.6599 11.0594 31.6564 11.1195 31.636C13.0537 36.5312 17.7801 40 23.2946 40H23.604C28.6538 40 33.1771 36.7604 34.86 31.9389C34.8645 31.9256 34.8659 31.9129 34.8697 31.9001C36.5844 31.3438 38.1838 30.6617 39.6259 29.8579C40.4275 29.4113 41.1635 28.9364 41.8329 28.4382C41.9435 28.3558 41.9319 28.1831 41.811 28.1174ZM18.1282 6.28903V7.10891C18.1282 7.11024 18.1279 7.11145 18.1279 7.11314V29.3541C18.1279 33.4252 21.3971 36.7381 25.4152 36.7381H25.7992C28.5594 36.7381 31.051 35.1875 32.3019 32.6914C32.3149 32.665 32.3242 32.6376 32.3325 32.6099C32.4251 32.5882 32.5166 32.5647 32.6083 32.5421C31.0825 35.7779 27.8896 37.8375 24.3083 37.8375H24.1176C19.0428 37.8375 14.9133 33.6538 14.9133 28.5108V8.72655V7.12427V7.10723C14.9133 7.07905 14.91 7.05135 14.9092 7.02354C14.9538 5.05231 16.5464 3.46189 18.5025 3.46189H19.8119C18.8116 3.99941 18.1282 5.06416 18.1282 6.28903ZM7.12196 3.00418V1.14458H22.3423V3.00418H18.5025C16.7372 3.00418 15.2358 4.15686 14.6835 5.7566C14.1302 4.15686 12.6293 3.00418 10.864 3.00418H7.12196ZM23.604 38.8554H23.2946C16.6875 38.8554 11.3124 33.4085 11.3124 26.7143V7.36443C11.3124 7.36056 11.3132 7.35718 11.3132 7.35331V6.28903C11.3132 5.06416 10.6298 3.99941 9.6295 3.46189H10.864C12.82 3.46189 14.4128 5.05231 14.4574 7.02354C14.4565 7.05135 14.4531 7.07905 14.4531 7.10723V8.72655C14.4531 8.74155 14.4591 8.75472 14.4616 8.76887V28.5108C14.4616 33.9059 18.7934 38.2953 24.1176 38.2953H24.3083C28.1898 38.2953 31.6375 35.99 33.1705 32.3996C33.2807 32.3706 33.3906 32.3399 33.5004 32.3095C31.7886 36.2561 27.9076 38.8554 23.604 38.8554Z" fill="#41A1F2"/>
<path d="M43.0827 13.3923C42.9471 13.2686 42.7484 13.2507 42.5905 13.3429C40.122 14.7787 36.8596 15.896 33.1609 16.6136C32.9314 16.6579 32.7828 16.8797 32.8241 17.1123C33.0119 18.1664 33.1133 19.2679 33.1133 20.4022C33.1133 21.65 32.9925 22.8594 32.7677 24.0092C32.7214 24.2441 32.8708 24.4711 33.1033 24.516C36.7147 25.2117 39.9128 26.2881 42.366 27.6703C42.5206 27.7573 42.713 27.7403 42.8474 27.6228C45.2733 25.5014 46.5738 23.0155 46.5738 20.4022C46.5738 17.8746 45.357 15.4668 43.0827 13.3923Z" fill="#41A1F2"/>
<path d="M23.9089 23.6166C26.6173 23.6469 29.2592 23.873 31.7364 24.274C31.8943 24.2991 32.0445 24.1963 32.077 24.0377C32.3132 22.8833 32.4404 21.6632 32.4404 20.4018C32.4404 19.2601 32.3347 18.1535 32.1398 17.0977C32.1095 16.936 31.9579 16.8302 31.797 16.8562C29.3025 17.2628 26.6391 17.4928 23.9089 17.5235C23.7446 17.5252 23.6116 17.6599 23.6116 17.8263V23.3137C23.6116 23.4801 23.7446 23.6149 23.9089 23.6166Z" fill="#41A1F2"/>
<path d="M137.427 13.6334L140 13.009L139.893 11.3245H131.18L131.073 12.9273L133.351 13.6606V19.1483H125.872V13.6334L128.365 13.009L128.257 11.3245H119.491L119.383 12.9003L121.796 13.6606V27.6782L119.33 28.4664L119.437 30.0144H128.257L128.365 28.2755L125.872 27.651V21.3485H133.351V27.6782L130.965 28.4392L131.126 30.0144H139.919L140 28.2755L137.427 27.651V13.6334Z" fill="#41A1F2"/>
<path d="M73.4309 11.3176C72.0273 11.3176 68.4419 11.9751 65.3032 11.1731L64.8522 12.927C64.8522 12.927 65.6852 13.3247 67.051 13.6341V27.7151L64.6169 28.3028L64.6974 30.0139C64.6974 30.0139 67.5488 29.8833 69.1307 29.8833C70.7132 29.8833 73.6456 30.0139 73.6456 30.0139L73.7261 28.3028L71.0831 27.6644V22.678C71.6642 22.8027 73.8556 23.2054 75.9576 22.6951C78.4074 22.1005 81.2397 20.1866 80.5508 15.5585C79.8619 10.9299 74.8344 11.3176 73.4309 11.3176ZM71.0831 20.305V13.9592C71.2274 13.9502 71.37 13.9434 71.5168 13.9295C75.3449 13.5674 76.4164 15.2477 76.4164 17.058C76.4164 18.853 75.2834 21.0254 71.0831 20.305Z" fill="#41A1F2"/>
<path d="M99.0202 11.5286C99.0302 11.4539 98.9723 11.3877 98.8976 11.3931C98.2409 11.4406 95.3795 11.6133 91.9319 11.3514L91.8251 12.9816L94.0501 13.6333C94.0501 13.6333 92.3029 18.5578 91.0588 21.816L91.0205 21.1953C91.0205 21.1953 89.2021 16.774 88.4364 14.7178C87.6712 12.6627 87.5217 12.123 87.4812 11.2971C87.4812 11.2971 85.2493 11.6191 81.5032 11.2971L81.3154 12.9272L83.3795 13.6605L87.9912 24.3366H90.1357C90.1357 24.3366 89.1448 27.718 87.508 27.9767L84.5593 26.1023C84.5593 26.1023 82.8095 26.6643 82.8669 28.526C82.9242 30.3875 87.0844 31.8656 89.5273 29.1466C91.8624 26.5476 95.0395 17.317 95.9006 15.6878C96.3884 14.7648 97.4052 13.4867 98.8176 13.0781L99.0202 11.5286Z" fill="#41A1F2"/>
<path d="M116.967 27.6128C116.603 27.562 115.629 27.4345 114.558 27.3531V13.6063L117.024 13.0091L116.966 11.2402C116.966 11.2402 114.619 11.4472 110.356 11.3955C106.57 11.3495 101.866 11.3506 100.863 11.3512C100.753 11.3516 100.664 11.4381 100.657 11.5495L100.571 12.8241C100.565 12.9083 100.624 12.9802 100.706 12.9947C101.439 13.1167 102.242 13.488 103.103 14.2143C103.103 14.2143 103.237 18.9074 102.548 21.3507C101.859 23.7941 101.187 25.4684 99.4366 27.2981V27.2991C98.3015 27.385 97.5653 27.5033 97.2768 27.5556C97.1964 27.5706 97.1406 27.6431 97.1442 27.7257L97.4796 34.9859H99.3831L100.616 30.0145H113.592L114.397 34.9859H116.542L117.107 27.7898C117.114 27.7022 117.053 27.6244 116.967 27.6128ZM104.283 27.2463C103.74 27.2213 103.227 27.2074 102.741 27.2016C103.299 26.3238 104.643 23.9322 105.093 20.6137C105.668 16.3861 105.438 13.826 105.438 13.826L110.51 13.7694V27.4666C109.212 27.5326 107.735 27.4052 104.283 27.2463Z" fill="#41A1F2"/>
</svg>
