<svg width="60" height="60" viewBox="0 0 60 60" fill="none" xmlns="http://www.w3.org/2000/svg">
<path d="M30 60C46.5685 60 60 46.5685 60 30C60 13.4315 46.5685 0 30 0C13.4315 0 0 13.4315 0 30C0 46.5685 13.4315 60 30 60Z" fill="url(#paint0_linear_4662:40693)"/>
<path d="M30.0001 56.6048C44.6935 56.6048 56.6049 44.6934 56.6049 30C56.6049 15.3065 44.6935 3.39514 30.0001 3.39514C15.3067 3.39514 3.39526 15.3065 3.39526 30C3.39526 44.6934 15.3067 56.6048 30.0001 56.6048Z" fill="url(#paint1_linear_4662:40693)"/>
<path d="M29.9999 52.4788C42.4146 52.4788 52.4787 42.4147 52.4787 30.0001C52.4787 17.5854 42.4146 7.52136 29.9999 7.52136C17.5853 7.52136 7.52124 17.5854 7.52124 30.0001C7.52124 42.4147 17.5853 52.4788 29.9999 52.4788Z" fill="url(#paint2_linear_4662:40693)"/>
<path d="M26.6863 33.6039L47.4712 54.3889C49.8857 52.6562 52.0314 50.5735 53.8361 48.2156L33.2808 27.6604L26.6863 33.6039Z" fill="url(#paint3_linear_4662:40693)"/>
<path d="M30 12.2725C30.8072 12.2725 31.4616 11.6181 31.4616 10.8109C31.4616 10.0036 30.8072 9.34924 30 9.34924C29.1927 9.34924 28.5383 10.0036 28.5383 10.8109C28.5383 11.6181 29.1927 12.2725 30 12.2725Z" fill="url(#paint4_linear_4662:40693)"/>
<path d="M30 50.6503C30.8072 50.6503 31.4616 49.9959 31.4616 49.1887C31.4616 48.3815 30.8072 47.7271 30 47.7271C29.1927 47.7271 28.5383 48.3815 28.5383 49.1887C28.5383 49.9959 29.1927 50.6503 30 50.6503Z" fill="url(#paint5_linear_4662:40693)"/>
<path d="M49.1889 31.4615C49.9962 31.4615 50.6506 30.8071 50.6506 29.9998C50.6506 29.1926 49.9962 28.5382 49.1889 28.5382C48.3817 28.5382 47.7273 29.1926 47.7273 29.9998C47.7273 30.8071 48.3817 31.4615 49.1889 31.4615Z" fill="url(#paint6_linear_4662:40693)"/>
<path d="M10.811 31.4615C11.6183 31.4615 12.2727 30.8071 12.2727 29.9998C12.2727 29.1926 11.6183 28.5382 10.811 28.5382C10.0038 28.5382 9.34937 29.1926 9.34937 29.9998C9.34937 30.8071 10.0038 31.4615 10.811 31.4615Z" fill="url(#paint7_linear_4662:40693)"/>
<path d="M39.5241 14.8029C40.3314 14.8029 40.9858 14.1485 40.9858 13.3413C40.9858 12.534 40.3314 11.8796 39.5241 11.8796C38.7169 11.8796 38.0625 12.534 38.0625 13.3413C38.0625 14.1485 38.7169 14.8029 39.5241 14.8029Z" fill="url(#paint8_linear_4662:40693)"/>
<path d="M20.4758 48.1199C21.2831 48.1199 21.9375 47.4655 21.9375 46.6583C21.9375 45.8511 21.2831 45.1967 20.4758 45.1967C19.6686 45.1967 19.0142 45.8511 19.0142 46.6583C19.0142 47.4655 19.6686 48.1199 20.4758 48.1199Z" fill="url(#paint9_linear_4662:40693)"/>
<path d="M46.6584 40.9854C47.4657 40.9854 48.1201 40.331 48.1201 39.5238C48.1201 38.7165 47.4657 38.0621 46.6584 38.0621C45.8512 38.0621 45.1968 38.7165 45.1968 39.5238C45.1968 40.331 45.8512 40.9854 46.6584 40.9854Z" fill="url(#paint10_linear_4662:40693)"/>
<path d="M13.3413 21.9373C14.1485 21.9373 14.8029 21.2829 14.8029 20.4757C14.8029 19.6684 14.1485 19.014 13.3413 19.014C12.534 19.014 11.8796 19.6684 11.8796 20.4757C11.8796 21.2829 12.534 21.9373 13.3413 21.9373Z" fill="url(#paint11_linear_4662:40693)"/>
<path d="M20.4758 14.8029C21.2831 14.8029 21.9375 14.1485 21.9375 13.3413C21.9375 12.534 21.2831 11.8796 20.4758 11.8796C19.6686 11.8796 19.0142 12.534 19.0142 13.3413C19.0142 14.1485 19.6686 14.8029 20.4758 14.8029Z" fill="url(#paint12_linear_4662:40693)"/>
<path d="M39.5241 48.1199C40.3314 48.1199 40.9858 47.4655 40.9858 46.6583C40.9858 45.8511 40.3314 45.1967 39.5241 45.1967C38.7169 45.1967 38.0625 45.8511 38.0625 46.6583C38.0625 47.4655 38.7169 48.1199 39.5241 48.1199Z" fill="url(#paint13_linear_4662:40693)"/>
<path d="M13.3413 40.9854C14.1485 40.9854 14.8029 40.331 14.8029 39.5238C14.8029 38.7165 14.1485 38.0621 13.3413 38.0621C12.534 38.0621 11.8796 38.7165 11.8796 39.5238C11.8796 40.331 12.534 40.9854 13.3413 40.9854Z" fill="url(#paint14_linear_4662:40693)"/>
<path d="M46.6584 21.9373C47.4657 21.9373 48.1201 21.2829 48.1201 20.4757C48.1201 19.6684 47.4657 19.014 46.6584 19.014C45.8512 19.014 45.1968 19.6684 45.1968 20.4757C45.1968 21.2829 45.8512 21.9373 46.6584 21.9373Z" fill="url(#paint15_linear_4662:40693)"/>
<path d="M30 3.39514V30L48.8125 48.8124C53.6269 43.998 56.6048 37.3467 56.6048 30C56.6048 15.3066 44.6934 3.39514 30 3.39514V3.39514Z" fill="url(#paint16_linear_4662:40693)"/>
<path d="M30 7.52136V30.0001L45.8948 45.8949C49.9627 41.827 52.4787 36.2074 52.4787 30.0001C52.4787 17.5854 42.4147 7.52136 30 7.52136V7.52136Z" fill="url(#paint17_linear_4662:40693)"/>
<path d="M30.1787 3.3975C30.1191 3.39715 30.0598 3.39526 30 3.39526V30L48.8125 48.8124C53.6269 43.998 56.6048 37.3467 56.6048 30C56.6048 29.9402 56.6029 29.8809 56.6026 29.8213L30.1787 3.3975Z" fill="url(#paint18_linear_4662:40693)"/>
<path d="M46.1965 40.576L48.7941 48.7942L48.8124 48.8125C49.7521 47.8729 50.6206 46.8624 51.4118 45.7914L46.1965 40.576Z" fill="url(#paint19_linear_4662:40693)"/>
<path d="M46.1963 40.5758L48.3851 46.6988L48.4759 48.3804C48.6109 48.758 46.6984 48.3855 46.6984 48.3855L40.5754 46.1967C39.0187 44.6398 44.6396 39.019 46.1963 40.5758Z" fill="url(#paint20_linear_4662:40693)"/>
<path d="M27.004 32.6258L40.5759 46.1966C40.7298 45.9299 40.9637 45.6939 41.2632 45.5267C41.6725 45.3 42.3126 45.4241 42.7558 45.5585C42.8522 45.5872 42.9405 45.537 42.9764 45.46C42.9989 45.4139 43.0031 45.3574 42.9784 45.302C42.9773 45.302 42.9773 45.301 42.9773 45.301C42.9527 45.2445 42.9312 45.1871 42.9127 45.1297C42.9045 45.102 42.8964 45.0743 42.8881 45.0466C42.8871 45.0446 42.8871 45.0436 42.8871 45.0414C42.8634 44.9521 42.8471 44.863 42.8378 44.7717C42.8347 44.7419 42.8326 44.7112 42.8306 44.6814C42.828 44.6319 42.8275 44.5823 42.8292 44.5327C42.8404 44.1859 42.9538 43.8414 43.1692 43.5489C43.2215 43.4771 43.28 43.4093 43.3446 43.3447C43.4092 43.2801 43.477 43.2217 43.5487 43.1693C43.8832 42.9231 44.2853 42.8103 44.6813 42.8309C44.7111 42.8329 44.7419 42.835 44.7715 42.838C44.8628 42.8472 44.9531 42.8637 45.0413 42.8873C45.0433 42.8873 45.0444 42.8873 45.0465 42.8884C45.0741 42.8966 45.1019 42.9047 45.1295 42.913C45.1593 42.9223 45.188 42.9325 45.2167 42.9438C45.2444 42.954 45.2721 42.9653 45.2998 42.9777C45.3008 42.9777 45.3008 42.9777 45.3018 42.9787C45.3572 43.0033 45.4135 42.9992 45.4598 42.9767C45.5367 42.9409 45.587 42.8526 45.5582 42.7561C45.4239 42.313 45.2998 41.6739 45.5265 41.2646C45.6937 40.964 45.9286 40.7301 46.1964 40.5763L32.6257 27.0041C32.2009 26.5805 31.5136 26.5805 31.09 27.0041L30.2888 27.8053L27.8053 30.2888L27.0041 31.09C26.5804 31.5138 26.5804 32.2011 27.004 32.6258V32.6258Z" fill="url(#paint21_linear_4662:40693)"/>
<path d="M27.8052 30.2888L42.9764 45.46C42.9989 45.4139 43.0031 45.3574 42.9784 45.302C42.9773 45.302 42.9773 45.301 42.9773 45.301C42.9527 45.2445 42.846 44.8619 42.8378 44.7717C42.8336 44.7408 42.8316 44.7112 42.8306 44.6814C42.8101 44.2854 42.9229 43.8833 43.1692 43.5489C43.2215 43.4772 43.28 43.4094 43.3446 43.3448C43.4092 43.2802 43.4769 43.2218 43.5487 43.1694C43.8832 42.9232 44.2853 42.8104 44.6813 42.8309C44.7111 42.832 44.7408 42.834 44.7715 42.8381C44.8618 42.8464 44.9521 42.8627 45.0413 42.8874C45.0433 42.8874 45.0444 42.8874 45.0465 42.8885C45.0741 42.8957 45.2721 42.9654 45.2999 42.9778C45.3009 42.9778 45.3009 42.9778 45.3019 42.9788C45.3573 43.0034 45.4136 42.9993 45.4599 42.9768L30.2887 27.8053L27.8052 30.2888Z" fill="url(#paint22_linear_4662:40693)"/>
<path d="M47.411 47.411C47.7063 47.1157 48.0363 46.8787 48.3854 46.6987L48.986 48.3789C49.121 48.7564 48.7564 49.121 48.3789 48.986L46.6987 48.3854C46.8787 48.0363 47.1157 47.7063 47.411 47.411Z" fill="url(#paint23_linear_4662:40693)"/>
<path d="M26.0254 11.1282L28.8071 5.25092C28.8071 5.25092 29.8283 3.94139 29.9999 4.30374L31.1926 5.2508L33.9743 11.1281C33.9744 13.3297 26.0254 13.3297 26.0254 11.1282V11.1282Z" fill="url(#paint24_linear_4662:40693)"/>
<path d="M33.975 30.3208L33.9743 11.128C33.6769 11.2077 33.3447 11.2093 33.0147 11.1156C32.5649 10.9865 32.2001 10.4461 31.9817 10.0377C31.9338 9.94928 31.836 9.92245 31.7561 9.9514C31.7075 9.9681 31.6647 10.005 31.6429 10.0616C31.6436 10.0623 31.6429 10.063 31.6429 10.063C31.6204 10.1203 31.595 10.1762 31.5675 10.2299C31.5537 10.2553 31.54 10.2807 31.5262 10.306C31.5255 10.3081 31.5248 10.3089 31.5233 10.3103C31.4768 10.3901 31.4254 10.4648 31.3673 10.536C31.3484 10.5592 31.3281 10.5825 31.3085 10.6049C31.2754 10.6417 31.2405 10.6772 31.2044 10.711C30.9513 10.9483 30.6276 11.1117 30.2683 11.1663C30.1805 11.1801 30.0914 11.1867 30 11.1867C29.9085 11.1867 29.8194 11.1801 29.7316 11.1663C29.321 11.104 28.9569 10.8994 28.6914 10.6049C28.6717 10.5825 28.6515 10.5593 28.6327 10.536C28.5747 10.4649 28.5224 10.3895 28.4767 10.3103C28.4753 10.3089 28.4744 10.3081 28.4737 10.306C28.46 10.2806 28.4462 10.2552 28.4324 10.2299C28.418 10.2023 28.4049 10.1748 28.3925 10.1465C28.3802 10.1196 28.3687 10.0921 28.3577 10.0637C28.357 10.063 28.357 10.063 28.357 10.0615C28.3353 10.0049 28.2924 9.96798 28.2438 9.95128C28.1641 9.92222 28.0661 9.94916 28.0182 10.0376C27.7998 10.446 27.4357 10.9857 26.986 11.1148C26.6551 11.209 26.3237 11.2083 26.0256 11.1279L26.0249 30.3207C26.0256 30.9206 26.5116 31.4066 27.1108 31.4066H28.2438H31.7561H32.8891C33.4883 31.4067 33.9743 30.9207 33.975 30.3208V30.3208Z" fill="url(#paint25_linear_4662:40693)"/>
<path d="M31.756 31.4067V9.95153C31.7074 9.96824 31.6646 10.0052 31.6428 10.0618C31.6435 10.0625 31.6428 10.0632 31.6428 10.0632C31.6204 10.1205 31.4252 10.4665 31.3672 10.5361C31.3484 10.5608 31.3287 10.5833 31.3085 10.6051C31.0429 10.8995 30.6788 11.1041 30.2682 11.1665C30.1805 11.1802 30.0913 11.1868 29.9999 11.1868C29.9085 11.1868 29.8193 11.1802 29.7315 11.1665C29.3209 11.1041 28.9568 10.8995 28.6913 10.6051C28.6709 10.5833 28.6514 10.5608 28.6326 10.5361C28.5746 10.4665 28.5224 10.3911 28.4766 10.3105C28.4752 10.3091 28.4744 10.3082 28.4737 10.3061C28.4592 10.2814 28.3685 10.0921 28.3575 10.0639C28.3568 10.0632 28.3568 10.0632 28.3568 10.0617C28.3351 10.0051 28.2922 9.96812 28.2437 9.95142V31.4067H31.756Z" fill="url(#paint26_linear_4662:40693)"/>
<path d="M30.0001 5.43634C29.5824 5.43634 29.1816 5.37046 28.8074 5.25093L29.5707 3.63822C29.7422 3.27587 30.2578 3.27587 30.4294 3.63822L31.1927 5.25093C30.8186 5.37046 30.4176 5.43634 30.0001 5.43634Z" fill="url(#paint27_linear_4662:40693)"/>
<path d="M30.0001 34.8959C32.704 34.8959 34.896 32.7039 34.896 30C34.896 27.2961 32.704 25.1041 30.0001 25.1041C27.2962 25.1041 25.1042 27.2961 25.1042 30C25.1042 32.7039 27.2962 34.8959 30.0001 34.8959Z" fill="url(#paint28_linear_4662:40693)"/>
<defs>
<linearGradient id="paint0_linear_4662:40693" x1="20.8548" y1="20.8548" x2="56.2336" y2="56.2336" gradientUnits="userSpaceOnUse">
<stop stop-color="#FFCE47"/>
<stop offset="1" stop-color="#FF9356"/>
</linearGradient>
<linearGradient id="paint1_linear_4662:40693" x1="38.1102" y1="38.1101" x2="6.7355" y2="6.73526" gradientUnits="userSpaceOnUse">
<stop stop-color="#FFCE47"/>
<stop offset="1" stop-color="#FF9356"/>
</linearGradient>
<linearGradient id="paint2_linear_4662:40693" x1="23.1476" y1="23.1477" x2="49.6565" y2="49.6567" gradientUnits="userSpaceOnUse">
<stop stop-color="#EDF5FF"/>
<stop offset="1" stop-color="#C7E9FF"/>
</linearGradient>
<linearGradient id="paint3_linear_4662:40693" x1="44.6757" y1="45.3243" x2="24.4128" y2="25.0613" gradientUnits="userSpaceOnUse">
<stop stop-color="#7ACBFF" stop-opacity="0"/>
<stop offset="1" stop-color="#2F73A0"/>
</linearGradient>
<linearGradient id="paint4_linear_4662:40693" x1="29.4261" y1="10.237" x2="30.6523" y2="11.4632" gradientUnits="userSpaceOnUse">
<stop stop-color="#2F73A0"/>
<stop offset="1" stop-color="#43765A"/>
</linearGradient>
<linearGradient id="paint5_linear_4662:40693" x1="29.4261" y1="48.6149" x2="30.6523" y2="49.841" gradientUnits="userSpaceOnUse">
<stop stop-color="#2F73A0"/>
<stop offset="1" stop-color="#43765A"/>
</linearGradient>
<linearGradient id="paint6_linear_4662:40693" x1="49.7628" y1="29.426" x2="48.5367" y2="30.6522" gradientUnits="userSpaceOnUse">
<stop stop-color="#2F73A0"/>
<stop offset="1" stop-color="#43765A"/>
</linearGradient>
<linearGradient id="paint7_linear_4662:40693" x1="11.3849" y1="29.426" x2="10.1587" y2="30.6522" gradientUnits="userSpaceOnUse">
<stop stop-color="#2F73A0"/>
<stop offset="1" stop-color="#43765A"/>
</linearGradient>
<linearGradient id="paint8_linear_4662:40693" x1="39.2805" y1="12.5263" x2="39.7365" y2="14.1988" gradientUnits="userSpaceOnUse">
<stop stop-color="#2F73A0"/>
<stop offset="1" stop-color="#43765A"/>
</linearGradient>
<linearGradient id="paint9_linear_4662:40693" x1="20.2449" y1="45.8383" x2="20.701" y2="47.5107" gradientUnits="userSpaceOnUse">
<stop stop-color="#2F73A0"/>
<stop offset="1" stop-color="#43765A"/>
</linearGradient>
<linearGradient id="paint10_linear_4662:40693" x1="47.4312" y1="39.1893" x2="45.7586" y2="39.6454" gradientUnits="userSpaceOnUse">
<stop stop-color="#2F73A0"/>
<stop offset="1" stop-color="#43765A"/>
</linearGradient>
<linearGradient id="paint11_linear_4662:40693" x1="14.1191" y1="20.1538" x2="12.4466" y2="20.61" gradientUnits="userSpaceOnUse">
<stop stop-color="#2F73A0"/>
<stop offset="1" stop-color="#43765A"/>
</linearGradient>
<linearGradient id="paint12_linear_4662:40693" x1="20.6845" y1="12.5541" x2="20.2283" y2="14.2266" gradientUnits="userSpaceOnUse">
<stop stop-color="#2F73A0"/>
<stop offset="1" stop-color="#43765A"/>
</linearGradient>
<linearGradient id="paint13_linear_4662:40693" x1="39.7201" y1="45.8661" x2="39.2639" y2="47.5387" gradientUnits="userSpaceOnUse">
<stop stop-color="#2F73A0"/>
<stop offset="1" stop-color="#43765A"/>
</linearGradient>
<linearGradient id="paint14_linear_4662:40693" x1="12.5336" y1="39.2171" x2="14.2061" y2="39.6734" gradientUnits="userSpaceOnUse">
<stop stop-color="#2F73A0"/>
<stop offset="1" stop-color="#43765A"/>
</linearGradient>
<linearGradient id="paint15_linear_4662:40693" x1="45.8455" y1="20.1817" x2="47.518" y2="20.638" gradientUnits="userSpaceOnUse">
<stop stop-color="#2F73A0"/>
<stop offset="1" stop-color="#43765A"/>
</linearGradient>
<linearGradient id="paint16_linear_4662:40693" x1="32.5359" y1="7.82597" x2="44.1829" y2="27.9436" gradientUnits="userSpaceOnUse">
<stop stop-color="#FF755C"/>
<stop offset="1" stop-color="#FF4181"/>
</linearGradient>
<linearGradient id="paint17_linear_4662:40693" x1="35.9604" y1="25.3124" x2="76.7231" y2="39.7823" gradientUnits="userSpaceOnUse">
<stop stop-color="#843561" stop-opacity="0"/>
<stop offset="1" stop-color="#3A2F4D"/>
</linearGradient>
<linearGradient id="paint18_linear_4662:40693" x1="42.3529" y1="26.1039" x2="25.4101" y2="26.1039" gradientUnits="userSpaceOnUse">
<stop stop-color="#843561" stop-opacity="0"/>
<stop offset="1" stop-color="#3A2F4D"/>
</linearGradient>
<linearGradient id="paint19_linear_4662:40693" x1="49.5963" y1="46.7861" x2="44.5119" y2="41.7018" gradientUnits="userSpaceOnUse">
<stop stop-color="#843561" stop-opacity="0"/>
<stop offset="1" stop-color="#3A2F4D"/>
</linearGradient>
<linearGradient id="paint20_linear_4662:40693" x1="48.107" y1="42.5272" x2="42.487" y2="48.1472" gradientUnits="userSpaceOnUse">
<stop stop-color="#FFE0EA"/>
<stop offset="1" stop-color="#FFC0D5"/>
</linearGradient>
<linearGradient id="paint21_linear_4662:40693" x1="46.1964" y1="36.4414" x2="26.6862" y2="36.4414" gradientUnits="userSpaceOnUse">
<stop stop-color="#FFCE47"/>
<stop offset="1" stop-color="#FF9356"/>
</linearGradient>
<linearGradient id="paint22_linear_4662:40693" x1="34.3002" y1="38.9648" x2="39.9745" y2="33.2906" gradientUnits="userSpaceOnUse">
<stop stop-color="#FFCE47"/>
<stop offset="1" stop-color="#FF9356"/>
</linearGradient>
<linearGradient id="paint23_linear_4662:40693" x1="48.2672" y1="47.9677" x2="46.8332" y2="49.4017" gradientUnits="userSpaceOnUse">
<stop stop-color="#2F73A0"/>
<stop offset="1" stop-color="#174461"/>
</linearGradient>
<linearGradient id="paint24_linear_4662:40693" x1="26.0255" y1="8.50821" x2="33.9746" y2="8.50821" gradientUnits="userSpaceOnUse">
<stop stop-color="#FFE0EA"/>
<stop offset="1" stop-color="#FFC0D5"/>
</linearGradient>
<linearGradient id="paint25_linear_4662:40693" x1="23.0922" y1="14.0701" x2="36.886" y2="27.8639" gradientUnits="userSpaceOnUse">
<stop stop-color="#FFCE47"/>
<stop offset="1" stop-color="#FF9356"/>
</linearGradient>
<linearGradient id="paint26_linear_4662:40693" x1="33.2868" y1="20.6967" x2="25.2634" y2="20.6967" gradientUnits="userSpaceOnUse">
<stop stop-color="#FFCE47"/>
<stop offset="1" stop-color="#FF9356"/>
</linearGradient>
<linearGradient id="paint27_linear_4662:40693" x1="29.7602" y1="4.39963" x2="31.7884" y2="4.39963" gradientUnits="userSpaceOnUse">
<stop stop-color="#2F73A0"/>
<stop offset="1" stop-color="#174461"/>
</linearGradient>
<linearGradient id="paint28_linear_4662:40693" x1="28.5077" y1="28.5075" x2="34.2813" y2="34.2812" gradientUnits="userSpaceOnUse">
<stop stop-color="#FF755C"/>
<stop offset="1" stop-color="#FF4181"/>
</linearGradient>
</defs>
</svg>
